{
copyright = "Borna Izadpanah";
date = "2015-10-13 18:21:16 +0000";
designer = "Borna Izadpanah";
familyName = "FilmFarsi";
featurePrefixes = (
{
automatic = 1;
code = "languagesystem DFLT dflt;\012languagesystem arab dflt;\012languagesystem arab URD;\012";
name = Languagesystems;
}
);
features = (
{
code = "feature ccmp;\012feature locl;\012feature init;\012feature medi;\012feature fina;\012feature rlig;\012";
disabled = 1;
name = aalt;
},
{

glyphs = (
{
color = 7;
glyphname = A;
lastChange = "2015-12-07 17:08:44 +0000";
layers = (
{
layerId = "5483B82D-F897-45AA-9987-2D1C58E320E8";
name = Bold;
paths = (
{
closed = 1;
nodes = (
"315 0 LINE",
"362 152 LINE",
"617 152 LINE",
"660 -10 LINE",
"936 0 LINE",
"656 834 LINE",
"343 834 LINE",
"50 -10 LINE"
);
},
{
closed = 1;
nodes = (
"414 337 LINE",
"455 484 OFFCURVE",
"481 580 OFFCURVE",
"492 626 CURVE",
"524 495 OFFCURVE",
"549 399 OFFCURVE",
"566 337 CURVE"
);
}
);
width = 986;
}
);
unicode = 0041;
},
{
color = 7;
glyphname = B;
lastChange = "2015-12-07 17:08:57 +0000";
layers = (
{
layerId = "5483B82D-F897-45AA-9987-2D1C58E320E8";
name = Bold;
paths = (
{
closed = 1;
nodes = (
"54 23 LINE",
"275 52 OFFCURVE",
"297 53 OFFCURVE",
"297 190 CURVE SMOOTH",
"300 813 LINE",
"50 826 LINE"
);
},
{
closed = 1;
nodes = (
"54 23 LINE",
"116 2 OFFCURVE",
"208 -10 OFFCURVE",
"311 -10 CURVE SMOOTH",
"432 -10 OFFCURVE",
"544 6 OFFCURVE",
"628 38 CURVE",
"684 84 OFFCURVE",
"740 192 OFFCURVE",
"740 299 CURVE SMOOTH",
"740 524 OFFCURVE",
"490 533 OFFCURVE",
"192 500 CURVE",
"202 352 LINE",
"378 363 OFFCURVE",
"498 363 OFFCURVE",
"498 247 CURVE SMOOTH",
"498 193 OFFCURVE",
"472 134 OFFCURVE",
"420 76 CURVE",
"504 69 LINE",
"563 191 LINE",
"440 140 OFFCURVE",
"266 172 OFFCURVE",
"187 179 CURVE"
);
},
{
closed = 1;
nodes = (
"149 671 LINE",
"319 692 OFFCURVE",
"466 722 OFFCURVE",
"466 595 CURVE SMOOTH",
"466 529 OFFCURVE",
"426 490 OFFCURVE",
"396 468 CURVE",
"555 446 LINE",
"613 488 OFFCURVE",
"685 552 OFFCURVE",
"685 660 CURVE SMOOTH",
"685 879 OFFCURVE",
"393 866 OFFCURVE",
"50 826 CURVE"
);
}
);
width = 790;
}
);
unicode = 0042;
},
{
color = 7;
glyphname = C;
lastChange = "2015-12-07 17:08:06 +0000";
layers = (
{
background = {
paths = (
{
closed = 1;
nodes = (
"364 199 OFFCURVE",
"313 283 OFFCURVE",
"313 416 CURVE SMOOTH",
"313 467 OFFCURVE",
"322 591 OFFCURVE",
"355 615 CURVE SMOOTH",
"392 642 OFFCURVE",
"546 629 OFFCURVE",
"677 596 CURVE",
"692 641 OFFCURVE",
"711 743 OFFCURVE",
"713 811 CURVE",
"649 838 OFFCURVE",
"561 850 OFFCURVE",
"474 850 CURVE SMOOTH",
"363 850 OFFCURVE",
"253 830 OFFCURVE",
"198 795 CURVE",
"119 698 OFFCURVE",
"50 560 OFFCURVE",
"50 368 CURVE SMOOTH",
"50 109 OFFCURVE",
"175 -10 OFFCURVE",
"417 -10 CURVE SMOOTH",
"500 -10 OFFCURVE",
"596 4 OFFCURVE",
"705 31 CURVE",
"681 221 LINE",
"605 207 OFFCURVE",
"544 199 OFFCURVE",
"496 199 CURVE SMOOTH"
);
}
);
};
layerId = "5483B82D-F897-45AA-9987-2D1C58E320E8";
name = Bold;
paths = (
{
closed = 1;
nodes = (
"360 199 OFFCURVE",
"313 284 OFFCURVE",
"313 423 CURVE SMOOTH",
"313 472 OFFCURVE",
"319 582 OFFCURVE",
"361 613 CURVE SMOOTH",
"396 639 OFFCURVE",
"542 630 OFFCURVE",
"677 596 CURVE",
"692 641 OFFCURVE",
"711 743 OFFCURVE",
"713 811 CURVE",
"564 874 OFFCURVE",
"327 860 OFFCURVE",
"184 769 CURVE",
"105 672 OFFCURVE",
"50 538 OFFCURVE",
"50 367 CURVE SMOOTH",
"50 109 OFFCURVE",
"175 -10 OFFCURVE",
"417 -10 CURVE SMOOTH",
"500 -10 OFFCURVE",
"596 4 OFFCURVE",
"705 31 CURVE",
"681 221 LINE",
"605 207 OFFCURVE",
"542 199 OFFCURVE",
"499 199 CURVE SMOOTH"
);
}
);
width = 758;
}
);
unicode = 0043;
},
{
color = 7;
glyphname = E;
lastChange = "2015-12-05 16:53:55 +0000";
layers = (
{
background = {
paths = (
{
closed = 1;
nodes = (
"842 0 LINE",
"842 269 LINE",
"261 269 LINE",
"261 497 LINE",
"769 497 LINE",
"769 766 LINE",
"261 766 LINE",
"261 958 LINE",
"817 958 LINE",
"817 1227 LINE",
"-54 1227 LINE",
"-54 0 LINE"
);
}
);
};
layerId = "5483B82D-F897-45AA-9987-2D1C58E320E8";
name = Bold;
paths = (
{
closed = 1;
nodes = (
"54 0 LINE",
"303 0 LINE",
"307 840 LINE",
"50 840 LINE"
);
},
{
closed = 1;
nodes = (
"229 641 LINE",
"665 641 LINE",
"665 840 LINE",
"229 840 LINE"
);
},
{
closed = 1;
nodes = (
"198 329 LINE",
"633 329 LINE",
"633 528 LINE",
"198 528 LINE"
);
},
{
closed = 1;
nodes = (
"245 0 LINE",
"681 0 LINE",
"681 199 LINE",
"245 199 LINE"
);
}
);
width = 731;
}
);
unicode = 0045;
},
{
color = 7;
glyphname = F;
lastChange = "2015-12-05 16:54:01 +0000";
layers = (
{
background = {
paths = (
{
closed = 1;
nodes = (
"269 0 LINE",
"269 456 LINE",
"760 456 LINE",
"760 723 LINE",
"269 723 LINE",
"269 958 LINE",
"805 958 LINE",
"805 1227 LINE",
"-45 1227 LINE",
"-45 0 LINE"
);
}
);
};
layerId = "5483B82D-F897-45AA-9987-2D1C58E320E8";
name = Bold;
paths = (
{
closed = 1;
nodes = (
"55 -10 LINE",
"303 0 LINE",
"307 840 LINE",
"50 840 LINE"
);
},
{
closed = 1;
nodes = (
"216 641 LINE",
"652 641 LINE",
"652 840 LINE",
"216 840 LINE"
);
},
{
closed = 1;
nodes = (
"184 293 LINE",
"620 293 LINE",
"620 492 LINE",
"184 492 LINE"
);
}
);
width = 702;
}
);
unicode = 0046;
},
{
color = 7;
glyphname = G;
lastChange = "2015-12-07 17:10:37 +0000";
layers = (
{
background = {
paths = (
{
closed = 1;
nodes = (
"313 180 OFFCURVE",
"313 416 CURVE SMOOTH",
"313 494 OFFCURVE",
"330 587 OFFCURVE",
"356 691 CURVE",
"228 650 LINE",
"378 660 OFFCURVE",
"588 633 OFFCURVE",
"772 596 CURVE",
"787 639 OFFCURVE",
"792 754 OFFCURVE",
"785 809 CURVE",
"616 876 OFFCURVE",
"312 856 OFFCURVE",
"192 778 CURVE",
"119 698 OFFCURVE",
"50 560 OFFCURVE",
"50 368 CURVE SMOOTH",
"50 109 OFFCURVE",
"175 -10 OFFCURVE",
"417 -10 CURVE SMOOTH",
"500 -10 OFFCURVE",
"662 4 OFFCURVE",
"787 31 CURVE",
"681 211 LINE",
"451 181 OFFCURVE"
);
}
);
};
layerId = "5483B82D-F897-45AA-9987-2D1C58E320E8";
name = Bold;
paths = (
{
closed = 1;
nodes = (
"474 303 LINE",
"790 303 LINE",
"790 492 LINE",
"474 492 LINE"
);
},
{
closed = 1;
nodes = (
"579 21 LINE",
"787 31 LINE",
"790 303 LINE",
"575 441 LINE"
);
},
{
closed = 1;
nodes = (
"360 199 OFFCURVE",
"313 284 OFFCURVE",
"313 423 CURVE SMOOTH",
"313 472 OFFCURVE",
"319 582 OFFCURVE",
"361 613 CURVE SMOOTH",
"406 639 OFFCURVE",
"594 630 OFFCURVE",
"767 596 CURVE",
"782 641 OFFCURVE",
"801 743 OFFCURVE",
"803 811 CURVE",
"629 874 OFFCURVE",
"351 860 OFFCURVE",
"184 769 CURVE",
"105 672 OFFCURVE",
"50 538 OFFCURVE",
"50 367 CURVE SMOOTH",
"50 109 OFFCURVE",
"175 -10 OFFCURVE",
"417 -10 CURVE SMOOTH",
"500 -10 OFFCURVE",
"676 4 OFFCURVE",
"785 31 CURVE",
"761 221 LINE",
"685 207 OFFCURVE",
"542 199 OFFCURVE",
"499 199 CURVE SMOOTH"
);
}
);
width = 900;
}
);
unicode = 0047;
},
{
color = 7;
glyphname = H;
lastChange = "2015-12-05 16:54:08 +0000";
layers = (
{
background = {
paths = (
{
closed = 1;
nodes = (
"-119 985 LINE",
"-116 -15 LINE",
"234 0 LINE",
"237 1000 LINE"
);
}
);
};
layerId = "5483B82D-F897-45AA-9987-2D1C58E320E8";
name = Bold;
paths = (
{
closed = 1;
nodes = (
"304 0 LINE",
"304 339 LINE",
"555 339 LINE",
"555 -10 LINE",
"811 0 LINE",
"811 850 LINE",
"555 840 LINE",
"555 538 LINE",
"304 538 LINE",
"304 850 LINE",
"50 840 LINE",
"50 -10 LINE"
);
}
);
width = 861;
}
);
unicode = 0048;
},
{
color = 7;
glyphname = I;
lastChange = "2015-12-05 16:54:15 +0000";
layers = (
{
layerId = "5483B82D-F897-45AA-9987-2D1C58E320E8";
name = Bold;
paths = (
{
closed = 1;
nodes = (
"54 -10 LINE",
"302 0 LINE",
"306 850 LINE",
"50 840 LINE"
);
}
);
width = 356;
}
);
unicode = 0049;
},
{
color = 7;
glyphname = J;
lastChange = "2015-12-07 23:18:38 +0000";
layers = (
{
layerId = "5483B82D-F897-45AA-9987-2D1C58E320E8";
name = Bold;
paths = (
{
closed = 1;
nodes = (
"244 420 LINE SMOOTH",
"244 346 OFFCURVE",
"244 242 OFFCURVE",
"216 167 CURVE",
"289 237 LINE",
"244 222 OFFCURVE",
"151 217 OFFCURVE",
"84 218 CURVE",
"50 16 LINE",
"204 -12 OFFCURVE",
"356 -20 OFFCURVE",
"432 32 CURVE",
"471 94 OFFCURVE",
"492 215 OFFCURVE",
"492 430 CURVE SMOOTH",
"496 850 LINE",
"240 840 LINE"
);
}
);
width = 546;
}
);
unicode = 004A;
},
{
color = 7;
glyphname = L;
lastChange = "2015-12-05 16:54:29 +0000";
layers = (
{
background = {
paths = (
{
closed = 1;
nodes = (
"810 0 LINE",
"810 269 LINE",
"272 269 LINE",
"272 1227 LINE",
"-43 1227 LINE",
"-43 0 LINE"
);
}
);
};
layerId = "5483B82D-F897-45AA-9987-2D1C58E320E8";
name = Bold;
paths = (
{
closed = 1;
nodes = (
"54 0 LINE",
"302 0 LINE",
"306 850 LINE",
"50 840 LINE"
);
},
{
closed = 1;
nodes = (
"215 0 LINE",
"651 0 LINE",
"651 199 LINE",
"215 199 LINE"
);
}
);
width = 701;
}
);
unicode = 004C;
},
{
color = 7;
glyphname = O;
lastChange = "2015-12-05 19:01:18 +0000";
layers = (
{
layerId = "5483B82D-F897-45AA-9987-2D1C58E320E8";
name = Bold;
paths = (
{
closed = 1;
nodes = (
"333 846 OFFCURVE",
"250 820 OFFCURVE",
"171 775 CURVE",
"89 666 OFFCURVE",
"48 567 OFFCURVE",
"50 403 CURVE SMOOTH",
"55 114 OFFCURVE",
"203 -6 OFFCURVE",
"438 -10 CURVE SMOOTH",
"561 -11 OFFCURVE",
"643 16 OFFCURVE",
"716 57 CURVE",
"787 139 OFFCURVE",
"843 263 OFFCURVE",
"839 454 CURVE SMOOTH",
"834 767 OFFCURVE",
"664 852 OFFCURVE",
"455 848 CURVE SMOOTH"
);
},
{
closed = 1;
nodes = (
"424 676 OFFCURVE",
"451 676 CURVE SMOOTH",
"548 676 OFFCURVE",
"592 600 OFFCURVE",
"594 465 CURVE SMOOTH",
"596 372 OFFCURVE",
"580 240 OFFCURVE",
"539 186 CURVE",
"505 173 OFFCURVE",
"470 166 OFFCURVE",
"442 166 CURVE SMOOTH",
"344 166 OFFCURVE",
"303 260 OFFCURVE",
"301 391 CURVE SMOOTH",
"299 500 OFFCURVE",
"318 600 OFFCURVE",
"360 659 CURVE",
"394 670 OFFCURVE"
);
}
);
width = 889;
}
);
unicode = 004F;
},
{
color = 7;
glyphname = S;
lastChange = "2015-12-05 23:00:11 +0000";
layers = (
{
layerId = "5483B82D-F897-45AA-9987-2D1C58E320E8";
name = Bold;
paths = (
{
closed = 1;
nodes = (
"741 481 OFFCURVE",
"545 509 OFFCURVE",
"431 550 CURVE SMOOTH",
"359 573 OFFCURVE",
"314 593 OFFCURVE",
"357 695 CURVE",
"310 671 LINE",
"303 629 LINE",
"363 656 OFFCURVE",
"534 632 OFFCURVE",
"626 602 CURVE",
"654 637 OFFCURVE",
"689 763 OFFCURVE",
"689 824 CURVE",
"615 839 OFFCURVE",
"536 847 OFFCURVE",
"460 847 CURVE SMOOTH",
"343 847 OFFCURVE",
"232 827 OFFCURVE",
"147 792 CURVE",
"91 733 OFFCURVE",
"50 671 OFFCURVE",
"50 581 CURVE SMOOTH",
"50 408 OFFCURVE",
"198 360 OFFCURVE",
"309 322 CURVE SMOOTH",
"407 293 OFFCURVE",
"481 275 OFFCURVE",
"423 176 CURVE",
"477 159 LINE",
"515 221 LINE",
"355 186 OFFCURVE",
"175 235 OFFCURVE",
"103 258 CURVE",
"78 200 OFFCURVE",
"52 90 OFFCURVE",
"50 24 CURVE",
"147 5 OFFCURVE",
"248 -5 OFFCURVE",
"344 -5 CURVE SMOOTH",
"482 -5 OFFCURVE",
"599 34 OFFCURVE",
"655 68 CURVE",
"711 136 OFFCURVE",
"741 202 OFFCURVE",
"741 275 CURVE SMOOTH"
);
}
);
width = 791;
}
);
unicode = 0053;
},
{
color = 7;
glyphname = T;
lastChange = "2015-12-05 16:54:44 +0000";
layers = (
{
background = {
paths = (
{
closed = 1;
nodes = (
"591 0 LINE",
"591 958 LINE",
"945 958 LINE",
"945 1227 LINE",
"-72 1227 LINE",
"-72 958 LINE",
"272 958 LINE",
"272 0 LINE"
);
}
);
};
layerId = "5483B82D-F897-45AA-9987-2D1C58E320E8";
name = Bold;
paths = (
{
closed = 1;
nodes = (
"280 -10 LINE",
"528 0 LINE",
"533 840 LINE",
"276 840 LINE"
);
},
{
closed = 1;
nodes = (
"528 641 LINE",
"759 641 LINE",
"759 840 LINE",
"528 840 LINE"
);
},
{
closed = 1;
nodes = (
"50 641 LINE",
"281 641 LINE",
"281 840 LINE",
"50 840 LINE"
);
}
);
width = 809;
}
);
unicode = 0054;
},
{
color = 7;
glyphname = U;
lastChange = "2015-12-05 19:04:26 +0000";
layers = (
{
layerId = "5483B82D-F897-45AA-9987-2D1C58E320E8";
name = Bold;
paths = (
{
closed = 1;
nodes = (
"774 850 LINE",
"551 840 LINE",
"551 320 LINE SMOOTH",
"551 279 OFFCURVE",
"542 245 OFFCURVE",
"530 212 CURVE",
"501 190 OFFCURVE",
"466 180 OFFCURVE",
"420 180 CURVE SMOOTH",
"379 180 OFFCURVE",
"346 186 OFFCURVE",
"318 210 CURVE",
"306 242 OFFCURVE",
"296 279 OFFCURVE",
"296 331 CURVE SMOOTH",
"296 850 LINE",
"50 840 LINE",
"50 316 LINE SMOOTH",
"50 210 OFFCURVE",
"77 131 OFFCURVE",
"124 70 CURVE",
"189 18 OFFCURVE",
"280 -10 OFFCURVE",
"405 -10 CURVE SMOOTH",
"531 -10 OFFCURVE",
"621 19 OFFCURVE",
"688 65 CURVE",
"745 130 OFFCURVE",
"774 216 OFFCURVE",
"774 323 CURVE SMOOTH"
);
}
);
width = 824;
}
);
unicode = 0055;
},
{
color = 7;
glyphname = V;
lastChange = "2015-12-05 16:54:59 +0000";
layers = (
{
background = {
paths = (
{
closed = 1;
nodes = (
"761 1230 LINE",
"712 1005 OFFCURVE",
"633 722 OFFCURVE",
"532 402 CURVE",
"504 284 LINE",
"502 284 LINE",
"474 400 LINE",
"390 662 OFFCURVE",
"298 989 OFFCURVE",
"241 1245 CURVE",
"-150 1230 LINE",
"-42 833 OFFCURVE",
"92 413 OFFCURVE",
"251 -15 CURVE",
"720 0 LINE",
"881 443 OFFCURVE",
"1010 840 OFFCURVE",
"1115 1245 CURVE"
);
}
);
};
layerId = "5483B82D-F897-45AA-9987-2D1C58E320E8";
name = Bold;
paths = (
{
closed = 1;
nodes = (
"673 840 LINE",
"639 686 OFFCURVE",
"585 493 OFFCURVE",
"516 275 CURVE",
"497 194 LINE",
"496 194 LINE",
"477 273 LINE",
"419 452 OFFCURVE",
"356 676 OFFCURVE",
"318 850 CURVE",
"50 840 LINE",
"124 569 OFFCURVE",
"216 282 OFFCURVE",
"324 -10 CURVE",
"645 0 LINE",
"755 303 OFFCURVE",
"843 574 OFFCURVE",
"915 850 CURVE"
);
}
);
width = 965;
}
);
unicode = 0056;
},
{
color = 7;
glyphname = W;
lastChange = "2015-12-05 16:55:05 +0000";
layers = (
{
background = {
paths = (
{
closed = 1;
nodes = (
"1215 1230 LINE",
"1187 980 OFFCURVE",
"1134 653 OFFCURVE",
"1050 289 CURVE",
"1103 323 LINE",
"1076 323 LINE",
"864 1245 LINE",
"499 1230 LINE",
"292 323 LINE",
"291 323 LINE",
"231 585 OFFCURVE",
"171 953 OFFCURVE",
"139 1245 CURVE",
"-231 1230 LINE",
"-175 844 OFFCURVE",
"-90 421 OFFCURVE",
"23 -15 CURVE",
"492 0 LINE",
"686 841 LINE",
"611 797 LINE",
"657 797 LINE",
"846 -15 LINE",
"1282 0 LINE",
"1399 453 OFFCURVE",
"1481 840 OFFCURVE",
"1540 1245 CURVE"
);
}
);
};
layerId = "5483B82D-F897-45AA-9987-2D1C58E320E8";
name = Bold;
paths = (
{
closed = 1;
nodes = (
"1021 693 OFFCURVE",
"992 507 OFFCURVE",
"959 352 CURVE",
"939 207 LINE",
"936 207 LINE",
"914 347 LINE",
"798 850 LINE",
"548 840 LINE",
"429 320 LINE",
"408 207 LINE",
"406 207 LINE",
"384 328 LINE",
"351 492 OFFCURVE",
"320 688 OFFCURVE",
"302 850 CURVE",
"50 840 LINE",
"88 576 OFFCURVE",
"146 288 OFFCURVE",
"223 -10 CURVE",
"544 0 LINE",
"662 516 LINE",
"785 -10 LINE",
"1083 0 LINE",
"1163 309 OFFCURVE",
"1219 574 OFFCURVE",
"1259 850 CURVE",
"1037 840 LINE"
);
}
);
width = 1309;
}
);
unicode = 0057;
},
{
color = 7;
glyphname = X;
lastChange = "2015-12-05 16:55:13 +0000";
layers = (
{
background = {
paths = (
{
closed = 1;
nodes = (
"1054 0 LINE",
"947 218 OFFCURVE",
"830 436 OFFCURVE",
"703 654 CURVE",
"818 846 OFFCURVE",
"922 1038 OFFCURVE",
"1017 1230 CURVE",
"651 1230 LINE",
"610 1126 OFFCURVE",
"563 1022 OFFCURVE",
"526 953 CURVE",
"468 832 LINE",
"427 919 LINE",
"371 1023 OFFCURVE",
"321 1126 OFFCURVE",
"280 1230 CURVE",
"-97 1230 LINE",
"-2 1036 OFFCURVE",
"104 844 OFFCURVE",
"219 650 CURVE",
"91 434 OFFCURVE",
"-26 216 OFFCURVE",
"-134 0 CURVE",
"246 0 LINE",
"293 115 OFFCURVE",
"347 232 OFFCURVE",
"386 306 CURVE",
"456 468 LINE",
"505 346 LINE",
"566 231 OFFCURVE",
"621 115 OFFCURVE",
"668 0 CURVE"
);
}
);
};
layerId = "5483B82D-F897-45AA-9987-2D1C58E320E8";
name = Bold;
paths = (
{
closed = 1;
nodes = (
"866 0 LINE",
"793 149 OFFCURVE",
"713 298 OFFCURVE",
"626 447 CURVE",
"705 578 OFFCURVE",
"776 709 OFFCURVE",
"843 850 CURVE",
"590 840 LINE",
"562 769 OFFCURVE",
"530 698 OFFCURVE",
"505 651 CURVE",
"465 568 LINE",
"437 628 LINE",
"399 699 OFFCURVE",
"365 769 OFFCURVE",
"334 850 CURVE",
"80 840 LINE",
"144 708 OFFCURVE",
"217 576 OFFCURVE",
"295 444 CURVE",
"208 296 OFFCURVE",
"128 148 OFFCURVE",
"50 -10 CURVE",
"314 0 LINE",
"346 79 OFFCURVE",
"383 158 OFFCURVE",
"409 209 CURVE",
"457 320 LINE",
"491 236 LINE",
"532 158 OFFCURVE",
"570 79 OFFCURVE",
"605 -10 CURVE"
);
}
);
width = 916;
}
);
unicode = 0058;
},
{
color = 7;
glyphname = Y;
lastChange = "2015-12-05 16:55:20 +0000";
layers = (
{
background = {
paths = (
{
closed = 1;
nodes = (
"645 1230 LINE",
"586 1054 OFFCURVE",
"526 899 OFFCURVE",
"454 751 CURVE",
"380 913 OFFCURVE",
"322 1056 OFFCURVE",
"257 1245 CURVE",
"-126 1230 LINE",
"-8 955 OFFCURVE",
"140 665 OFFCURVE",
"287 420 CURVE",
"268 516 LINE",
"268 -15 LINE",
"614 0 LINE",
"614 516 LINE",
"591 446 LINE",
"742 685 OFFCURVE",
"871 947 OFFCURVE",
"983 1245 CURVE"
);
}
);
};
layerId = "5483B82D-F897-45AA-9987-2D1C58E320E8";
name = Bold;
paths = (
{
closed = 1;
nodes = (
"577 840 LINE",
"543 738 OFFCURVE",
"507 645 OFFCURVE",
"467 557 CURVE",
"446 472 LINE",
"410 594 LINE",
"383 654 OFFCURVE",
"349 741 OFFCURVE",
"312 850 CURVE",
"50 840 LINE",
"131 652 OFFCURVE",
"232 454 OFFCURVE",
"332 287 CURVE",
"319 352 LINE",
"319 -10 LINE",
"556 0 LINE",
"556 352 LINE",
"540 305 LINE",
"643 468 OFFCURVE",
"731 647 OFFCURVE",
"808 850 CURVE"
);
}
);
width = 858;
}
);
unicode = 0059;
},
{
color = 7;
glyphname = Z;
lastChange = "2015-12-05 16:55:26 +0000";
layers = (
{
background = {
paths = (
{
closed = 1;
nodes = (
"-64 939 LINE",
"574 939 LINE",
"574 1230 LINE",
"-64 1230 LINE"
);
}
);
};
layerId = "5483B82D-F897-45AA-9987-2D1C58E320E8";
name = Bold;
paths = (
{
closed = 1;
nodes = (
"627 0 LINE",
"627 198 LINE",
"265 198 LINE",
"280 138 LINE",
"618 666 LINE",
"618 840 LINE",
"66 840 LINE",
"66 641 LINE",
"406 641 LINE",
"392 701 LINE",
"50 173 LINE",
"50 0 LINE"
);
}
);
width = 677;
}
);
unicode = 005A;
},
{
color = 7;
glyphname = a;
lastChange = "2015-12-07 16:24:42 +0000";
layers = (
{
layerId = "5483B82D-F897-45AA-9987-2D1C58E320E8";
name = Bold;
paths = (
{
closed = 1;
nodes = (
"436 152 LINE",
"401 135 OFFCURVE",
"371 126 OFFCURVE",
"341 126 CURVE SMOOTH",
"300 126 OFFCURVE",
"264 141 OFFCURVE",
"264 203 CURVE SMOOTH",
"264 228 OFFCURVE",
"270 252 OFFCURVE",
"280 264 CURVE",
"302 275 OFFCURVE",
"358 280 OFFCURVE",
"447 280 CURVE",
"447 402 LINE",
"382 402 OFFCURVE",
"193 397 OFFCURVE",
"89 342 CURVE",
"65 316 OFFCURVE",
"28 263 OFFCURVE",
"28 186 CURVE SMOOTH",
"28 82 OFFCURVE",
"95 -10 OFFCURVE",
"237 -10 CURVE SMOOTH",
"285 -10 OFFCURVE",
"375 0 OFFCURVE",
"436 84 CURVE"
);
},
{
closed = 1;
nodes = (
"86 470 CURVE",
"242 508 OFFCURVE",
"390 520 OFFCURVE",
"480 512 CURVE",
"411 539 LINE",
"377 555 LINE",
"405 499 OFFCURVE",
"403 438 OFFCURVE",
"403 382 CURVE",
"403 329 LINE",
"405 133 LINE",
"401 116 LINE",
"443 -10 LINE",
"637 0 LINE",
"638 408 LINE SMOOTH",
"638 497 OFFCURVE",
"619 582 OFFCURVE",
"572 632 CURVE",
"498 679 OFFCURVE",
"380 683 OFFCURVE",
"316 682 CURVE SMOOTH",
"207 680 OFFCURVE",
"164 670 OFFCURVE",
"112 658 CURVE",
"96 628 OFFCURVE",
"79 506 OFFCURVE"
);
}
);
width = 703;
},
{
associatedMasterId = "5483B82D-F897-45AA-9987-2D1C58E320E8";
background = {
paths = (
{
closed = 1;
nodes = (
"750 360 OFFCURVE",
"631 304 OFFCURVE",
"556 304 CURVE SMOOTH",
"380 304 OFFCURVE",
"429 626 OFFCURVE",
"491 748 CURVE",
"586 796 OFFCURVE",
"836 733 OFFCURVE",
"953 602 CURVE",
"1067 978 LINE",
"950 1010 OFFCURVE",
"793 1043 OFFCURVE",
"626 1061 CURVE",
"366 1035 OFFCURVE",
"70 787 OFFCURVE",
"70 411 CURVE SMOOTH",
"70 152 OFFCURVE",
"199 -15 OFFCURVE",
"402 -15 CURVE",
"522 13 OFFCURVE",
"740 155 OFFCURVE",
"938 345 CURVE",
"855 453 LINE"
);
},
{
closed = 1;
nodes = (
"1056 10 LINE",
"1044 255 OFFCURVE",
"1058 672 OFFCURVE",
"1067 978 CURVE",
"740 934 LINE",
"701 761 OFFCURVE",
"703 240 OFFCURVE",
"709 -12 CURVE"
);
}
);
};
layerId = "435E093A-7A2B-4C5E-9CDA-AE0F0F80B706";
name = "Regular Nov 3 15, 16:36";
paths = (
{
closed = 1;
nodes = (
"750 360 OFFCURVE",
"631 304 OFFCURVE",
"556 304 CURVE SMOOTH",
"370 304 OFFCURVE",
"419 662 OFFCURVE",
"579 816 CURVE",
"464 768 LINE",
"590 790 OFFCURVE",
"853 714 OFFCURVE",
"953 602 CURVE",
"1062 988 LINE",
"950 1010 OFFCURVE",
"793 1043 OFFCURVE",
"626 1061 CURVE",
"366 1035 OFFCURVE",
"70 787 OFFCURVE",
"70 411 CURVE SMOOTH",
"70 152 OFFCURVE",
"183 -15 OFFCURVE",
"442 -15 CURVE",
"560 21 OFFCURVE",
"814 179 OFFCURVE",
"938 345 CURVE",
"855 453 LINE"
);
},
{
closed = 1;
nodes = (
"1062 0 LINE",
"1049 255 OFFCURVE",
"1053 672 OFFCURVE",
"1062 988 CURVE",
"713 934 LINE",
"705 761 OFFCURVE",
"695 240 OFFCURVE",
"713 0 CURVE"
);
}
);
width = 1162;
}
);
unicode = 0061;
},
{
color = 7;
glyphname = b;
lastChange = "2015-12-07 16:25:05 +0000";
layers = (
{
layerId = "5483B82D-F897-45AA-9987-2D1C58E320E8";
name = Bold;
paths = (
{
closed = 1;
nodes = (
"59 23 LINE",
"274 52 OFFCURVE",
"294 56 OFFCURVE",
"294 190 CURVE SMOOTH",
"296 601 LINE",
"287 601 LINE",
"297 714 LINE",
"298 888 LINE",
"55 878 LINE"
);
},
{
closed = 1;
nodes = (
"59 23 LINE",
"121 3 OFFCURVE",
"215 -8 OFFCURVE",
"311 -8 CURVE SMOOTH",
"431 -8 OFFCURVE",
"533 11 OFFCURVE",
"613 52 CURVE",
"675 107 OFFCURVE",
"738 238 OFFCURVE",
"738 376 CURVE SMOOTH",
"738 608 OFFCURVE",
"626 683 OFFCURVE",
"480 683 CURVE SMOOTH",
"364 683 OFFCURVE",
"298 635 OFFCURVE",
"266 587 CURVE",
"241 482 LINE",
"268 506 OFFCURVE",
"328 519 OFFCURVE",
"374 519 CURVE SMOOTH",
"472 519 OFFCURVE",
"495 462 OFFCURVE",
"495 333 CURVE SMOOTH",
"495 227 OFFCURVE",
"473 148 OFFCURVE",
"425 83 CURVE",
"516 76 LINE",
"575 198 LINE",
"453 134 OFFCURVE",
"281 157 OFFCURVE",
"200 165 CURVE"
);
}
);
width = 769;
}
);
unicode = 0062;
},
{
color = 7;
glyphname = c;
lastChange = "2015-12-07 16:25:15 +0000";
layers = (
{
guideLines = (
{
angle = 90;
position = "{726, 518}";
}
);
layerId = "5483B82D-F897-45AA-9987-2D1C58E320E8";
name = Bold;
paths = (
{
closed = 1;
nodes = (
"273 419 OFFCURVE",
"290 514 OFFCURVE",
"304 555 CURVE",
"202 512 LINE",
"326 512 OFFCURVE",
"432 501 OFFCURVE",
"562 471 CURVE",
"575 507 OFFCURVE",
"590 602 OFFCURVE",
"590 650 CURVE",
"565 665 OFFCURVE",
"492 684 OFFCURVE",
"396 683 CURVE SMOOTH",
"293 682 OFFCURVE",
"198 655 OFFCURVE",
"156 625 CURVE",
"90 559 OFFCURVE",
"31 449 OFFCURVE",
"31 294 CURVE SMOOTH",
"31 38 OFFCURVE",
"193 -10 OFFCURVE",
"338 -10 CURVE SMOOTH",
"399 -10 OFFCURVE",
"524 -1 OFFCURVE",
"590 23 CURVE",
"571 180 LINE",
"321 137 OFFCURVE",
"273 177 OFFCURVE",
"273 329 CURVE SMOOTH"
);
}
);
width = 607;
}
);
unicode = 0063;
},
{
color = 7;
glyphname = d;
lastChange = "2015-12-07 16:25:25 +0000";
layers = (
{
associatedMasterId = "5483B82D-F897-45AA-9987-2D1C58E320E8";
background = {
paths = (
{
closed = 1;
nodes = (
"774 319 OFFCURVE",
"545 344 OFFCURVE",
"545 582 CURVE SMOOTH",
"545 1211 LINE",
"428 1216 OFFCURVE",
"311 1211 OFFCURVE",
"194 1196 CURVE",
"194 396 LINE SMOOTH",
"194 -117 OFFCURVE",
"722 -211 OFFCURVE",
"1027 456 CURVE",
"1134 574 LINE"
);
},
{
closed = 1;
nodes = (
"1201 241 OFFCURVE",
"1204 796 OFFCURVE",
"1204 1211 CURVE",
"1087 1216 OFFCURVE",
"970 1211 OFFCURVE",
"853 1196 CURVE",
"853 406 LINE SMOOTH",
"853 306 OFFCURVE",
"860 172 OFFCURVE",
"884 -4 CURVE",
"991 -10 OFFCURVE",
"1104 -5 OFFCURVE",
"1211 9 CURVE"
);
}
);
};
layerId = "F6825280-09BD-49D7-B84D-BCA3E6DF0595";
name = "Regular Oct 14 15, 23:18";
paths = (
{
closed = 1;
nodes = (
"1010 1050 OFFCURVE",
"773 1215 OFFCURVE",
"584 1215 CURVE SMOOTH",
"248 1215 OFFCURVE",
"100 902 OFFCURVE",
"100 578 CURVE SMOOTH",
"100 270 OFFCURVE",
"235 -12 OFFCURVE",
"509 -12 CURVE SMOOTH",
"701 -12 OFFCURVE",
"952 188 OFFCURVE",
"1028 556 CURVE",
"944 618 LINE",
"894 501 OFFCURVE",
"812 303 OFFCURVE",
"633 303 CURVE SMOOTH",
"459 303 OFFCURVE",
"388 508 OFFCURVE",
"388 686 CURVE SMOOTH",
"388 919 OFFCURVE",
"530 1123 OFFCURVE",
"915 655 CURVE",
"1063 934 LINE"
);
},
{
closed = 1;
nodes = (
"903 1700 LINE",
"876 1620 OFFCURVE",
"860 1531 OFFCURVE",
"853 1431 CURVE",
"853 0 LINE",
"1253 0 LINE",
"1253 1700 LINE"
);
}
);
width = 1318;
},
{
layerId = "5483B82D-F897-45AA-9987-2D1C58E320E8";
name = Bold;
paths = (
{
closed = 1;
nodes = (
"471 718 LINE",
"479 634 LINE",
"472 598 LINE",
"471 151 LINE",
"471 127 OFFCURVE",
"496 41 OFFCURVE",
"516 -10 CURVE",
"709 0 LINE",
"714 888 LINE",
"470 878 LINE"
);
},
{
closed = 1;
nodes = (
"549 639 LINE",
"462 707 OFFCURVE",
"249 680 OFFCURVE",
"156 621 CURVE",
"90 560 OFFCURVE",
"31 432 OFFCURVE",
"31 298 CURVE SMOOTH",
"31 65 OFFCURVE",
"142 -10 OFFCURVE",
"288 -10 CURVE SMOOTH",
"405 -10 OFFCURVE",
"470 38 OFFCURVE",
"503 86 CURVE",
"528 191 LINE",
"500 167 OFFCURVE",
"441 154 OFFCURVE",
"395 154 CURVE SMOOTH",
"297 154 OFFCURVE",
"274 210 OFFCURVE",
"274 340 CURVE SMOOTH",
"274 395 OFFCURVE",
"284 529 OFFCURVE",
"341 585 CURVE",
"242 554 LINE",
"195 501 LINE",
"322 518 OFFCURVE",
"474 499 OFFCURVE",
"544 478 CURVE"
);
}
);
width = 769;
},
{
associatedMasterId = "5483B82D-F897-45AA-9987-2D1C58E320E8";
background = {
paths = (
{
closed = 1;
nodes = (
"284 1109 OFFCURVE",
"166 974 OFFCURVE",
"133 783 CURVE SMOOTH",
"25 167 LINE",
"367 91 LINE",
"455 574 LINE SMOOTH",
"468 644 OFFCURVE",
"484 740 OFFCURVE",
"509 753 CURVE SMOOTH",
"602 801 OFFCURVE",
"819 645 OFFCURVE",
"910 523 CURVE",
"948 735 LINE",
"846 882 OFFCURVE",
"684 1066 OFFCURVE",
"458 1106 CURVE"
);
}
);
};
layerId = "6A6C5A70-2F23-4834-98C3-05932BBF0406";
name = "Bold Nov 6 15, 09:24";
paths = (
{
closed = 1;
nodes = (
"727 1051 LINE",
"738 928 LINE",
"728 876 LINE",
"727 311 LINE SMOOTH",
"727 186 OFFCURVE",
"752 60 OFFCURVE",
"792 -15 CURVE",
"1076 0 LINE",
"1082 1300 LINE",
"726 1285 LINE"
);
},
{
closed = 1;
nodes = (
"787 932 LINE",
"735 978 OFFCURVE",
"628 1000 OFFCURVE",
"552 1000 CURVE SMOOTH",
"305 1000 OFFCURVE",
"80 768 OFFCURVE",
"80 441 CURVE SMOOTH",
"80 172 OFFCURVE",
"232 25 OFFCURVE",
"375 -7 CURVE SMOOTH",
"522 -39 OFFCURVE",
"713 39 OFFCURVE",
"770 127 CURVE",
"742 251 LINE",
"565 157 OFFCURVE",
"435 264 OFFCURVE",
"435 495 CURVE SMOOTH",
"435 621 OFFCURVE",
"474 711 OFFCURVE",
"497 732 CURVE SMOOTH",
"541 772 OFFCURVE",
"714 732 OFFCURVE",
"833 653 CURVE"
);
}
);
width = 1172;
},
{
associatedMasterId = "5483B82D-F897-45AA-9987-2D1C58E320E8";
background = {
paths = (
{
closed = 1;
nodes = (
"717 1051 LINE",
"728 928 LINE",
"718 876 LINE",
"717 221 LINE",
"717 186 OFFCURVE",
"753 60 OFFCURVE",
"782 -15 CURVE",
"1066 0 LINE",
"1072 1300 LINE",
"716 1285 LINE"
);
},
{
closed = 1;
nodes = (
"1067 952 LINE",
"998 974 OFFCURVE",
"920 986 OFFCURVE",
"838 993 CURVE SMOOTH",
"774 998 OFFCURVE",
"714 1001 OFFCURVE",
"657 1001 CURVE SMOOTH",
"466 1001 OFFCURVE",
"312 967 OFFCURVE",
"202 853 CURVE SMOOTH",
"113 760 OFFCURVE",
"73 632 OFFCURVE",
"73 434 CURVE SMOOTH",
"73 95 OFFCURVE",
"237 -15 OFFCURVE",
"450 -15 CURVE SMOOTH",
"620 -15 OFFCURVE",
"716 55 OFFCURVE",
"763 126 CURVE",
"800 279 LINE",
"760 244 OFFCURVE",
"673 225 OFFCURVE",
"605 225 CURVE SMOOTH",
"462 225 OFFCURVE",
"428 308 OFFCURVE",
"428 498 CURVE SMOOTH",
"428 715 OFFCURVE",
"472 757 OFFCURVE",
"601 761 CURVE SMOOTH",
"721 765 OFFCURVE",
"771 732 OFFCURVE",
"860 744 CURVE"
);
}
);
};
layerId = "AEA80723-A09F-48B7-BD6C-A107E7000CAB";
name = "Bold Nov 9 15, 21:44";
paths = (
{
closed = 1;
nodes = (
"717 1051 LINE",
"728 928 LINE",
"718 876 LINE",
"717 221 LINE",
"717 186 OFFCURVE",
"753 60 OFFCURVE",
"782 -15 CURVE",
"1066 0 LINE",
"1072 1300 LINE",
"716 1285 LINE"
);
},
{
closed = 1;
nodes = (
"831 935 LINE",
"793 957 OFFCURVE",
"711 1002 OFFCURVE",
"565 1002 CURVE SMOOTH",
"473 1002 OFFCURVE",
"327 984 OFFCURVE",
"216 869 CURVE SMOOTH",
"126 776 OFFCURVE",
"73 633 OFFCURVE",
"73 437 CURVE SMOOTH",
"73 95 OFFCURVE",
"235 -15 OFFCURVE",
"449 -15 CURVE SMOOTH",
"620 -15 OFFCURVE",
"716 55 OFFCURVE",
"763 126 CURVE",
"800 279 LINE",
"760 244 OFFCURVE",
"673 225 OFFCURVE",
"605 225 CURVE SMOOTH",
"462 225 OFFCURVE",
"428 308 OFFCURVE",
"428 497 CURVE SMOOTH",
"428 709 OFFCURVE",
"471 760 OFFCURVE",
"601 761 CURVE SMOOTH",
"671 762 OFFCURVE",
"727 748 OFFCURVE",
"778 724 CURVE"
);
}
);
width = 1162;
}
);
unicode = 0064;
},
{
color = 7;
glyphname = e;
lastChange = "2015-12-07 16:25:34 +0000";
layers = (
{
background = {
paths = (
{
closed = 1;
nodes = (
"271 389 LINE",
"271 471 OFFCURVE",
"290 572 OFFCURVE",
"323 615 CURVE",
"222 594 LINE",
"192 495 LINE",
"232 513 OFFCURVE",
"323 543 OFFCURVE",
"367 540 CURVE SMOOTH",
"436 534 OFFCURVE",
"458 464 OFFCURVE",
"435 351 CURVE",
"472 406 LINE",
"261 406 LINE",
"263 283 LINE",
"440 283 OFFCURVE",
"585 283 OFFCURVE",
"634 296 CURVE",
"650 322 OFFCURVE",
"658 375 OFFCURVE",
"658 404 CURVE SMOOTH",
"658 583 OFFCURVE",
"561 683 OFFCURVE",
"375 683 CURVE SMOOTH",
"278 683 OFFCURVE",
"172 645 OFFCURVE",
"104 600 CURVE",
"69 536 OFFCURVE",
"31 451 OFFCURVE",
"31 311 CURVE SMOOTH",
"31 73 OFFCURVE",
"143 -10 OFFCURVE",
"350 -10 CURVE SMOOTH",
"434 -10 OFFCURVE",
"534 4 OFFCURVE",
"576 14 CURVE",
"607 68 OFFCURVE",
"624 124 OFFCURVE",
"627 178 CURVE",
"552 168 OFFCURVE",
"487 161 OFFCURVE",
"434 161 CURVE SMOOTH",
"331 161 OFFCURVE",
"272 191 OFFCURVE",
"272 296 CURVE"
);
}
);
};
layerId = "5483B82D-F897-45AA-9987-2D1C58E320E8";
name = Bold;
paths = (
{
closed = 1;
nodes = (
"271 389 LINE",
"271 471 OFFCURVE",
"290 572 OFFCURVE",
"323 615 CURVE",
"222 594 LINE",
"192 495 LINE",
"338 562 OFFCURVE",
"444 562 OFFCURVE",
"444 428 CURVE SMOOTH",
"444 406 OFFCURVE",
"441 380 OFFCURVE",
"435 351 CURVE",
"472 406 LINE",
"261 406 LINE",
"263 283 LINE",
"440 283 OFFCURVE",
"585 283 OFFCURVE",
"634 296 CURVE",
"650 322 OFFCURVE",
"658 375 OFFCURVE",
"658 404 CURVE SMOOTH",
"658 583 OFFCURVE",
"561 683 OFFCURVE",
"375 683 CURVE SMOOTH",
"278 683 OFFCURVE",
"172 645 OFFCURVE",
"104 600 CURVE",
"69 536 OFFCURVE",
"31 451 OFFCURVE",
"31 311 CURVE SMOOTH",
"31 73 OFFCURVE",
"143 -10 OFFCURVE",
"350 -10 CURVE SMOOTH",
"434 -10 OFFCURVE",
"534 4 OFFCURVE",
"576 14 CURVE",
"607 68 OFFCURVE",
"624 124 OFFCURVE",
"627 178 CURVE",
"552 168 OFFCURVE",
"487 161 OFFCURVE",
"434 161 CURVE SMOOTH",
"331 161 OFFCURVE",
"272 191 OFFCURVE",
"272 296 CURVE"
);
}
);
width = 688;
},
{
associatedMasterId = "5483B82D-F897-45AA-9987-2D1C58E320E8";
background = {
paths = (
{
closed = 1;
nodes = (
"421 570 LINE",
"421 690 OFFCURVE",
"449 837 OFFCURVE",
"497 900 CURVE",
"349 870 LINE",
"373 756 LINE",
"431 782 OFFCURVE",
"497 795 OFFCURVE",
"561 790 CURVE SMOOTH",
"662 782 OFFCURVE",
"674 679 OFFCURVE",
"669 556 CURVE",
"715 595 LINE",
"406 595 LINE",
"409 415 LINE",
"757 415 LINE SMOOTH",
"797 415 OFFCURVE",
"909 425 OFFCURVE",
"975 452 CURVE",
"983 503 OFFCURVE",
"987 549 OFFCURVE",
"987 592 CURVE SMOOTH",
"987 854 OFFCURVE",
"845 1000 OFFCURVE",
"573 1000 CURVE SMOOTH",
"471 1000 OFFCURVE",
"313 970 OFFCURVE",
"232 916 CURVE",
"163 838 OFFCURVE",
"70 661 OFFCURVE",
"70 455 CURVE SMOOTH",
"70 107 OFFCURVE",
"234 -15 OFFCURVE",
"536 -15 CURVE SMOOTH",
"659 -15 OFFCURVE",
"806 6 OFFCURVE",
"974 39 CURVE",
"942 261 LINE",
"832 246 OFFCURVE",
"737 235 OFFCURVE",
"660 235 CURVE SMOOTH",
"508 235 OFFCURVE",
"423 279 OFFCURVE",
"423 434 CURVE"
);
}
);
};
layerId = "DED2EC6C-D9B1-40A4-9636-25A92E36F4E2";
name = "Bold Nov 15 15, 13:21";
paths = (
{
closed = 1;
nodes = (
"421 570 LINE",
"421 690 OFFCURVE",
"449 837 OFFCURVE",
"497 900 CURVE",
"349 870 LINE",
"373 756 LINE",
"431 782 OFFCURVE",
"497 795 OFFCURVE",
"561 790 CURVE SMOOTH",
"662 782 OFFCURVE",
"674 679 OFFCURVE",
"669 556 CURVE",
"715 595 LINE",
"406 595 LINE",
"409 415 LINE",
"757 415 LINE SMOOTH",
"797 415 OFFCURVE",
"909 425 OFFCURVE",
"975 452 CURVE",
"983 503 OFFCURVE",
"987 549 OFFCURVE",
"987 592 CURVE SMOOTH",
"987 854 OFFCURVE",
"845 1000 OFFCURVE",
"573 1000 CURVE SMOOTH",
"471 1000 OFFCURVE",
"313 970 OFFCURVE",
"232 916 CURVE",
"163 838 OFFCURVE",
"70 661 OFFCURVE",
"70 455 CURVE SMOOTH",
"70 107 OFFCURVE",
"234 -15 OFFCURVE",
"536 -15 CURVE SMOOTH",
"659 -15 OFFCURVE",
"806 6 OFFCURVE",
"974 39 CURVE",
"942 261 LINE",
"832 246 OFFCURVE",
"737 235 OFFCURVE",
"660 235 CURVE SMOOTH",
"508 235 OFFCURVE",
"423 279 OFFCURVE",
"423 434 CURVE"
);
}
);
width = 1051;
}
);
unicode = 0065;
},
{
color = 7;
glyphname = f;
lastChange = "2015-12-07 16:26:02 +0000";
layers = (
{
layerId = "5483B82D-F897-45AA-9987-2D1C58E320E8";
name = Bold;
paths = (
{
closed = 1;
nodes = (
"124 577 LINE",
"114 413 LINE",
"114 -10 LINE",
"349 0 LINE",
"348 418 LINE",
"344 577 LINE"
);
},
{
closed = 1;
nodes = (
"12 502 LINE",
"482 502 LINE",
"482 673 LINE",
"112 673 LINE",
"12 661 LINE"
);
},
{
closed = 1;
nodes = (
"345 577 LINE",
"345 703 OFFCURVE",
"346 757 OFFCURVE",
"364 796 CURVE",
"405 796 OFFCURVE",
"434 796 OFFCURVE",
"482 796 CURVE",
"517 970 LINE",
"398 997 OFFCURVE",
"292 998 OFFCURVE",
"189 951 CURVE",
"143 890 OFFCURVE",
"115 801 OFFCURVE",
"115 682 CURVE SMOOTH",
"115 650 OFFCURVE",
"118 614 OFFCURVE",
"124 577 CURVE"
);
}
);
width = 482;
}
);
unicode = 0066;
},
{
color = 7;
glyphname = g;
lastChange = "2015-12-07 16:26:16 +0000";
layers = (
{
layerId = "5483B82D-F897-45AA-9987-2D1C58E320E8";
name = Bold;
paths = (
{
closed = 1;
nodes = (
"119 -154 OFFCURVE",
"113 -212 OFFCURVE",
"115 -270 CURVE",
"258 -332 OFFCURVE",
"438 -321 OFFCURVE",
"580 -261 CURVE",
"646 -201 OFFCURVE",
"709 -102 OFFCURVE",
"709 24 CURVE SMOOTH",
"711 650 LINE",
"553 673 OFFCURVE",
"472 617 OFFCURVE",
"472 483 CURVE SMOOTH",
"470 72 LINE",
"480 72 LINE",
"478 -17 OFFCURVE",
"467 -62 OFFCURVE",
"438 -99 CURVE",
"372 -126 OFFCURVE",
"266 -118 OFFCURVE",
"132 -95 CURVE"
);
},
{
closed = 1;
nodes = (
"711 650 LINE",
"648 669 OFFCURVE",
"554 680 OFFCURVE",
"457 680 CURVE SMOOTH",
"338 680 OFFCURVE",
"235 662 OFFCURVE",
"156 621 CURVE",
"94 566 OFFCURVE",
"31 434 OFFCURVE",
"31 296 CURVE SMOOTH",
"31 65 OFFCURVE",
"143 -10 OFFCURVE",
"289 -10 CURVE SMOOTH",
"405 -10 OFFCURVE",
"470 38 OFFCURVE",
"503 86 CURVE",
"528 191 LINE",
"500 167 OFFCURVE",
"441 154 OFFCURVE",
"395 154 CURVE SMOOTH",
"297 154 OFFCURVE",
"274 210 OFFCURVE",
"274 340 CURVE SMOOTH",
"274 446 OFFCURVE",
"296 525 OFFCURVE",
"338 609 CURVE",
"253 597 LINE",
"149 494 LINE",
"349 528 OFFCURVE",
"523 493 OFFCURVE",
"638 446 CURVE"
);
}
);
width = 766;
},
{
associatedMasterId = "5483B82D-F897-45AA-9987-2D1C58E320E8";
layerId = "816DA494-0346-4CF8-8950-910622D47693";
name = "Bold Nov 7 15, 14:30";
paths = (
{
closed = 1;
nodes = (
"751 457 OFFCURVE",
"962 536 OFFCURVE",
"962 729 CURVE SMOOTH",
"962 921 OFFCURVE",
"774 1000 OFFCURVE",
"544 1000 CURVE SMOOTH",
"346 1000 OFFCURVE",
"125 921 OFFCURVE",
"125 729 CURVE SMOOTH",
"125 536 OFFCURVE",
"312 457 OFFCURVE",
"544 457 CURVE SMOOTH"
);
},
{
closed = 1;
nodes = (
"522 602 OFFCURVE",
"486 625 OFFCURVE",
"474 720 CURVE SMOOTH",
"464 789 OFFCURVE",
"479 846 OFFCURVE",
"528 852 CURVE SMOOTH",
"565 856 OFFCURVE",
"601 832 OFFCURVE",
"613 737 CURVE SMOOTH",
"623 668 OFFCURVE",
"608 611 OFFCURVE",
"560 606 CURVE SMOOTH"
);
},
{
closed = 1;
nodes = (
"377 529 LINE",
"338 511 OFFCURVE",
"200 434 OFFCURVE",
"200 306 CURVE SMOOTH",
"200 -56 OFFCURVE",
"753 187 OFFCURVE",
"752 0 CURVE",
"399 -29 OFFCURVE",
"329 20 OFFCURVE",
"403 180 CURVE",
"310 192 LINE",
"-29 123 OFFCURVE",
"-9 -231 OFFCURVE",
"479 -231 CURVE SMOOTH",
"967 -231 OFFCURVE",
"1028 0 OFFCURVE",
"1028 96 CURVE SMOOTH",
"1028 573 OFFCURVE",
"428 266 OFFCURVE",
"428 488 CURVE"
);
},
{
closed = 1;
nodes = (
"722 886 LINE",
"785 958 OFFCURVE",
"915 930 OFFCURVE",
"1012 930 CURVE",
"1015 1208 LINE",
"829 1208 OFFCURVE",
"695 1050 OFFCURVE",
"665 966 CURVE"
);
}
);
width = 1108;
}
);
unicode = 0067;
},
{
color = 7;
glyphname = h;
lastChange = "2015-12-07 16:26:27 +0000";
layers = (
{
components = (
{
name = _part.shoulder;
transform = "{1, 0, 0, 1, -194, 0}";
}
);
layerId = "5483B82D-F897-45AA-9987-2D1C58E320E8";
name = Bold;
paths = (
{
closed = 1;
nodes = (
"59 -10 LINE",
"294 0 LINE",
"299 888 LINE",
"55 878 LINE"
);
}
);
width = 792;
}
);
unicode = 0068;
},
{
color = 7;
glyphname = i;
lastChange = "2015-12-07 16:27:12 +0000";
layers = (
{
layerId = "5483B82D-F897-45AA-9987-2D1C58E320E8";
name = Bold;
paths = (
{
closed = 1;
nodes = (
"54 673 LINE",
"56 -10 LINE",
"295 0 LINE",
"297 683 LINE"
);
},
{
closed = 1;
nodes = (
"232 780 OFFCURVE",
"293 829 OFFCURVE",
"313 891 CURVE",
"297 946 OFFCURVE",
"249 1006 OFFCURVE",
"181 1032 CURVE",
"111 1011 OFFCURVE",
"58 954 OFFCURVE",
"38 900 CURVE",
"54 839 OFFCURVE",
"109 784 OFFCURVE",
"171 758 CURVE"
);
}
);
width = 349;
}
);
unicode = 0069;
},
{
color = 7;
glyphname = j;
lastChange = "2015-12-07 16:34:50 +0000";
layers = (
{
layerId = "5483B82D-F897-45AA-9987-2D1C58E320E8";
name = Bold;
paths = (
{
closed = 1;
nodes = (
"-63 -102 LINE",
"-69 -262 LINE",
"79 -285 OFFCURVE",
"174 -264 OFFCURVE",
"232 -223 CURVE",
"292 -146 OFFCURVE",
"294 -12 OFFCURVE",
"295 64 CURVE SMOOTH",
"296 683 LINE",
"53 673 LINE",
"55 42 LINE SMOOTH",
"55 -11 OFFCURVE",
"53 -56 OFFCURVE",
"42 -86 CURVE",
"20 -91 OFFCURVE",
"-16 -95 OFFCURVE",
"-54 -93 CURVE"
);
},
{
closed = 1;
nodes = (
"231 780 OFFCURVE",
"292 829 OFFCURVE",
"311 890 CURVE",
"297 944 OFFCURVE",
"247 1004 OFFCURVE",
"180 1030 CURVE",
"110 1009 OFFCURVE",
"58 953 OFFCURVE",
"39 900 CURVE",
"53 838 OFFCURVE",
"109 785 OFFCURVE",
"171 758 CURVE"
);
}
);
width = 350;
}
);
unicode = 006A;
},
{
color = 7;
glyphname = k;
lastChange = "2015-12-07 16:27:46 +0000";
layers = (
{
layerId = "5483B82D-F897-45AA-9987-2D1C58E320E8";
name = Bold;
paths = (
{
closed = 1;
nodes = (
"59 -10 LINE",
"294 0 LINE",
"298 888 LINE",
"55 878 LINE"
);
},
{
closed = 1;
nodes = (
"788 11 LINE",
"705 133 OFFCURVE",
"617 255 OFFCURVE",
"520 377 CURVE",
"613 475 OFFCURVE",
"693 573 OFFCURVE",
"759 671 CURVE",
"755 682 LINE",
"509 673 LINE",
"451 582 OFFCURVE",
"380 490 OFFCURVE",
"295 400 CURVE",
"295 335 LINE",
"378 220 OFFCURVE",
"455 105 OFFCURVE",
"525 -10 CURVE",
"785 -1 LINE"
);
}
);
width = 789;
}
);
unicode = 006B;
},
{
color = 7;
glyphname = l;
lastChange = "2015-12-07 16:27:56 +0000";
layers = (
{
layerId = "5483B82D-F897-45AA-9987-2D1C58E320E8";
name = Bold;
paths = (
{
closed = 1;
nodes = (
"59 -10 LINE",
"294 0 LINE",
"298 888 LINE",
"55 878 LINE"
);
}
);
width = 353;
}
);
unicode = 006C;
},
{
color = 7;
glyphname = m;
lastChange = "2015-12-07 16:28:05 +0000";
layers = (
{
anchors = (
{
name = _connect;
position = "{160, 0}";
},
{
name = connect;
position = "{809, 0}";
}
);
layerId = "5483B82D-F897-45AA-9987-2D1C58E320E8";
name = Bold;
paths = (
{
closed = 1;
nodes = (
"55 673 LINE",
"57 -10 LINE",
"296 0 LINE",
"298 532 LINE",
"278 683 LINE"
);
},
{
closed = 1;
nodes = (
"211 417 LINE",
"302 473 OFFCURVE",
"453 487 OFFCURVE",
"523 473 CURVE",
"446 546 LINE",
"469 483 OFFCURVE",
"471 428 OFFCURVE",
"472 293 CURVE SMOOTH",
"474 -10 LINE",
"713 0 LINE",
"714 360 LINE SMOOTH",
"714 505 OFFCURVE",
"699 580 OFFCURVE",
"677 635 CURVE",
"509 734 OFFCURVE",
"324 679 OFFCURVE",
"211 473 CURVE"
);
},
{
closed = 1;
nodes = (
"628 417 LINE",
"718 473 OFFCURVE",
"869 487 OFFCURVE",
"940 473 CURVE",
"863 546 LINE",
"886 483 OFFCURVE",
"888 428 OFFCURVE",
"888 293 CURVE SMOOTH",
"891 -10 LINE",
"1130 0 LINE",
"1130 360 LINE SMOOTH",
"1130 505 OFFCURVE",
"1116 580 OFFCURVE",
"1093 635 CURVE",
"926 734 OFFCURVE",
"740 679 OFFCURVE",
"628 473 CURVE"
);
}
);
width = 1182;
}
);
unicode = 006D;
},
{
color = 7;
glyphname = n;
lastChange = "2015-12-07 16:28:21 +0000";
layers = (
{
associatedMasterId = "5483B82D-F897-45AA-9987-2D1C58E320E8";
background = {
paths = (
{
closed = 1;
nodes = (
"130 1050 OFFCURVE",
"130 895 OFFCURVE",
"130 801 CURVE SMOOTH",
"130 0 LINE",
"530 0 LINE",
"530 931 LINE",
"470 1213 LINE",
"100 1173 LINE"
);
},
{
closed = 1;
nodes = (
"708 1171 OFFCURVE",
"487 973 OFFCURVE",
"307 826 CURVE",
"314 665 LINE",
"595 831 OFFCURVE",
"890 941 OFFCURVE",
"890 580 CURVE SMOOTH",
"890 0 LINE",
"1290 0 LINE",
"1290 690 LINE SMOOTH",
"1290 897 OFFCURVE",
"1287 1215 OFFCURVE",
"910 1215 CURVE"
);
},
{
closed = 1;
nodes = (
"515 961 LINE",
"595 1004 LINE",
"481 1028 LINE"
);
}
);
};
layerId = "033A8565-E341-412B-B317-C2DA30C95975";
name = "Regular Oct 19 15, 16:46";
paths = (
{
closed = 1;
nodes = (
"118 1018 OFFCURVE",
"130 895 OFFCURVE",
"130 801 CURVE SMOOTH",
"130 0 LINE",
"530 0 LINE",
"530 931 LINE",
"470 1213 LINE",
"100 1173 LINE"
);
},
{
closed = 1;
nodes = (
"629 1128 OFFCURVE",
"433 963 OFFCURVE",
"307 856 CURVE",
"314 725 LINE",
"498 818 OFFCURVE",
"620 871 OFFCURVE",
"698 871 CURVE SMOOTH",
"800 871 OFFCURVE",
"830 783 OFFCURVE",
"830 634 CURVE SMOOTH",
"830 0 LINE",
"1230 0 LINE",
"1230 690 LINE SMOOTH",
"1230 897 OFFCURVE",
"1227 1215 OFFCURVE",
"850 1215 CURVE"
);
},
{
closed = 1;
nodes = (
"515 971 LINE",
"595 1014 LINE",
"481 1038 LINE"
);
}
);
width = 1330;
},
{
anchors = (
{
name = _connect;
position = "{250, 0}";
},
{
name = connect;
position = "{899, 0}";
}
);
components = (
{
name = _part.shoulder;
transform = "{1, 0, 0, 1, -193, 0}";
}
);
layerId = "5483B82D-F897-45AA-9987-2D1C58E320E8";
name = Bold;
paths = (
{
closed = 1;
nodes = (
"55 673 LINE",
"57 -10 LINE",
"296 0 LINE",
"297 532 LINE",
"277 683 LINE"
);
}
);
width = 793;
},
{
associatedMasterId = "5483B82D-F897-45AA-9987-2D1C58E320E8";
background = {
paths = (
{
closed = 1;
nodes = (
"641 1060 OFFCURVE",
"517 979 OFFCURVE",
"454 926 CURVE",
"423 1005 OFFCURVE",
"368 1059 OFFCURVE",
"282 1059 CURVE SMOOTH",
"175 1059 OFFCURVE",
"100 975 OFFCURVE",
"100 975 CURVE SMOOTH",
"100 975 OFFCURVE",
"149 871 OFFCURVE",
"149 707 CURVE SMOOTH",
"149 22 LINE",
"149 22 OFFCURVE",
"188 -10 OFFCURVE",
"224 -10 CURVE SMOOTH",
"264 -10 OFFCURVE",
"385 0 OFFCURVE",
"484 0 CURVE",
"484 208 LINE",
"484 682 LINE",
"484 743 LINE",
"516 761 OFFCURVE",
"576 788 OFFCURVE",
"646 788 CURVE SMOOTH",
"752 788 OFFCURVE",
"795 731 OFFCURVE",
"795 640 CURVE SMOOTH",
"795 208 LINE",
"795 22 LINE",
"795 22 OFFCURVE",
"834 -10 OFFCURVE",
"871 -10 CURVE SMOOTH",
"910 -10 OFFCURVE",
"1031 0 OFFCURVE",
"1130 0 CURVE",
"1130 208 LINE",
"1130 675 LINE SMOOTH",
"1130 929 OFFCURVE",
"1011 1060 OFFCURVE",
"809 1060 CURVE SMOOTH"
);
}
);
};
layerId = "5059FB9A-E023-46F8-9F6A-2FBA6F7E3C51";
name = "Regular Nov 2 15, 14:53";
paths = (
{
closed = 1;
nodes = (
"113 911 OFFCURVE",
"116 790 OFFCURVE",
"116 709 CURVE SMOOTH",
"116 0 LINE",
"486 0 LINE",
"486 766 LINE",
"434 1065 LINE",
"90 1030 LINE"
);
},
{
closed = 1;
nodes = (
"376 658 LINE",
"515 731 OFFCURVE",
"632 742 OFFCURVE",
"684 742 CURVE SMOOTH",
"771 742 OFFCURVE",
"797 712 OFFCURVE",
"797 614 CURVE SMOOTH",
"797 0 LINE",
"1167 0 LINE",
"1167 708 LINE SMOOTH",
"1167 947 OFFCURVE",
"1042 1065 OFFCURVE",
"815 1065 CURVE",
"657 1024 OFFCURVE",
"444 914 OFFCURVE",
"308 803 CURVE"
);
}
);
width = 1257;
},
{
associatedMasterId = "5483B82D-F897-45AA-9987-2D1C58E320E8";
background = {
paths = (
{
closed = 1;
nodes = (
"1093 626 LINE SMOOTH",
"1093 816 OFFCURVE",
"1010 1043 OFFCURVE",
"667 993 CURVE",
"596 972 OFFCURVE",
"386 826 OFFCURVE",
"282 720 CURVE",
"327 580 LINE",
"447 663 OFFCURVE",
"528 696 OFFCURVE",
"602 696 CURVE",
"717 696 OFFCURVE",
"739 616 OFFCURVE",
"739 536 CURVE SMOOTH",
"742 -15 LINE",
"1092 0 LINE"
);
},
{
closed = 1;
nodes = (
"90 985 LINE",
"93 -15 LINE",
"443 0 LINE",
"445 761 LINE",
"386 1000 LINE"
);
}
);
};
layerId = "77EB365A-A204-4598-856E-CC79CA5B27DC";
name = "Bold Nov 5 15, 14:57";
paths = (
{
closed = 1;
nodes = (
"1093 626 LINE SMOOTH",
"1093 820 OFFCURVE",
"1000 973 OFFCURVE",
"828 1000 CURVE",
"599 1000 OFFCURVE",
"407 847 OFFCURVE",
"282 720 CURVE",
"282 505 LINE",
"411 627 OFFCURVE",
"663 740 OFFCURVE",
"849 655 CURVE",
"716 809 LINE",
"728 728 OFFCURVE",
"738 599 OFFCURVE",
"739 476 CURVE SMOOTH",
"742 -15 LINE",
"1092 0 LINE"
);
},
{
closed = 1;
nodes = (
"90 985 LINE",
"93 -15 LINE",
"443 0 LINE",
"445 761 LINE",
"386 1000 LINE"
);
}
);
width = 1183;
}
);
unicode = 006E;
},
{
color = 7;
glyphname = o;
lastChange = "2015-12-07 16:58:10 +0000";
layers = (
{
background = {
paths = (
{
closed = 1;
nodes = (
"269 683 OFFCURVE",
"189 653 OFFCURVE",
"110 601 CURVE",
"59 525 OFFCURVE",
"31 448 OFFCURVE",
"31 333 CURVE SMOOTH",
"31 94 OFFCURVE",
"153 -3 OFFCURVE",
"355 -10 CURVE SMOOTH",
"472 -14 OFFCURVE",
"550 13 OFFCURVE",
"628 66 CURVE",
"676 126 OFFCURVE",
"711 227 OFFCURVE",
"711 356 CURVE SMOOTH",
"711 612 OFFCURVE",
"571 683 OFFCURVE",
"388 683 CURVE SMOOTH"
);
},
{
closed = 1;
nodes = (
"445 520 OFFCURVE",
"472 482 OFFCURVE",
"472 322 CURVE SMOOTH",
"472 260 OFFCURVE",
"468 221 OFFCURVE",
"458 174 CURVE",
"433 161 OFFCURVE",
"407 154 OFFCURVE",
"378 154 CURVE SMOOTH",
"294 154 OFFCURVE",
"270 212 OFFCURVE",
"270 332 CURVE SMOOTH",
"270 413 OFFCURVE",
"281 472 OFFCURVE",
"293 502 CURVE",
"314 514 OFFCURVE",
"338 520 OFFCURVE",
"368 520 CURVE SMOOTH"
);
}
);
};
layerId = "5483B82D-F897-45AA-9987-2D1C58E320E8";
name = Bold;
paths = (
{
closed = 1;
nodes = (
"269 683 OFFCURVE",
"189 653 OFFCURVE",
"110 601 CURVE",
"59 525 OFFCURVE",
"31 448 OFFCURVE",
"31 333 CURVE SMOOTH",
"31 94 OFFCURVE",
"153 -3 OFFCURVE",
"355 -10 CURVE SMOOTH",
"472 -14 OFFCURVE",
"550 13 OFFCURVE",
"628 66 CURVE",
"676 126 OFFCURVE",
"711 227 OFFCURVE",
"711 356 CURVE SMOOTH",
"711 612 OFFCURVE",
"571 683 OFFCURVE",
"388 683 CURVE SMOOTH"
);
},
{
closed = 1;
nodes = (
"445 520 OFFCURVE",
"472 482 OFFCURVE",
"472 322 CURVE SMOOTH",
"472 260 OFFCURVE",
"468 221 OFFCURVE",
"458 174 CURVE",
"433 161 OFFCURVE",
"407 154 OFFCURVE",
"378 154 CURVE SMOOTH",
"294 154 OFFCURVE",
"270 212 OFFCURVE",
"270 332 CURVE SMOOTH",
"270 413 OFFCURVE",
"281 472 OFFCURVE",
"293 502 CURVE",
"314 514 OFFCURVE",
"338 520 OFFCURVE",
"368 520 CURVE SMOOTH"
);
}
);
width = 742;
}
);
unicode = 006F;
},
{
color = 7;
glyphname = p;
lastChange = "2015-12-07 16:28:41 +0000";
layers = (
{
layerId = "5483B82D-F897-45AA-9987-2D1C58E320E8";
name = Bold;
paths = (
{
closed = 1;
nodes = (
"297 -45 LINE",
"290 39 LINE",
"292 74 LINE",
"292 507 LINE",
"297 545 LINE",
"253 683 LINE",
"59 673 LINE",
"55 -215 LINE",
"298 -205 LINE"
);
},
{
closed = 1;
nodes = (
"221 34 LINE",
"308 -34 OFFCURVE",
"521 -7 OFFCURVE",
"613 52 CURVE",
"680 113 OFFCURVE",
"738 240 OFFCURVE",
"738 374 CURVE SMOOTH",
"738 608 OFFCURVE",
"628 683 OFFCURVE",
"482 683 CURVE SMOOTH",
"365 683 OFFCURVE",
"299 635 OFFCURVE",
"267 587 CURVE",
"242 482 LINE",
"269 506 OFFCURVE",
"329 519 OFFCURVE",
"375 519 CURVE SMOOTH",
"473 519 OFFCURVE",
"496 462 OFFCURVE",
"496 333 CURVE SMOOTH",
"496 278 OFFCURVE",
"486 143 OFFCURVE",
"428 87 CURVE",
"528 119 LINE",
"575 172 LINE",
"448 155 OFFCURVE",
"296 174 OFFCURVE",
"226 195 CURVE"
);
}
);
width = 769;
}
);
unicode = 0070;
},
{
color = 7;
glyphname = q;
lastChange = "2015-12-07 16:28:55 +0000";
layers = (
{
layerId = "5483B82D-F897-45AA-9987-2D1C58E320E8";
name = Bold;
paths = (
{
closed = 1;
nodes = (
"710 650 LINE",
"553 673 OFFCURVE",
"472 617 OFFCURVE",
"472 483 CURVE SMOOTH",
"470 72 LINE",
"480 72 LINE",
"472 -41 LINE",
"471 -215 LINE",
"708 -205 LINE"
);
},
{
closed = 1;
nodes = (
"710 650 LINE",
"648 669 OFFCURVE",
"554 680 OFFCURVE",
"458 680 CURVE SMOOTH",
"338 680 OFFCURVE",
"236 662 OFFCURVE",
"156 621 CURVE",
"94 566 OFFCURVE",
"31 434 OFFCURVE",
"31 296 CURVE SMOOTH",
"31 65 OFFCURVE",
"143 -10 OFFCURVE",
"289 -10 CURVE SMOOTH",
"405 -10 OFFCURVE",
"471 38 OFFCURVE",
"503 86 CURVE",
"528 191 LINE",
"501 167 OFFCURVE",
"441 154 OFFCURVE",
"395 154 CURVE SMOOTH",
"297 154 OFFCURVE",
"274 210 OFFCURVE",
"274 340 CURVE SMOOTH",
"274 446 OFFCURVE",
"296 525 OFFCURVE",
"344 590 CURVE",
"253 597 LINE",
"194 475 LINE",
"316 539 OFFCURVE",
"488 516 OFFCURVE",
"569 508 CURVE"
);
}
);
width = 765;
}
);
unicode = 0071;
},
{
color = 7;
glyphname = r;
lastChange = "2015-12-07 16:29:13 +0000";
layers = (
{
layerId = "5483B82D-F897-45AA-9987-2D1C58E320E8";
name = Bold;
paths = (
{
closed = 1;
nodes = (
"55 673 LINE",
"57 -10 LINE",
"296 0 LINE",
"297 173 OFFCURVE",
"297 346 OFFCURVE",
"298 520 CURVE",
"257 683 LINE"
);
},
{
closed = 1;
nodes = (
"242 412 LINE",
"335 450 OFFCURVE",
"454 456 OFFCURVE",
"518 445 CURVE",
"533 478 OFFCURVE",
"558 572 OFFCURVE",
"559 630 CURVE",
"538 655 OFFCURVE",
"494 680 OFFCURVE",
"460 682 CURVE",
"383 678 OFFCURVE",
"305 598 OFFCURVE",
"251 451 CURVE"
);
}
);
width = 571;
}
);
unicode = 0072;
},
{
color = 7;
glyphname = s;
lastChange = "2015-12-07 16:29:29 +0000";
layers = (
{
layerId = "5483B82D-F897-45AA-9987-2D1C58E320E8";
name = Bold;
paths = (
{
closed = 1;
nodes = (
"595 385 OFFCURVE",
"433 407 OFFCURVE",
"339 441 CURVE SMOOTH",
"279 459 OFFCURVE",
"242 476 OFFCURVE",
"278 558 CURVE",
"239 539 LINE",
"233 505 LINE",
"283 527 OFFCURVE",
"424 507 OFFCURVE",
"500 483 CURVE",
"523 511 OFFCURVE",
"552 614 OFFCURVE",
"552 663 CURVE",
"491 676 OFFCURVE",
"426 682 OFFCURVE",
"363 682 CURVE SMOOTH",
"266 682 OFFCURVE",
"174 666 OFFCURVE",
"104 637 CURVE",
"58 590 OFFCURVE",
"24 539 OFFCURVE",
"24 466 CURVE SMOOTH",
"24 325 OFFCURVE",
"146 286 OFFCURVE",
"238 256 CURVE SMOOTH",
"319 232 OFFCURVE",
"380 218 OFFCURVE",
"332 137 CURVE",
"377 124 LINE",
"408 174 LINE",
"276 145 OFFCURVE",
"127 185 OFFCURVE",
"68 204 CURVE",
"47 157 OFFCURVE",
"26 67 OFFCURVE",
"24 14 CURVE",
"104 -2 OFFCURVE",
"188 -10 OFFCURVE",
"267 -10 CURVE SMOOTH",
"381 -10 OFFCURVE",
"478 22 OFFCURVE",
"524 49 CURVE",
"570 105 OFFCURVE",
"595 158 OFFCURVE",
"595 218 CURVE SMOOTH"
);
}
);
width = 620;
}
);
unicode = 0073;
},
{
color = 7;
glyphname = t;
lastChange = "2015-12-07 16:30:11 +0000";
layers = (
{
layerId = "5483B82D-F897-45AA-9987-2D1C58E320E8";
name = Bold;
paths = (
{
closed = 1;
nodes = (
"5 502 LINE",
"480 502 LINE",
"480 673 LINE",
"122 673 LINE",
"5 663 LINE"
);
},
{
closed = 1;
nodes = (
"463 52 OFFCURVE",
"460 105 OFFCURVE",
"450 166 CURVE",
"402 166 OFFCURVE",
"372 167 OFFCURVE",
"350 174 CURVE",
"343 201 OFFCURVE",
"341 228 OFFCURVE",
"341 269 CURVE SMOOTH",
"341 592 LINE",
"341 850 LINE",
"167 841 LINE",
"122 673 LINE",
"101 579 LINE",
"101 259 LINE SMOOTH",
"101 115 OFFCURVE",
"118 67 OFFCURVE",
"140 27 CURVE",
"215 -16 OFFCURVE",
"317 -12 OFFCURVE",
"458 5 CURVE"
);
}
);
width = 493;
}
);
unicode = 0074;
},
{
color = 7;
glyphname = u;
lastChange = "2015-12-07 16:30:32 +0000";
layers = (
{
components = (
{
name = _part.shoulder;
transform = "{-1, 0, 0, -1, 986, 673}";
}
);
layerId = "5483B82D-F897-45AA-9987-2D1C58E320E8";
name = Bold;
paths = (
{
closed = 1;
nodes = (
"738 0 LINE",
"736 683 LINE",
"497 673 LINE",
"497 370 LINE SMOOTH",
"496 98 OFFCURVE",
"516 36 OFFCURVE",
"536 -10 CURVE"
);
}
);
width = 793;
}
);
unicode = 0075;
},
{
color = 7;
glyphname = v;
lastChange = "2015-12-07 16:30:42 +0000";
layers = (
{
layerId = "5483B82D-F897-45AA-9987-2D1C58E320E8";
name = Bold;
paths = (
{
closed = 1;
nodes = (
"4 666 LINE",
"59 465 OFFCURVE",
"128 244 OFFCURVE",
"213 -10 CURVE",
"496 0 LINE",
"578 226 OFFCURVE",
"643 450 OFFCURVE",
"703 676 CURVE",
"697 683 LINE",
"477 673 LINE",
"447 529 OFFCURVE",
"408 365 OFFCURVE",
"369 221 CURVE",
"368 221 LINE",
"324 393 OFFCURVE",
"283 553 OFFCURVE",
"245 683 CURVE",
"9 673 LINE"
);
}
);
width = 707;
}
);
unicode = 0076;
},
{
color = 7;
glyphname = w;
lastChange = "2015-12-07 16:30:51 +0000";
layers = (
{
layerId = "5483B82D-F897-45AA-9987-2D1C58E320E8";
name = Bold;
paths = (
{
closed = 1;
nodes = (
"13 667 LINE",
"63 445 OFFCURVE",
"131 206 OFFCURVE",
"197 -10 CURVE",
"476 0 LINE",
"570 400 LINE",
"571 400 LINE",
"674 -10 LINE",
"952 0 LINE",
"1024 227 OFFCURVE",
"1088 449 OFFCURVE",
"1139 676 CURVE",
"1133 683 LINE",
"912 673 LINE",
"882 523 OFFCURVE",
"853 377 OFFCURVE",
"821 224 CURVE",
"819 224 LINE",
"706 683 LINE",
"455 673 LINE",
"350 224 LINE",
"349 224 LINE",
"317 371 OFFCURVE",
"285 521 OFFCURVE",
"251 683 CURVE",
"18 673 LINE"
);
}
);
width = 1152;
}
);
unicode = 0077;
},
{
color = 7;
glyphname = x;
lastChange = "2015-12-07 16:30:58 +0000";
layers = (
{
layerId = "5483B82D-F897-45AA-9987-2D1C58E320E8";
name = Bold;
paths = (
{
closed = 1;
nodes = (
"34 667 LINE",
"204 352 LINE",
"12 1 LINE",
"16 -10 LINE",
"270 0 LINE",
"355 191 LINE",
"372 240 LINE",
"386 194 LINE",
"473 -10 LINE",
"727 0 LINE",
"729 4 LINE",
"544 361 LINE",
"704 671 LINE",
"698 682 LINE",
"464 673 LINE",
"403 534 LINE",
"376 453 LINE",
"348 536 LINE",
"285 683 LINE",
"38 673 LINE"
);
}
);
width = 741;
}
);
unicode = 0078;
},
{
color = 7;
glyphname = y;
lastChange = "2015-12-07 16:31:20 +0000";
layers = (
{
associatedMasterId = "5483B82D-F897-45AA-9987-2D1C58E320E8";
background = {
paths = (
{
closed = 1;
nodes = (
"100 870 OFFCURVE",
"85 669 OFFCURVE",
"80 325 CURVE SMOOTH",
"79 238 OFFCURVE",
"184 39 OFFCURVE",
"454 -15 CURVE",
"597 20 OFFCURVE",
"839 250 OFFCURVE",
"994 403 CURVE",
"904 512 LINE",
"743 387 OFFCURVE",
"543 292 OFFCURVE",
"511 330 CURVE SMOOTH",
"504 338 OFFCURVE",
"464 401 OFFCURVE",
"488 729 CURVE SMOOTH",
"494 813 OFFCURVE",
"514 1029 OFFCURVE",
"516 1050 CURVE",
"117 1050 LINE"
);
},
{
closed = 1;
nodes = (
"714 189 LINE",
"825 136 LINE",
"786 238 LINE"
);
},
{
closed = 1;
nodes = (
"803 1050 LINE",
"778 779 OFFCURVE",
"759 517 OFFCURVE",
"752 271 CURVE",
"753 181 OFFCURVE",
"760 96 OFFCURVE",
"773 0 CURVE SMOOTH",
"803 -204 OFFCURVE",
"711 -360 OFFCURVE",
"167 -102 CURVE",
"121 -387 LINE",
"401 -714 OFFCURVE",
"1173 -521 OFFCURVE",
"1149 0 CURVE SMOOTH",
"1147 300 OFFCURVE",
"1173 660 OFFCURVE",
"1192 1050 CURVE"
);
}
);
};
layerId = "349FF4CA-3C0D-43D2-9F53-4A0D833B4B19";
name = "Regular Nov 4 15, 15:34";
paths = (
{
closed = 1;
nodes = (
"318 282 OFFCURVE",
"475 55 OFFCURVE",
"613 0 CURVE",
"825 263 LINE",
"668 355 OFFCURVE",
"599 873 OFFCURVE",
"569 1032 CURVE",
"188 915 LINE"
);
},
{
closed = 1;
nodes = (
"803 1050 LINE",
"778 779 OFFCURVE",
"759 517 OFFCURVE",
"752 271 CURVE",
"753 181 OFFCURVE",
"760 96 OFFCURVE",
"773 0 CURVE SMOOTH",
"803 -204 OFFCURVE",
"711 -360 OFFCURVE",
"167 -102 CURVE",
"121 -387 LINE",
"401 -714 OFFCURVE",
"1166 -570 OFFCURVE",
"1151 171 CURVE SMOOTH",
"1148 300 OFFCURVE",
"1173 660 OFFCURVE",
"1192 1050 CURVE"
);
}
);
width = 1272;
},
{
layerId = "5483B82D-F897-45AA-9987-2D1C58E320E8";
name = Bold;
paths = (
{
closed = 1;
nodes = (
"36 -138 OFFCURVE",
"42 -208 OFFCURVE",
"62 -277 CURVE",
"183 -290 OFFCURVE",
"291 -277 OFFCURVE",
"367 -216 CURVE",
"397 -182 OFFCURVE",
"439 -107 OFFCURVE",
"487 1 CURVE SMOOTH",
"554 152 OFFCURVE",
"620 372 OFFCURVE",
"692 670 CURVE",
"685 683 LINE",
"466 673 LINE",
"439 535 OFFCURVE",
"400 359 OFFCURVE",
"354 173 CURVE",
"353 173 LINE",
"337 303 LINE",
"307 405 OFFCURVE",
"270 544 OFFCURVE",
"238 683 CURVE",
"10 673 LINE",
"4 657 LINE",
"51 493 OFFCURVE",
"105 318 OFFCURVE",
"168 144 CURVE SMOOTH",
"186 94 OFFCURVE",
"201 58 OFFCURVE",
"215 34 CURVE",
"248 12 OFFCURVE",
"272 4 OFFCURVE",
"289 0 CURVE",
"268 -41 OFFCURVE",
"238 -84 OFFCURVE",
"202 -120 CURVE",
"348 -62 LINE",
"258 -81 OFFCURVE",
"129 -81 OFFCURVE",
"44 -76 CURVE"
);
}
);
width = 701;
}
);
unicode = 0079;
},
{
color = 7;
glyphname = z;
lastChange = "2015-12-07 16:33:00 +0000";
layers = (
{
layerId = "5483B82D-F897-45AA-9987-2D1C58E320E8";
name = Bold;
paths = (
{
closed = 1;
nodes = (
"561 0 LINE",
"575 51 OFFCURVE",
"582 110 OFFCURVE",
"582 175 CURVE",
"271 175 LINE",
"356 289 OFFCURVE",
"456 403 OFFCURVE",
"569 517 CURVE",
"569 683 LINE",
"62 683 LINE",
"49 625 OFFCURVE",
"42 566 OFFCURVE",
"42 508 CURVE",
"316 508 LINE",
"202 393 OFFCURVE",
"101 278 OFFCURVE",
"15 163 CURVE",
"15 0 LINE"
);
}
);
width = 604;
}
);
unicode = 007A;
},
{
color = 6;
glyphname = "hamza-ar";
lastChange = "2015-12-12 16:56:14 +0000";
layers = (
{
layerId = "5483B82D-F897-45AA-9987-2D1C58E320E8";
name = Bold;
paths = (
{
closed = 1;
nodes = (
"190 89 LINE",
"155 113 OFFCURVE",
"144 141 OFFCURVE",
"145 156 CURVE SMOOTH",
"148 179 OFFCURVE",
"187 189 OFFCURVE",
"233 171 CURVE",
"255 203 OFFCURVE",
"252 254 OFFCURVE",
"215 273 CURVE SMOOTH",
"162 302 OFFCURVE",
"76 246 OFFCURVE",
"67 179 CURVE SMOOTH",
"62 140 OFFCURVE",
"82 96 OFFCURVE",
"146 59 CURVE"
);
},
{
closed = 1;
nodes = (
"287 130 LINE",
"202 131 OFFCURVE",
"94 100 OFFCURVE",
"42 73 CURVE",
"36 55 OFFCURVE",
"44 1 OFFCURVE",
"54 -14 CURVE",
"112 2 OFFCURVE",
"202 20 OFFCURVE",
"260 23 CURVE",
"270 38 OFFCURVE",
"290 98 OFFCURVE",
"292 124 CURVE"
);
}
);
width = 332;
}
);
unicode = 0621;
},
{
color = 6;
glyphname = "alef-ar";
lastChange = "2015-12-12 16:56:19 +0000";
layers = (
{
layerId = "5483B82D-F897-45AA-9987-2D1C58E320E8";
name = Bold;
paths = (
{
closed = 1;
nodes = (
"40 557 LINE",
"50 354 OFFCURVE",
"57 143 OFFCURVE",
"47 2 CURVE",
"53 -3 LINE",
"108 -2 OFFCURVE",
"181 8 OFFCURVE",
"211 25 CURVE",
"218 159 OFFCURVE",
"217 350 OFFCURVE",
"202 566 CURVE"
);
}
);
width = 255;
}
);
unicode = 0627;
},
{
color = 6;
glyphname = "alef-ar.fina";
lastChange = "2015-12-12 16:56:36 +0000";
layers = (
{
layerId = "5483B82D-F897-45AA-9987-2D1C58E320E8";
name = Bold;
paths = (
{
closed = 1;
nodes = (
"40 557 LINE",
"47 374 OFFCURVE",
"49 77 OFFCURVE",
"61 34 CURVE",
"111 7 OFFCURVE",
"189 0 OFFCURVE",
"254 0 CURVE",
"272 62 OFFCURVE",
"272 125 OFFCURVE",
"254 186 CURVE",
"230 186 OFFCURVE",
"164 195 OFFCURVE",
"118 213 CURVE",
"200 91 LINE",
"215 197 OFFCURVE",
"211 412 OFFCURVE",
"201 566 CURVE"
);
}
);
width = 254;
}
);
unicode = FE8E;
},
{
color = 1;
glyphname = "dotlessbeh-ar";
lastChange = "2015-12-12 17:12:06 +0000";
layers = (
{
layerId = "5483B82D-F897-45AA-9987-2D1C58E320E8";
name = Bold;
paths = (
{
closed = 1;
nodes = (
"472 300 LINE",
"484 262 OFFCURVE",
"523 157 OFFCURVE",
"518 89 CURVE",
"584 201 LINE",
"544 188 OFFCURVE",
"476 182 OFFCURVE",
"395 182 CURVE SMOOTH",
"297 182 OFFCURVE",
"182 191 OFFCURVE",
"81 207 CURVE",
"60 148 OFFCURVE",
"47 88 OFFCURVE",
"40 25 CURVE",
"146 2 OFFCURVE",
"250 -6 OFFCURVE",
"341 -6 CURVE SMOOTH",
"460 -6 OFFCURVE",
"557 8 OFFCURVE",
"610 25 CURVE",
"664 121 OFFCURVE",
"658 249 OFFCURVE",
"633 337 CURVE"
);
}
);
width = 691;
}
);
unicode = 066E;
},
{
color = 1;
glyphname = "dotlessbeh-ar.fina";
lastChange = "2015-12-12 17:03:05 +0000";
layers = (
{
layerId = "5483B82D-F897-45AA-9987-2D1C58E320E8";
name = Bold;
paths = (
{
closed = 1;
nodes = (
"623 70 LINE",
"661 5 OFFCURVE",
"722 0 OFFCURVE",
"766 0 CURVE",
"789 62 OFFCURVE",
"789 124 OFFCURVE",
"766 186 CURVE",
"717 186 OFFCURVE",
"698 221 OFFCURVE",
"693 294 CURVE",
"611 294 LINE",
"600 207 OFFCURVE",
"523 177 OFFCURVE",
"344 177 CURVE SMOOTH",
"261 177 OFFCURVE",
"161 184 OFFCURVE",
"74 199 CURVE",
"58 138 OFFCURVE",
"46 76 OFFCURVE",
"40 16 CURVE",
"133 0 OFFCURVE",
"244 -6 OFFCURVE",
"318 -6 CURVE SMOOTH",
"452 -6 OFFCURVE",
"570 12 OFFCURVE",
"613 70 CURVE"
);
}
);
width = 766;
}
);
},
{
color = 1;
glyphname = "dotlessbeh-ar.medi";
lastChange = "2015-12-12 17:02:26 +0000";
layers = (
{
layerId = "5483B82D-F897-45AA-9987-2D1C58E320E8";
name = Bold;
paths = (
{
closed = 1;
nodes = (
"175 70 LINE",
"213 6 OFFCURVE",
"271 0 OFFCURVE",
"316 0 CURVE",
"339 62 OFFCURVE",
"339 124 OFFCURVE",
"316 186 CURVE",
"247 186 OFFCURVE",
"225 202 OFFCURVE",
"232 279 CURVE",
"147 292 LINE",
"127 191 OFFCURVE",
"63 186 OFFCURVE",
"0 186 CURVE",
"-24 124 OFFCURVE",
"-24 62 OFFCURVE",
"0 0 CURVE",
"63 0 OFFCURVE",
"137 14 OFFCURVE",
"167 70 CURVE"
);
}
);
width = 316;
}
);
rightMetricsKey = "-17";
},
{
color = 2;
glyphname = "dotlessbeh-ar.medi.wide";
lastChange = "2015-12-12 17:05:17 +0000";
layers = (
{
layerId = "5483B82D-F897-45AA-9987-2D1C58E320E8";
name = Bold;
paths = (
{
closed = 1;
nodes = (
"246 70 LINE",
"285 6 OFFCURVE",
"345 0 OFFCURVE",
"391 0 CURVE",
"415 62 OFFCURVE",
"415 124 OFFCURVE",
"391 186 CURVE",
"319 186 OFFCURVE",
"295 202 OFFCURVE",
"302 279 CURVE",
"218 292 LINE",
"185 198 OFFCURVE",
"85 186 OFFCURVE",
"19 186 CURVE SMOOTH",
"0 186 LINE",
"-24 124 OFFCURVE",
"-24 62 OFFCURVE",
"0 0 CURVE",
"35 0 LINE SMOOTH",
"73 0 OFFCURVE",
"183 10 OFFCURVE",
"237 70 CURVE"
);
}
);
width = 391;
}
);
},
{
color = 1;
glyphname = "dotlessbeh-ar.init";
lastChange = "2015-12-12 17:11:44 +0000";
layers = (
{
layerId = "5483B82D-F897-45AA-9987-2D1C58E320E8";
name = Bold;
paths = (
{
closed = 1;
nodes = (
"63 305 LINE",
"76 268 OFFCURVE",
"97 210 OFFCURVE",
"105 153 CURVE",
"124 207 LINE",
"105 193 OFFCURVE",
"60 187 OFFCURVE",
"0 186 CURVE",
"-24 124 OFFCURVE",
"-24 62 OFFCURVE",
"0 0 CURVE",
"85 1 OFFCURVE",
"154 14 OFFCURVE",
"201 29 CURVE",
"247 102 OFFCURVE",
"254 247 OFFCURVE",
"224 342 CURVE"
);
}
);
width = 282;
}
);
},
{
color = 2;
glyphname = "dotlessbeh-ar.init.wide";
lastChange = "2015-12-12 17:14:14 +0000";
layers = (
{
layerId = "5483B82D-F897-45AA-9987-2D1C58E320E8";
name = Bold;
paths = (
{
closed = 1;
nodes = (
"-23 62 OFFCURVE",
"-23 124 OFFCURVE",
"0 186 CURVE",
"109 187 OFFCURVE",
"164 193 OFFCURVE",
"185 207 CURVE",
"171 109 LINE",
"171 178 OFFCURVE",
"140 258 OFFCURVE",
"125 305 CURVE",
"285 342 LINE",
"316 247 OFFCURVE",
"308 102 OFFCURVE",
"262 29 CURVE",
"210 14 OFFCURVE",
"133 1 OFFCURVE",
"0 0 CURVE"
);
}
);
width = 343;
}
);
},
{
color = 6;
glyphname = "beh-ar.medi";
lastChange = "2015-12-12 17:09:40 +0000";
layers = (
{
associatedMasterId = "5483B82D-F897-45AA-9987-2D1C58E320E8";
layerId = "F1F00D0F-487E-4974-A2F5-D7C18ABB8A12";
name = "Regular Oct 4 15, 23:39";
paths = (
{
closed = 1;
nodes = (
"405 581 LINE",
"327 507 OFFCURVE",
"233 456 OFFCURVE",
"187 438 CURVE SMOOTH",
"145 421 OFFCURVE",
"89 400 OFFCURVE",
"0 400 CURVE",
"-50 267 OFFCURVE",
"-50 133 OFFCURVE",
"0 0 CURVE",
"82 0 OFFCURVE",
"271 14 OFFCURVE",
"537 303 CURVE",
"84 326 LINE",
"325 64 OFFCURVE",
"520 0 OFFCURVE",
"680 0 CURVE",
"730 133 OFFCURVE",
"730 267 OFFCURVE",
"680 400 CURVE",
"614 400 OFFCURVE",
"556 421 OFFCURVE",
"523 443 CURVE SMOOTH",
"492 463 OFFCURVE",
"458 526 OFFCURVE",
"423 579 CURVE"
);
}
);
width = 680;
},
{
components = (
{
name = "dotlessbeh-ar.medi";
},
{
name = "dot-one";
transform = "{1, 0, 0, 1, -45, -181}";
}
);
layerId = "5483B82D-F897-45AA-9987-2D1C58E320E8";
name = Bold;
width = 316;
}
);
unicode = FE92;
},
{
color = 6;
glyphname = "hah-ar";
lastChange = "2015-12-12 16:58:56 +0000";
layers = (
{
layerId = "5483B82D-F897-45AA-9987-2D1C58E320E8";
name = Bold;
paths = (
{
closed = 1;
nodes = (
"308 348 OFFCURVE",
"426 163 OFFCURVE",
"516 163 CURVE",
"548 316 LINE",
"487 331 OFFCURVE",
"459 350 OFFCURVE",
"409 397 CURVE SMOOTH",
"342 460 OFFCURVE",
"286 524 OFFCURVE",
"174 533 CURVE",
"148 476 OFFCURVE",
"131 415 OFFCURVE",
"125 348 CURVE"
);
},
{
closed = 1;
nodes = (
"187 31 OFFCURVE",
"368 111 OFFCURVE",
"516 141 CURVE",
"536 210 OFFCURVE",
"547 260 OFFCURVE",
"548 316 CURVE",
"251 284 OFFCURVE",
"40 96 OFFCURVE",
"40 -95 CURVE SMOOTH",
"40 -313 OFFCURVE",
"308 -378 OFFCURVE",
"522 -316 CURVE",
"521 -267 OFFCURVE",
"501 -173 OFFCURVE",
"487 -138 CURVE",
"315 -173 OFFCURVE",
"187 -126 OFFCURVE",
"187 -50 CURVE SMOOTH"
);
}
);
width = 588;
},
{
associatedMasterId = "5483B82D-F897-45AA-9987-2D1C58E320E8";
layerId = "4A28E058-EDBC-4CE4-A8AC-988A43A69211";
name = "Regular Oct 6 15, 22:41";
paths = (
{
closed = 1;
nodes = (
"544 343 OFFCURVE",
"738 24 OFFCURVE",
"1112 24 CURVE",
"1112 394 LINE",
"781 394 OFFCURVE",
"567 757 OFFCURVE",
"77 757 CURVE",
"77 343 LINE"
);
},
{
closed = 1;
nodes = (
"230 100 OFFCURVE",
"1112 0 CURVE",
"1112 494 LINE",
"-248 494 OFFCURVE",
"-521 -1418 OFFCURVE",
"1332 -915 CURVE",
"1236 -412 LINE",
"-87 -858 OFFCURVE"
);
}
);
width = 1316;
},
{
associatedMasterId = "5483B82D-F897-45AA-9987-2D1C58E320E8";
background = {
paths = (
{
closed = 1;
nodes = (
"402 435 OFFCURVE",
"592 285 OFFCURVE",
"759 285 CURVE",
"806 402 LINE",
"716 425 OFFCURVE",
"675 452 OFFCURVE",
"602 521 CURVE SMOOTH",
"504 614 OFFCURVE",
"423 707 OFFCURVE",
"259 721 CURVE",
"221 637 OFFCURVE",
"196 547 OFFCURVE",
"186 449 CURVE"
);
},
{
closed = 1;
nodes = (
"518 -279 OFFCURVE",
"251 -273 OFFCURVE",
"251 -83 CURVE SMOOTH",
"251 133 OFFCURVE",
"548 167 OFFCURVE",
"759 147 CURVE",
"789 247 OFFCURVE",
"804 321 OFFCURVE",
"806 402 CURVE",
"484 444 OFFCURVE",
"50 278 OFFCURVE",
"50 -120 CURVE SMOOTH",
"50 -385 OFFCURVE",
"242 -519 OFFCURVE",
"484 -519 CURVE SMOOTH",
"573 -519 OFFCURVE",
"671 -501 OFFCURVE",
"768 -463 CURVE",
"766 -391 OFFCURVE",
"737 -253 OFFCURVE",
"716 -202 CURVE"
);
}
);
};
layerId = "C33D0664-160B-4766-9D9E-1E11B9F87515";
name = "Bold Dec 5 15, 22:21";
paths = (
{
closed = 1;
nodes = (
"402 435 OFFCURVE",
"592 285 OFFCURVE",
"759 285 CURVE",
"806 402 LINE",
"716 425 OFFCURVE",
"675 452 OFFCURVE",
"602 521 CURVE SMOOTH",
"504 614 OFFCURVE",
"423 707 OFFCURVE",
"259 721 CURVE",
"221 637 OFFCURVE",
"196 547 OFFCURVE",
"186 449 CURVE"
);
},
{
closed = 1;
nodes = (
"518 -279 OFFCURVE",
"262 -236 OFFCURVE",
"251 -83 CURVE",
"285 52 OFFCURVE",
"533 147 OFFCURVE",
"759 147 CURVE",
"789 247 OFFCURVE",
"804 321 OFFCURVE",
"806 402 CURVE",
"372 389 OFFCURVE",
"64 182 OFFCURVE",
"50 -162 CURVE",
"94 -478 OFFCURVE",
"415 -601 OFFCURVE",
"768 -463 CURVE",
"766 -391 OFFCURVE",
"737 -253 OFFCURVE",
"716 -202 CURVE"
);
}
);
width = 856;
}
);
unicode = 062D;
},
{
color = 6;
glyphname = "hah-ar.fina";
lastChange = "2015-12-12 16:59:14 +0000";
layers = (
{
components = (
{
name = "hah-ar";
}
);
layerId = "5483B82D-F897-45AA-9987-2D1C58E320E8";
name = Bold;
paths = (
{
closed = 1;
nodes = (
"446 128 LINE",
"466 45 OFFCURVE",
"554 0 OFFCURVE",
"640 0 CURVE",
"662 62 OFFCURVE",
"662 124 OFFCURVE",
"640 186 CURVE",
"614 186 OFFCURVE",
"566 186 OFFCURVE",
"514 204 CURVE"
);
}
);
width = 640;
}
);
unicode = FEA2;
},
{
color = 6;
glyphname = "hah-ar.medi";
lastChange = "2015-12-12 16:58:30 +0000";
layers = (
{
background = {
paths = (
{
closed = 1;
nodes = (
"-16 150 OFFCURVE",
"-16 75 OFFCURVE",
"0 0 CURVE",
"236 0 OFFCURVE",
"323 132 OFFCURVE",
"530 110 CURVE",
"566 191 OFFCURVE",
"578 243 OFFCURVE",
"580 300 CURVE",
"264 322 OFFCURVE",
"184 225 OFFCURVE",
"0 225 CURVE"
);
},
{
closed = 1;
nodes = (
"247 354 OFFCURVE",
"376 244 OFFCURVE",
"421 164 CURVE",
"580 300 LINE",
"505 325 OFFCURVE",
"472 350 OFFCURVE",
"414 410 CURVE SMOOTH",
"355 471 OFFCURVE",
"264 582 OFFCURVE",
"129 593 CURVE",
"97 523 OFFCURVE",
"77 448 OFFCURVE",
"67 368 CURVE"
);
}
);
};
components = (
{
name = "hah-ar.init";
}
);
layerId = "5483B82D-F897-45AA-9987-2D1C58E320E8";
name = Bold;
paths = (
{
closed = 1;
nodes = (
"377 128 LINE",
"397 45 OFFCURVE",
"485 0 OFFCURVE",
"570 0 CURVE",
"594 62 OFFCURVE",
"594 124 OFFCURVE",
"570 186 CURVE",
"546 186 OFFCURVE",
"497 186 OFFCURVE",
"445 203 CURVE"
);
}
);
width = 570;
}
);
unicode = FEA4;
},
{
color = 6;
glyphname = "hah-ar.init";
lastChange = "2015-12-13 14:47:56 +0000";
layers = (
{
layerId = "5483B82D-F897-45AA-9987-2D1C58E320E8";
name = Bold;
paths = (
{
closed = 1;
nodes = (
"-14 124 OFFCURVE",
"-14 62 OFFCURVE",
"0 0 CURVE",
"195 0 OFFCURVE",
"267 109 OFFCURVE",
"438 91 CURVE",
"467 158 OFFCURVE",
"478 201 OFFCURVE",
"479 248 CURVE",
"218 266 OFFCURVE",
"152 186 OFFCURVE",
"0 186 CURVE"
);
},
{
closed = 1;
nodes = (
"204 292 OFFCURVE",
"310 201 OFFCURVE",
"348 135 CURVE",
"479 248 LINE",
"417 268 OFFCURVE",
"389 289 OFFCURVE",
"342 339 CURVE SMOOTH",
"293 389 OFFCURVE",
"218 481 OFFCURVE",
"106 490 CURVE",
"80 432 OFFCURVE",
"63 370 OFFCURVE",
"55 304 CURVE"
);
}
);
width = 519;
}
);
unicode = FEA3;
},
{
color = 6;
glyphname = "dal-ar";
lastChange = "2015-12-12 17:19:39 +0000";
layers = (
{
layerId = "5483B82D-F897-45AA-9987-2D1C58E320E8";
name = Bold;
paths = (
{
closed = 1;
nodes = (
"148 373 LINE",
"222 283 OFFCURVE",
"286 154 OFFCURVE",
"290 54 CURVE",
"373 210 LINE",
"309 180 OFFCURVE",
"177 175 OFFCURVE",
"73 186 CURVE",
"54 129 OFFCURVE",
"42 73 OFFCURVE",
"40 8 CURVE",
"152 -20 OFFCURVE",
"329 11 OFFCURVE",
"378 33 CURVE",
"436 195 OFFCURVE",
"370 365 OFFCURVE",
"286 490 CURVE"
);
}
);
width = 440;
},
{
associatedMasterId = "5483B82D-F897-45AA-9987-2D1C58E320E8";
layerId = "6B09649E-D3A5-4D08-8882-EEA27B358BB7";
name = "Regular Oct 7 15, 10:56";
paths = (
{
closed = 1;
nodes = (
"281 800 LINE",
"441 606 OFFCURVE",
"546 369 OFFCURVE",
"588 128 CURVE",
"642 451 LINE",
"504 387 OFFCURVE",
"344 375 OFFCURVE",
"122 400 CURVE",
"81 276 OFFCURVE",
"56 156 OFFCURVE",
"50 16 CURVE",
"291 -42 OFFCURVE",
"548 1 OFFCURVE",
"654 49 CURVE SMOOTH",
"701 67 OFFCURVE",
"854 278 OFFCURVE",
"854 351 CURVE SMOOTH",
"854 493 OFFCURVE",
"753 791 OFFCURVE",
"577 1050 CURVE"
);
}
);
width = 904;
}
);
unicode = 062F;
},
{
color = 6;
glyphname = "dal-ar.fina";
lastChange = "2015-12-12 17:20:46 +0000";
layers = (
{
layerId = "5483B82D-F897-45AA-9987-2D1C58E320E8";
name = Bold;
paths = (
{
closed = 1;
nodes = (
"282 194 LINE",
"213 179 OFFCURVE",
"151 178 OFFCURVE",
"73 186 CURVE",
"54 129 OFFCURVE",
"43 73 OFFCURVE",
"40 8 CURVE",
"146 -20 OFFCURVE",
"261 1 OFFCURVE",
"308 23 CURVE",
"318 37 OFFCURVE",
"334 60 OFFCURVE",
"350 85 CURVE"
);
},
{
closed = 1;
nodes = (
"346 54 OFFCURVE",
"429 0 OFFCURVE",
"500 0 CURVE",
"523 62 OFFCURVE",
"523 124 OFFCURVE",
"500 186 CURVE",
"450 186 OFFCURVE",
"420 209 OFFCURVE",
"391 280 CURVE SMOOTH",
"364 348 OFFCURVE",
"340 411 OFFCURVE",
"290 490 CURVE",
"152 373 LINE",
"196 317 OFFCURVE",
"232 268 OFFCURVE",
"295 150 CURVE SMOOTH"
);
}
);
width = 500;
},
{
associatedMasterId = "5483B82D-F897-45AA-9987-2D1C58E320E8";
layerId = "F38A6F77-C0B5-44E4-8C96-A4AA3A1EE138";
name = "Regular Oct 7 15, 10:58";
paths = (
{
closed = 1;
nodes = (
"291 800 LINE",
"441 606 OFFCURVE",
"591 357 OFFCURVE",
"610 130 CURVE",
"666 447 LINE",
"504 387 OFFCURVE",
"344 375 OFFCURVE",
"122 400 CURVE",
"81 276 OFFCURVE",
"56 156 OFFCURVE",
"50 16 CURVE",
"291 -42 OFFCURVE",
"548 1 OFFCURVE",
"654 49 CURVE",
"701 108 OFFCURVE",
"782 244 OFFCURVE",
"854 351 CURVE",
"854 493 OFFCURVE",
"753 791 OFFCURVE",
"587 1050 CURVE"
);
},
{
closed = 1;
nodes = (
"922 400 OFFCURVE",
"854 422 OFFCURVE",
"809 579 CURVE",
"791 581 LINE",
"703 218 LINE",
"799 44 OFFCURVE",
"963 0 OFFCURVE",
"1037 0 CURVE",
"1086 133 OFFCURVE",
"1086 267 OFFCURVE",
"1037 400 CURVE"
);
}
);
width = 1037;
}
);
unicode = FEAA;
},
{
color = 6;
glyphname = "reh-ar";
lastChange = "2015-12-12 17:22:13 +0000";
layers = (
{
layerId = "5483B82D-F897-45AA-9987-2D1C58E320E8";
name = Bold;
paths = (
{
closed = 1;
nodes = (
"128 217 LINE",
"95 107 OFFCURVE",
"28 -46 OFFCURVE",
"-45 -154 CURVE",
"-16 -188 OFFCURVE",
"59 -239 OFFCURVE",
"106 -256 CURVE",
"106 -256 OFFCURVE",
"230 -48 OFFCURVE",
"268 170 CURVE"
);
}
);
width = 308;
},
{
associatedMasterId = "5483B82D-F897-45AA-9987-2D1C58E320E8";
background = {
paths = (
{
closed = 1;
nodes = (
"75 -512 OFFCURVE",
"-86 -402 OFFCURVE",
"-150 -329 CURVE",
"42 -58 OFFCURVE",
"178 182 OFFCURVE",
"275 518 CURVE",
"230 142 LINE",
"230 289 OFFCURVE",
"133 553 OFFCURVE",
"99 654 CURVE",
"443 734 LINE",
"485 604 OFFCURVE",
"517 431 OFFCURVE",
"517 318 CURVE SMOOTH",
"517 27 OFFCURVE",
"175 -549 OFFCURVE",
"174 -549 CURVE"
);
}
);
};
layerId = "5F8BF6F5-5FEE-4EA2-942D-5A2F0BDB1F64";
name = "Regular Oct 5 15, 15:52";
paths = (
{
closed = 1;
nodes = (
"75 -512 OFFCURVE",
"-86 -402 OFFCURVE",
"-150 -329 CURVE",
"42 -58 OFFCURVE",
"178 182 OFFCURVE",
"275 518 CURVE",
"230 142 LINE",
"230 289 OFFCURVE",
"133 553 OFFCURVE",
"99 654 CURVE",
"443 734 LINE",
"485 604 OFFCURVE",
"517 431 OFFCURVE",
"517 318 CURVE SMOOTH",
"517 27 OFFCURVE",
"175 -549 OFFCURVE",
"174 -549 CURVE"
);
}
);
width = 563;
}
);
unicode = 0631;
},
{
color = 6;
glyphname = "reh-ar.fina";
lastChange = "2015-12-12 17:22:41 +0000";
layers = (
{
layerId = "5483B82D-F897-45AA-9987-2D1C58E320E8";
name = Bold;
paths = (
{
closed = 1;
nodes = (
"142 195 LINE",
"97 57 OFFCURVE",
"37 -40 OFFCURVE",
"-45 -154 CURVE",
"-15 -188 OFFCURVE",
"60 -239 OFFCURVE",
"106 -256 CURVE",
"117 -243 OFFCURVE",
"206 -83 OFFCURVE",
"250 64 CURVE",
"153 29 LINE",
"206 7 OFFCURVE",
"290 0 OFFCURVE",
"305 0 CURVE",
"328 62 OFFCURVE",
"328 124 OFFCURVE",
"305 186 CURVE",
"302 186 OFFCURVE",
"218 186 OFFCURVE",
"151 201 CURVE"
);
}
);
width = 305;
}
);
unicode = FEAE;
},
{
color = 6;
glyphname = "seen-ar";
lastChange = "2015-12-12 17:23:58 +0000";
layers = (
{
layerId = "5483B82D-F897-45AA-9987-2D1C58E320E8";
name = Bold;
paths = (
{
closed = 1;
nodes = (
"560 277 LINE",
"415 216 LINE",
"440 149 OFFCURVE",
"476 5 OFFCURVE",
"476 -98 CURVE",
"487 -36 LINE",
"420 -54 OFFCURVE",
"365 -64 OFFCURVE",
"322 -64 CURVE SMOOTH",
"244 -64 OFFCURVE",
"206 -31 OFFCURVE",
"206 40 CURVE SMOOTH",
"206 80 OFFCURVE",
"218 132 OFFCURVE",
"242 198 CURVE",
"104 243 LINE",
"62 143 OFFCURVE",
"40 54 OFFCURVE",
"40 -20 CURVE SMOOTH",
"40 -161 OFFCURVE",
"126 -248 OFFCURVE",
"318 -248 CURVE SMOOTH",
"387 -248 OFFCURVE",
"469 -235 OFFCURVE",
"567 -206 CURVE",
"611 -145 OFFCURVE",
"638 -43 OFFCURVE",
"627 81 CURVE",
"502 70 LINE",
"537 18 OFFCURVE",
"584 -3 OFFCURVE",
"630 -3 CURVE SMOOTH",
"685 -3 OFFCURVE",
"736 27 OFFCURVE",
"763 70 CURVE",
"771 70 LINE",
"804 23 OFFCURVE",
"853 -3 OFFCURVE",
"914 -3 CURVE SMOOTH",
"954 -3 OFFCURVE",
"998 8 OFFCURVE",
"1045 29 CURVE",
"1091 102 OFFCURVE",
"1099 247 OFFCURVE",
"1068 342 CURVE",
"907 305 LINE",
"918 272 OFFCURVE",
"937 222 OFFCURVE",
"947 170 CURVE",
"958 188 LINE",
"937 183 OFFCURVE",
"914 177 OFFCURVE",
"892 177 CURVE SMOOTH",
"853 177 OFFCURVE",
"820 197 OFFCURVE",
"828 279 CURVE",
"745 292 LINE",
"730 218 OFFCURVE",
"686 178 OFFCURVE",
"645 178 CURVE SMOOTH",
"610 178 OFFCURVE",
"576 208 OFFCURVE",
"568 273 CURVE"
);
}
);
width = 1127;
},
{
associatedMasterId = "5483B82D-F897-45AA-9987-2D1C58E320E8";
layerId = "1BC8C220-4C71-4DC1-AC9B-B4969162150A";
name = "Regular Oct 7 15, 12:11";
paths = (
{
closed = 1;
nodes = (
"925 454 LINE",
"947 250 OFFCURVE",
"1022 -219 OFFCURVE",
"938 -411 CURVE",
"1190 -26 LINE",
"515 -241 OFFCURVE",
"280 -165 OFFCURVE",
"497 425 CURVE",
"200 521 LINE",
"-84 -99 OFFCURVE",
"17 -532 OFFCURVE",
"660 -532 CURVE SMOOTH",
"807 -532 OFFCURVE",
"983 -504 OFFCURVE",
"1192 -441 CURVE",
"1346 -229 OFFCURVE",
"1342 108 OFFCURVE",
"1310 308 CURVE",
"944 465 LINE"
);
},
{
closed = 1;
nodes = (
"1843 654 LINE",
"1864 590 OFFCURVE",
"1899 497 OFFCURVE",
"1921 398 CURVE",
"1784 374 OFFCURVE",
"1704 441 OFFCURVE",
"1630 579 CURVE",
"1612 581 LINE",
"1401 375 OFFCURVE",
"1215 345 OFFCURVE",
"944 465 CURVE",
"925 454 LINE",
"1127 213 LINE",
"1006 103 LINE",
"1213 -53 OFFCURVE",
"1403 -41 OFFCURVE",
"1579 149 CURVE",
"1598 149 LINE",
"1711 -23 OFFCURVE",
"1866 -54 OFFCURVE",
"2138 63 CURVE",
"2237 218 OFFCURVE",
"2253 528 OFFCURVE",
"2187 734 CURVE"
);
}
);
width = 2277;
}
);
unicode = 0633;
},
{
color = 6;
glyphname = "seen-ar.fina";
lastChange = "2015-12-12 17:24:17 +0000";
layers = (
{
layerId = "5483B82D-F897-45AA-9987-2D1C58E320E8";
name = Bold;
paths = (
{
closed = 1;
nodes = (
"416 216 LINE",
"475 40 OFFCURVE",
"488 -102 OFFCURVE",
"468 -204 CURVE",
"566 -12 LINE",
"463 -45 OFFCURVE",
"381 -64 OFFCURVE",
"322 -64 CURVE SMOOTH",
"245 -64 OFFCURVE",
"206 -31 OFFCURVE",
"206 40 CURVE SMOOTH",
"206 80 OFFCURVE",
"218 132 OFFCURVE",
"242 198 CURVE",
"104 243 LINE",
"63 143 OFFCURVE",
"40 54 OFFCURVE",
"40 -20 CURVE SMOOTH",
"40 -161 OFFCURVE",
"126 -248 OFFCURVE",
"319 -248 CURVE SMOOTH",
"387 -248 OFFCURVE",
"469 -235 OFFCURVE",
"567 -206 CURVE",
"639 -107 OFFCURVE",
"637 51 OFFCURVE",
"622 143 CURVE",
"572 176 OFFCURVE",
"570 229 OFFCURVE",
"561 277 CURVE"
);
},
{
closed = 1;
nodes = (
"1049 186 OFFCURVE",
"1015 186 OFFCURVE",
"1015 294 CURVE",
"932 294 LINE",
"928 223 OFFCURVE",
"908 183 OFFCURVE",
"874 183 CURVE SMOOTH",
"841 183 OFFCURVE",
"818 221 OFFCURVE",
"827 279 CURVE",
"743 292 LINE",
"729 220 OFFCURVE",
"688 179 OFFCURVE",
"645 179 CURVE SMOOTH",
"609 179 OFFCURVE",
"578 208 OFFCURVE",
"568 273 CURVE",
"561 277 LINE",
"537 99 LINE",
"534 57 LINE",
"560 18 OFFCURVE",
"598 -3 OFFCURVE",
"643 -3 CURVE SMOOTH",
"690 -3 OFFCURVE",
"731 23 OFFCURVE",
"761 70 CURVE",
"770 70 LINE",
"794 17 OFFCURVE",
"824 -5 OFFCURVE",
"858 -5 CURVE SMOOTH",
"896 -5 OFFCURVE",
"928 24 OFFCURVE",
"945 70 CURVE",
"953 70 LINE",
"998 5 OFFCURVE",
"1052 0 OFFCURVE",
"1088 0 CURVE",
"1102 62 OFFCURVE",
"1102 124 OFFCURVE",
"1088 186 CURVE"
);
}
);
width = 1088;
}
);
unicode = FEB2;
},
{
color = 6;
glyphname = "seen-ar.medi";
lastChange = "2015-12-12 17:24:51 +0000";
layers = (
{
associatedMasterId = "5483B82D-F897-45AA-9987-2D1C58E320E8";
layerId = "5201C4C5-7048-4F3E-8F5B-B18107B5079C";
name = "Bold Nov 9 15, 17:43";
paths = (
{
closed = 1;
nodes = (
"1400 400 OFFCURVE",
"1351 467 OFFCURVE",
"1291 579 CURVE",
"1273 581 LINE",
"1161 323 OFFCURVE",
"1015 333 OFFCURVE",
"899 579 CURVE",
"881 581 LINE",
"610 331 OFFCURVE",
"487 313 OFFCURVE",
"321 579 CURVE",
"303 581 LINE",
"208 467 OFFCURVE",
"97 400 OFFCURVE",
"0 400 CURVE",
"-30 266 OFFCURVE",
"-30 132 OFFCURVE",
"0 0 CURVE",
"88 0 OFFCURVE",
"182 55 OFFCURVE",
"270 149 CURVE",
"289 149 LINE",
"468 -77 OFFCURVE",
"586 -53 OFFCURVE",
"848 149 CURVE",
"867 149 LINE",
"976 -60 OFFCURVE",
"1119 -69 OFFCURVE",
"1240 149 CURVE",
"1259 149 LINE",
"1342 23 OFFCURVE",
"1451 0 OFFCURVE",
"1548 0 CURVE",
"1598 133 OFFCURVE",
"1591 267 OFFCURVE",
"1548 400 CURVE"
);
}
);
width = 1548;
},
{
layerId = "5483B82D-F897-45AA-9987-2D1C58E320E8";
name = Bold;
paths = (
{
closed = 1;
nodes = (
"654 186 OFFCURVE",
"650 219 OFFCURVE",
"650 294 CURVE",
"566 294 LINE",
"562 212 OFFCURVE",
"539 182 OFFCURVE",
"509 182 CURVE SMOOTH",
"479 182 OFFCURVE",
"454 212 OFFCURVE",
"461 279 CURVE",
"377 292 LINE",
"366 249 OFFCURVE",
"345 180 OFFCURVE",
"278 180 CURVE SMOOTH",
"238 180 OFFCURVE",
"211 206 OFFCURVE",
"206 294 CURVE",
"123 294 LINE",
"112 207 OFFCURVE",
"56 186 OFFCURVE",
"0 186 CURVE",
"-14 124 OFFCURVE",
"-14 61 OFFCURVE",
"0 0 CURVE",
"51 0 OFFCURVE",
"98 26 OFFCURVE",
"126 70 CURVE",
"135 70 LINE",
"165 19 OFFCURVE",
"215 -4 OFFCURVE",
"264 -4 CURVE SMOOTH",
"316 -4 OFFCURVE",
"367 21 OFFCURVE",
"396 70 CURVE",
"405 70 LINE",
"423 23 OFFCURVE",
"451 -4 OFFCURVE",
"492 -4 CURVE SMOOTH",
"533 -4 OFFCURVE",
"566 22 OFFCURVE",
"579 70 CURVE",
"588 70 LINE",
"626 11 OFFCURVE",
"678 0 OFFCURVE",
"723 0 CURVE",
"746 62 OFFCURVE",
"743 124 OFFCURVE",
"723 186 CURVE"
);
}
);
width = 723;
}
);
unicode = FEB4;
},
{
color = 6;
glyphname = "seen-ar.init";
lastChange = "2015-12-12 17:25:12 +0000";
layers = (
{
layerId = "5483B82D-F897-45AA-9987-2D1C58E320E8";
name = Bold;
paths = (
{
closed = 1;
nodes = (
"566 305 LINE",
"577 272 OFFCURVE",
"596 221 OFFCURVE",
"606 170 CURVE",
"618 189 LINE",
"596 183 OFFCURVE",
"572 176 OFFCURVE",
"550 176 CURVE SMOOTH",
"510 176 OFFCURVE",
"478 198 OFFCURVE",
"487 279 CURVE",
"403 292 LINE",
"385 210 OFFCURVE",
"344 180 OFFCURVE",
"303 180 CURVE SMOOTH",
"265 180 OFFCURVE",
"235 206 OFFCURVE",
"231 294 CURVE",
"148 294 LINE",
"134 186 OFFCURVE",
"59 186 OFFCURVE",
"0 186 CURVE",
"-24 124 OFFCURVE",
"-24 62 OFFCURVE",
"0 0 CURVE",
"54 0 OFFCURVE",
"103 5 OFFCURVE",
"151 70 CURVE",
"160 70 LINE",
"187 19 OFFCURVE",
"237 -5 OFFCURVE",
"288 -5 CURVE SMOOTH",
"344 -5 OFFCURVE",
"392 21 OFFCURVE",
"421 70 CURVE",
"430 70 LINE",
"460 22 OFFCURVE",
"510 -3 OFFCURVE",
"572 -3 CURVE SMOOTH",
"612 -3 OFFCURVE",
"657 7 OFFCURVE",
"704 29 CURVE",
"750 102 OFFCURVE",
"757 247 OFFCURVE",
"726 342 CURVE"
);
}
);
width = 785;
}
);
unicode = FEB3;
},
{
color = 6;
glyphname = "sad-ar";
lastChange = "2015-12-12 17:26:54 +0000";
layers = (
{
background = {
paths = (
{
closed = 1;
nodes = (
"616 284 OFFCURVE",
"588 336 OFFCURVE",
"552 400 CURVE",
"541 405 LINE",
"329 316 LINE",
"359 236 OFFCURVE",
"400 80 OFFCURVE",
"414 -57 CURVE",
"153 -125 OFFCURVE",
"22 -101 OFFCURVE",
"22 58 CURVE SMOOTH",
"22 117 OFFCURVE",
"40 193 OFFCURVE",
"76 290 CURVE",
"-127 356 LINE",
"-187 210 OFFCURVE",
"-220 79 OFFCURVE",
"-220 -29 CURVE SMOOTH",
"-220 -236 OFFCURVE",
"-94 -363 OFFCURVE",
"187 -363 CURVE SMOOTH",
"287 -363 OFFCURVE",
"407 -344 OFFCURVE",
"550 -301 CURVE",
"601 -237 OFFCURVE",
"638 -141 OFFCURVE",
"644 20 CURVE",
"914 -42 OFFCURVE",
"1254 14 OFFCURVE",
"1351 59 CURVE",
"1392 118 OFFCURVE",
"1422 225 OFFCURVE",
"1422 269 CURVE SMOOTH",
"1422 623 OFFCURVE",
"1054 747 OFFCURVE",
"691 268 CURVE"
);
},
{
closed = 1;
nodes = (
"1045 348 OFFCURVE",
"1232 335 OFFCURVE",
"1232 290 CURVE SMOOTH",
"1232 266 OFFCURVE",
"1013 249 OFFCURVE",
"895 255 CURVE"
);
}
);
};
layerId = "5483B82D-F897-45AA-9987-2D1C58E320E8";
name = Bold;
paths = (
{
closed = 1;
nodes = (
"611 194 OFFCURVE",
"592 229 OFFCURVE",
"568 273 CURVE",
"560 277 LINE",
"415 216 LINE",
"436 161 OFFCURVE",
"464 55 OFFCURVE",
"473 -39 CURVE",
"295 -85 OFFCURVE",
"206 -69 OFFCURVE",
"206 40 CURVE SMOOTH",
"206 80 OFFCURVE",
"218 132 OFFCURVE",
"242 198 CURVE",
"104 243 LINE",
"63 143 OFFCURVE",
"40 54 OFFCURVE",
"40 -20 CURVE SMOOTH",
"40 -161 OFFCURVE",
"126 -248 OFFCURVE",
"318 -248 CURVE SMOOTH",
"387 -248 OFFCURVE",
"468 -235 OFFCURVE",
"566 -206 CURVE",
"601 -162 OFFCURVE",
"626 -96 OFFCURVE",
"630 14 CURVE",
"815 -29 OFFCURVE",
"1047 10 OFFCURVE",
"1113 40 CURVE",
"1141 81 OFFCURVE",
"1162 154 OFFCURVE",
"1162 184 CURVE SMOOTH",
"1162 314 OFFCURVE",
"1089 398 OFFCURVE",
"984 398 CURVE SMOOTH",
"893 398 OFFCURVE",
"777 335 OFFCURVE",
"662 183 CURVE"
);
},
{
closed = 1;
nodes = (
"857 208 OFFCURVE",
"920 222 OFFCURVE",
"966 222 CURVE SMOOTH",
"1005 222 OFFCURVE",
"1032 212 OFFCURVE",
"1032 198 CURVE SMOOTH",
"1032 182 OFFCURVE",
"882 170 OFFCURVE",
"802 174 CURVE"
);
}
);
width = 1202;
}
);
unicode = 0635;
},
{
color = 6;
glyphname = "sad-ar.fina";
lastChange = "2015-12-12 17:27:32 +0000";
layers = (
{
background = {
components = (
{
name = "sad-ar";
}
);
paths = (
{
closed = 1;
nodes = (
"1374 186 LINE",
"1322 86 LINE",
"1365 23 OFFCURVE",
"1421 0 OFFCURVE",
"1473 0 CURVE",
"1496 62 OFFCURVE",
"1496 124 OFFCURVE",
"1473 186 CURVE"
);
}
);
};
components = (
{
name = "sad-ar";
}
);
layerId = "5483B82D-F897-45AA-9987-2D1C58E320E8";
name = Bold;
paths = (
{
closed = 1;
nodes = (
"1114 186 LINE",
"1062 86 LINE",
"1105 23 OFFCURVE",
"1161 0 OFFCURVE",
"1213 0 CURVE",
"1236 62 OFFCURVE",
"1236 124 OFFCURVE",
"1213 186 CURVE"
);
}
);
width = 1213;
}
);
unicode = FEBA;
},
{
color = 6;
glyphname = "sad-ar.medi";
lastChange = "2015-12-12 17:28:33 +0000";
layers = (
{
components = (
{
name = "sad-ar.init";
}
);
layerId = "5483B82D-F897-45AA-9987-2D1C58E320E8";
name = Bold;
paths = (
{
closed = 1;
nodes = (
"645 186 LINE",
"594 86 LINE",
"637 23 OFFCURVE",
"692 0 OFFCURVE",
"744 0 CURVE",
"767 62 OFFCURVE",
"767 124 OFFCURVE",
"744 186 CURVE"
);
}
);
width = 743;
}
);
unicode = FEBC;
},
{
color = 6;
glyphname = "sad-ar.init";
lastChange = "2015-12-12 17:27:51 +0000";
layers = (
{
associatedMasterId = "5483B82D-F897-45AA-9987-2D1C58E320E8";
background = {
paths = (
{
closed = 1;
nodes = (
"1106 564 OFFCURVE",
"1291 530 OFFCURVE",
"1410 412 CURVE",
"1237 394 OFFCURVE",
"1068 380 OFFCURVE",
"918 380 CURVE SMOOTH",
"705 380 OFFCURVE",
"562 394 OFFCURVE",
"473 579 CURVE",
"455 581 LINE",
"356 477 OFFCURVE",
"235 400 OFFCURVE",
"120 400 CURVE",
"70 267 OFFCURVE",
"70 133 OFFCURVE",
"120 0 CURVE",
"172 0 OFFCURVE",
"310 22 OFFCURVE",
"422 149 CURVE",
"441 149 LINE",
"524 23 OFFCURVE",
"671 -9 OFFCURVE",
"856 -9 CURVE SMOOTH",
"1152 -9 OFFCURVE",
"1468 22 OFFCURVE",
"1635 188 CURVE",
"1768 844 OFFCURVE",
"1269 1123 OFFCURVE",
"638 603 CURVE",
"776 319 LINE"
);
}
);
};
layerId = "8D72FDA8-5CD0-404A-B033-A4F6EC2F8F68";
name = "Regular Oct 12 15, 21:20";
paths = (
{
closed = 1;
nodes = (
"1106 564 OFFCURVE",
"1291 530 OFFCURVE",
"1410 412 CURVE",
"1237 394 OFFCURVE",
"1068 380 OFFCURVE",
"918 380 CURVE SMOOTH",
"705 380 OFFCURVE",
"497 400 OFFCURVE",
"411 731 CURVE",
"116 619 LINE",
"286 38 OFFCURVE",
"671 -9 OFFCURVE",
"856 -9 CURVE SMOOTH",
"1152 -9 OFFCURVE",
"1468 22 OFFCURVE",
"1635 188 CURVE",
"1768 844 OFFCURVE",
"1269 1123 OFFCURVE",
"638 603 CURVE",
"776 319 LINE"
);
},
{
closed = 1;
nodes = (
"-50 267 OFFCURVE",
"-50 133 OFFCURVE",
"0 0 CURVE",
"269 0 OFFCURVE",
"517 144 OFFCURVE",
"517 400 CURVE",
"0 400 LINE"
);
}
);
width = 1777;
},
{
background = {
paths = (
{
closed = 1;
nodes = (
"481 348 OFFCURVE",
"668 335 OFFCURVE",
"668 290 CURVE SMOOTH",
"668 266 OFFCURVE",
"449 249 OFFCURVE",
"331 255 CURVE"
);
},
{
closed = 1;
nodes = (
"-8 390 LINE",
"6 284 OFFCURVE",
"-98 273 OFFCURVE",
"-172 273 CURVE",
"-206 182 OFFCURVE",
"-206 91 OFFCURVE",
"-172 0 CURVE",
"-109 0 OFFCURVE",
"-31 5 OFFCURVE",
"39 102 CURVE",
"52 102 LINE",
"154 -66 OFFCURVE",
"595 -10 OFFCURVE",
"789 59 CURVE",
"838 130 OFFCURVE",
"859 238 OFFCURVE",
"859 267 CURVE SMOOTH",
"859 615 OFFCURVE",
"500 757 OFFCURVE",
"126 264 CURVE",
"171 285 LINE",
"127 297 OFFCURVE",
"123 350 OFFCURVE",
"115 408 CURVE"
);
}
);
};
layerId = "5483B82D-F897-45AA-9987-2D1C58E320E8";
name = Bold;
paths = (
{
closed = 1;
nodes = (
"446 238 OFFCURVE",
"573 229 OFFCURVE",
"573 198 CURVE SMOOTH",
"573 182 OFFCURVE",
"424 170 OFFCURVE",
"343 174 CURVE"
);
},
{
closed = 1;
nodes = (
"112 266 LINE",
"121 194 OFFCURVE",
"50 186 OFFCURVE",
"0 186 CURVE",
"-24 124 OFFCURVE",
"-24 62 OFFCURVE",
"0 0 CURVE",
"43 0 OFFCURVE",
"96 3 OFFCURVE",
"144 70 CURVE",
"153 70 LINE",
"222 -45 OFFCURVE",
"523 -7 OFFCURVE",
"656 40 CURVE",
"689 89 OFFCURVE",
"704 163 OFFCURVE",
"704 182 CURVE SMOOTH",
"704 420 OFFCURVE",
"459 517 OFFCURVE",
"203 180 CURVE",
"234 195 LINE",
"204 203 OFFCURVE",
"201 239 OFFCURVE",
"196 279 CURVE"
);
}
);
width = 744;
}
);
unicode = FEBB;
},
{
color = 6;
glyphname = "tah-ar";
lastChange = "2015-12-12 17:31:32 +0000";
layers = (
{
layerId = "5483B82D-F897-45AA-9987-2D1C58E320E8";
name = Bold;
paths = (
{
closed = 1;
nodes = (
"273 235 LINE",
"315 322 OFFCURVE",
"320 446 OFFCURVE",
"320 566 CURVE",
"159 557 LINE",
"166 294 OFFCURVE",
"162 206 OFFCURVE",
"114 139 CURVE"
);
},
{
closed = 1;
nodes = (
"320 390 OFFCURVE",
"233 298 OFFCURVE",
"144 180 CURVE",
"118 183 OFFCURVE",
"93 187 OFFCURVE",
"73 192 CURVE",
"53 134 OFFCURVE",
"41 75 OFFCURVE",
"40 17 CURVE",
"159 -11 OFFCURVE",
"377 -20 OFFCURVE",
"547 40 CURVE",
"575 81 OFFCURVE",
"595 150 OFFCURVE",
"595 177 CURVE SMOOTH",
"595 332 OFFCURVE",
"508 410 OFFCURVE",
"391 398 CURVE SMOOTH"
);
},
{
closed = 1;
nodes = (
"342 238 OFFCURVE",
"469 224 OFFCURVE",
"469 193 CURVE SMOOTH",
"469 177 OFFCURVE",
"320 170 OFFCURVE",
"239 174 CURVE"
);
}
);
width = 635;
},
{
associatedMasterId = "5483B82D-F897-45AA-9987-2D1C58E320E8";
background = {
paths = (
{
closed = 1;
nodes = (
"646 554 OFFCURVE",
"1003 484 OFFCURVE",
"1027 349 CURVE",
"1229 455 LINE",
"915 366 OFFCURVE",
"569 357 OFFCURVE",
"333 387 CURVE",
"256 384 OFFCURVE",
"176 462 OFFCURVE",
"113 579 CURVE",
"95 581 LINE",
"-4 477 OFFCURVE",
"-125 400 OFFCURVE",
"-240 400 CURVE",
"-290 267 OFFCURVE",
"-290 133 OFFCURVE",
"-240 0 CURVE",
"-188 0 OFFCURVE",
"-50 22 OFFCURVE",
"62 149 CURVE",
"81 149 LINE",
"238 -96 OFFCURVE",
"883 -22 OFFCURVE",
"1167 86 CURVE",
"1239 190 OFFCURVE",
"1270 348 OFFCURVE",
"1270 391 CURVE SMOOTH",
"1270 903 OFFCURVE",
"739 1110 OFFCURVE",
"119 376 CURVE",
"353 251 LINE"
);
}
);
};
layerId = "6C27CAB9-0FC5-4739-95D6-91488F875B66";
name = "Regular Oct 25 15, 16:40";
paths = (
{
closed = 1;
nodes = (
"432 -23 OFFCURVE",
"1020 -23 OFFCURVE",
"1251 188 CURVE",
"1333 647 OFFCURVE",
"1127 902 OFFCURVE",
"832 872 CURVE SMOOTH",
"676 856 OFFCURVE",
"521 603 OFFCURVE",
"254 603 CURVE",
"413 276 LINE",
"590 554 OFFCURVE",
"1087 563 OFFCURVE",
"1087 263 CURVE",
"1139 432 LINE",
"829 393 OFFCURVE",
"379 355 OFFCURVE",
"120 412 CURVE",
"77 287 OFFCURVE",
"53 161 OFFCURVE",
"50 36 CURVE"
);
},
{
closed = 1;
nodes = (
"547 517 LINE",
"659 627 OFFCURVE",
"680 869 OFFCURVE",
"680 1213 CURVE",
"334 1194 LINE",
"340 983 OFFCURVE",
"348 888 OFFCURVE",
"348 791 CURVE SMOOTH",
"348 687 OFFCURVE",
"345 679 OFFCURVE",
"254 603 CURVE"
);
}
);
width = 1319;
}
);
unicode = 0637;
},
{
color = 6;
glyphname = "tah-ar.fina";
lastChange = "2015-12-12 17:30:08 +0000";
layers = (
{
components = (
{
name = "tah-ar";
}
);
layerId = "5483B82D-F897-45AA-9987-2D1C58E320E8";
name = Bold;
paths = (
{
closed = 1;
nodes = (
"549 186 LINE",
"498 86 LINE",
"541 23 OFFCURVE",
"596 0 OFFCURVE",
"648 0 CURVE",
"671 62 OFFCURVE",
"671 124 OFFCURVE",
"648 186 CURVE"
);
}
);
width = 648;
}
);
unicode = FEC2;
},
{
color = 6;
glyphname = "tah-ar.medi";
lastChange = "2015-12-12 17:31:22 +0000";
layers = (
{
components = (
{
name = "tah-ar.init";
}
);
layerId = "5483B82D-F897-45AA-9987-2D1C58E320E8";
name = Bold;
paths = (
{
closed = 1;
nodes = (
"110 160 LINE",
"206 239 OFFCURVE",
"214 406 OFFCURVE",
"214 566 CURVE",
"53 557 LINE",
"59 337 OFFCURVE",
"57 227 OFFCURVE",
"26 169 CURVE"
);
},
{
closed = 1;
nodes = (
"431 186 LINE",
"380 86 LINE",
"423 23 OFFCURVE",
"478 0 OFFCURVE",
"530 0 CURVE",
"554 62 OFFCURVE",
"554 124 OFFCURVE",
"530 186 CURVE"
);
}
);
width = 530;
}
);
unicode = FEC4;
},
{
color = 6;
glyphname = "tah-ar.init";
lastChange = "2015-12-13 10:32:34 +0000";
layers = (
{
layerId = "5483B82D-F897-45AA-9987-2D1C58E320E8";
name = Bold;
paths = (
{
closed = 1;
nodes = (
"109 160 LINE",
"206 239 OFFCURVE",
"214 406 OFFCURVE",
"214 566 CURVE",
"53 557 LINE",
"58 337 OFFCURVE",
"57 227 OFFCURVE",
"25 169 CURVE"
);
},
{
closed = 1;
nodes = (
"215 390 OFFCURVE",
"118 294 OFFCURVE",
"56 186 CURVE",
"0 186 LINE",
"-24 124 OFFCURVE",
"-24 62 OFFCURVE",
"0 0 CURVE",
"123 0 OFFCURVE",
"302 -6 OFFCURVE",
"441 40 CURVE",
"469 81 OFFCURVE",
"489 150 OFFCURVE",
"489 177 CURVE SMOOTH",
"489 332 OFFCURVE",
"402 410 OFFCURVE",
"285 398 CURVE SMOOTH"
);
},
{
closed = 1;
nodes = (
"235 238 OFFCURVE",
"363 224 OFFCURVE",
"363 193 CURVE SMOOTH",
"363 177 OFFCURVE",
"213 170 OFFCURVE",
"133 174 CURVE"
);
}
);
width = 529;
}
);
unicode = FEC3;
},
{
color = 6;
glyphname = "ain-ar";
lastChange = "2015-12-12 17:39:39 +0000";
layers = (
{
associatedMasterId = "5483B82D-F897-45AA-9987-2D1C58E320E8";
background = {
paths = (
{
closed = 1;
nodes = (
"777 -382 OFFCURVE",
"413 -339 OFFCURVE",
"399 -74 CURVE SMOOTH",
"382 238 OFFCURVE",
"881 288 OFFCURVE",
"1118 234 CURVE",
"1161 352 OFFCURVE",
"1183 458 OFFCURVE",
"1186 572 CURVE",
"679 716 OFFCURVE",
"80 360 OFFCURVE",
"80 -162 CURVE SMOOTH",
"80 -660 OFFCURVE",
"624 -839 OFFCURVE",
"1145 -636 CURVE",
"1130 -473 OFFCURVE",
"1099 -354 OFFCURVE",
"1054 -253 CURVE"
);
}
);
};
layerId = "BD42FE98-532C-4A19-B203-E2001401EED5";
name = "Regular Oct 11 15, 14:50";
paths = (
{
closed = 1;
nodes = (
"691 -358 OFFCURVE",
"369 -252 OFFCURVE",
"369 -105 CURVE SMOOTH",
"369 5 OFFCURVE",
"523 40 OFFCURVE",
"880 124 CURVE",
"457 137 LINE",
"666 0 OFFCURVE",
"933 33 OFFCURVE",
"1023 55 CURVE",
"1050 113 OFFCURVE",
"1088 315 OFFCURVE",
"1091 437 CURVE",
"818 424 OFFCURVE",
"657 396 OFFCURVE",
"535 352 CURVE SMOOTH",
"296 275 OFFCURVE",
"50 104 OFFCURVE",
"50 -196 CURVE SMOOTH",
"50 -651 OFFCURVE",
"624 -779 OFFCURVE",
"1145 -636 CURVE",
"1136 -498 OFFCURVE",
"1102 -362 OFFCURVE",
"1054 -253 CURVE"
);
},
{
closed = 1;
nodes = (
"902 289 LINE",
"732 373 OFFCURVE",
"594 469 OFFCURVE",
"470 593 CURVE",
"662 697 OFFCURVE",
"986 659 OFFCURVE",
"1006 644 CURVE",
"1032 681 OFFCURVE",
"1072 921 OFFCURVE",
"1058 1022 CURVE",
"766 1054 OFFCURVE",
"252 891 OFFCURVE",
"252 523 CURVE SMOOTH",
"252 361 OFFCURVE",
"354 227 OFFCURVE",
"457 137 CURVE"
);
}
);
width = 1195;
},
{
associatedMasterId = "5483B82D-F897-45AA-9987-2D1C58E320E8";
layerId = "5977FFB2-5811-4397-B6CB-7715C71A4C2F";
name = "Bold Dec 12 15, 17:39";
paths = (
{
closed = 1;
nodes = (
"482 356 LINE",
"478 391 OFFCURVE",
"453 498 OFFCURVE",
"439 518 CURVE",
"305 509 OFFCURVE",
"132 432 OFFCURVE",
"132 285 CURVE SMOOTH",
"132 245 OFFCURVE",
"147 208 OFFCURVE",
"169 179 CURVE",
"97 134 OFFCURVE",
"40 64 OFFCURVE",
"40 -37 CURVE SMOOTH",
"40 -242 OFFCURVE",
"270 -315 OFFCURVE",
"476 -248 CURVE",
"481 -227 OFFCURVE",
"464 -128 OFFCURVE",
"440 -79 CURVE",
"263 -111 OFFCURVE",
"173 -57 OFFCURVE",
"180 5 CURVE SMOOTH",
"190 81 OFFCURVE",
"341 102 OFFCURVE",
"492 89 CURVE",
"500 107 OFFCURVE",
"518 201 OFFCURVE",
"519 258 CURVE",
"444 255 OFFCURVE",
"386 249 OFFCURVE",
"341 240 CURVE",
"306 263 OFFCURVE",
"265 293 OFFCURVE",
"265 319 CURVE SMOOTH",
"265 357 OFFCURVE",
"393 354 OFFCURVE",
"465 342 CURVE"
);
}
);
width = 559;
},
{
background = {
paths = (
{
closed = 1;
nodes = (
"306 263 OFFCURVE",
"147 208 OFFCURVE",
"169 179 CURVE",
"97 134 OFFCURVE",
"40 64 OFFCURVE",
"40 -37 CURVE SMOOTH",
"40 -242 OFFCURVE",
"270 -315 OFFCURVE",
"476 -248 CURVE",
"481 -227 OFFCURVE",
"464 -128 OFFCURVE",
"440 -79 CURVE",
"263 -111 OFFCURVE",
"173 -57 OFFCURVE",
"180 5 CURVE SMOOTH",
"190 81 OFFCURVE",
"341 102 OFFCURVE",
"492 89 CURVE",
"500 107 OFFCURVE",
"518 201 OFFCURVE",
"519 258 CURVE",
"444 255 OFFCURVE",
"386 249 OFFCURVE",
"341 240 CURVE"
);
}
);
};
layerId = "5483B82D-F897-45AA-9987-2D1C58E320E8";
name = Bold;
paths = (
{
closed = 1;
nodes = (
"169 179 LINE",
"97 134 OFFCURVE",
"40 64 OFFCURVE",
"40 -37 CURVE SMOOTH",
"40 -242 OFFCURVE",
"270 -315 OFFCURVE",
"476 -248 CURVE",
"481 -227 OFFCURVE",
"464 -128 OFFCURVE",
"440 -79 CURVE",
"263 -111 OFFCURVE",
"173 -57 OFFCURVE",
"180 5 CURVE SMOOTH",
"189 81 OFFCURVE",
"330 102 OFFCURVE",
"472 89 CURVE",
"480 107 OFFCURVE",
"498 201 OFFCURVE",
"499 258 CURVE",
"432 255 OFFCURVE",
"381 249 OFFCURVE",
"341 240 CURVE"
);
},
{
closed = 1;
nodes = (
"457 395 OFFCURVE",
"456 488 OFFCURVE",
"446 521 CURVE",
"347 521 OFFCURVE",
"131 456 OFFCURVE",
"131 285 CURVE SMOOTH",
"131 220 OFFCURVE",
"170 168 OFFCURVE",
"208 132 CURVE",
"416 203 LINE",
"375 228 OFFCURVE",
"265 277 OFFCURVE",
"265 319 CURVE SMOOTH",
"267 356 OFFCURVE",
"383 360 OFFCURVE",
"447 362 CURVE"
);
}
);
width = 539;
}
);
unicode = 0639;
},
{
color = 6;
glyphname = "ain-ar.fina";
lastChange = "2015-12-12 23:44:22 +0000";
layers = (
{
background = {
paths = (
{
closed = 1;
nodes = (
"550 186 LINE",
"507 186 OFFCURVE",
"470 198 OFFCURVE",
"448 231 CURVE",
"379 217 LINE",
"278 277 OFFCURVE",
"319 403 OFFCURVE",
"116 390 CURVE",
"110 320 OFFCURVE",
"116 303 OFFCURVE",
"128 247 CURVE",
"207 263 OFFCURVE",
"223 207 OFFCURVE",
"258 151 CURVE",
"332 111 LINE",
"390 87 OFFCURVE",
"412 0 OFFCURVE",
"559 0 CURVE"
);
},
{
closed = 1;
nodes = (
"477 186 LINE",
"512 232 OFFCURVE",
"535 279 OFFCURVE",
"550 323 CURVE",
"550 498 OFFCURVE",
"277 439 OFFCURVE",
"116 390 CURVE",
"226 268 LINE",
"272 288 OFFCURVE",
"408 316 OFFCURVE",
"418 288 CURVE SMOOTH",
"427 265 OFFCURVE",
"394 239 OFFCURVE",
"365 218 CURVE",
"365 219 OFFCURVE",
"332 216 OFFCURVE",
"323 230 CURVE",
"272 186 OFFCURVE",
"177 186 OFFCURVE",
"97 186 CURVE",
"73 124 OFFCURVE",
"73 62 OFFCURVE",
"97 0 CURVE",
"251 0 OFFCURVE",
"338 36 OFFCURVE",
"400 101 CURVE",
"345 124 LINE",
"559 0 LINE",
"582 62 OFFCURVE",
"582 124 OFFCURVE",
"559 186 CURVE"
);
},
{
closed = 1;
nodes = (
"321 85 LINE",
"400 85 LINE",
"400 121 LINE",
"321 121 LINE"
);
}
);
};
layerId = "5483B82D-F897-45AA-9987-2D1C58E320E8";
name = Bold;
paths = (
{
closed = 1;
nodes = (
"213 43 OFFCURVE",
"358 27 OFFCURVE",
"449 108 CURVE",
"327 118 LINE",
"383 61 OFFCURVE",
"443 0 OFFCURVE",
"563 0 CURVE",
"586 62 OFFCURVE",
"586 124 OFFCURVE",
"563 186 CURVE",
"521 186 OFFCURVE",
"475 190 OFFCURVE",
"448 231 CURVE",
"453 158 LINE",
"492 198 OFFCURVE",
"530 263 OFFCURVE",
"551 323 CURVE",
"551 466 OFFCURVE",
"365 463 OFFCURVE",
"117 390 CURVE",
"111 320 OFFCURVE",
"117 303 OFFCURVE",
"130 247 CURVE",
"197 264 OFFCURVE",
"219 218 OFFCURVE",
"261 155 CURVE",
"352 208 LINE",
"165 159 OFFCURVE",
"40 61 OFFCURVE",
"40 -83 CURVE SMOOTH",
"40 -295 OFFCURVE",
"313 -375 OFFCURVE",
"531 -282 CURVE",
"531 -250 OFFCURVE",
"521 -160 OFFCURVE",
"503 -111 CURVE",
"299 -166 OFFCURVE",
"158 -105 OFFCURVE",
"186 -29 CURVE SMOOTH"
);
},
{
closed = 1;
nodes = (
"425 262 OFFCURVE",
"390 235 OFFCURVE",
"374 224 CURVE",
"348 245 OFFCURVE",
"332 266 OFFCURVE",
"318 292 CURVE",
"341 297 OFFCURVE",
"416 311 OFFCURVE",
"421 285 CURVE SMOOTH"
);
}
);
width = 563;
},
{
associatedMasterId = "5483B82D-F897-45AA-9987-2D1C58E320E8";
background = {
paths = (
{
closed = 1;
nodes = (
"165 267 OFFCURVE",
"165 133 OFFCURVE",
"215 0 CURVE",
"347 0 LINE",
"712 167 LINE",
"991 0 LINE",
"1207 0 LINE",
"1257 133 OFFCURVE",
"1257 267 OFFCURVE",
"1207 400 CURVE",
"515 400 LINE",
"215 400 LINE"
);
},
{
closed = 1;
nodes = (
"1136 399 LINE",
"471 399 OFFCURVE",
"892 1113 OFFCURVE",
"256 900 CURVE",
"243 751 OFFCURVE",
"256 629 OFFCURVE",
"283 510 CURVE",
"579 629 OFFCURVE",
"469 0 OFFCURVE",
"991 0 CURVE"
);
},
{
closed = 1;
nodes = (
"492 574 LINE",
"623 629 OFFCURVE",
"809 718 OFFCURVE",
"938 672 CURVE",
"876 516 OFFCURVE",
"725 405 OFFCURVE",
"654 380 CURVE",
"347 0 LINE",
"627 0 OFFCURVE",
"797 161 OFFCURVE",
"899 259 CURVE SMOOTH",
"1107 459 OFFCURVE",
"1187 684 OFFCURVE",
"1187 787 CURVE SMOOTH",
"1187 1141 OFFCURVE",
"823 1159 OFFCURVE",
"256 900 CURVE"
);
}
);
};
layerId = "50B6177C-8778-4BEB-8B68-60013A6EDBA3";
name = "Regular Oct 8 15, 17:38";
paths = (
{
closed = 1;
nodes = (
"661 -388 OFFCURVE",
"369 -252 OFFCURVE",
"369 -105 CURVE SMOOTH",
"369 -36 OFFCURVE",
"460 -5 OFFCURVE",
"580 7 CURVE",
"776 204 LINE",
"919 202 OFFCURVE",
"1082 0 OFFCURVE",
"1207 0 CURVE",
"1257 133 OFFCURVE",
"1257 267 OFFCURVE",
"1207 400 CURVE",
"938 400 OFFCURVE",
"672 396 OFFCURVE",
"535 352 CURVE SMOOTH",
"296 275 OFFCURVE",
"50 104 OFFCURVE",
"50 -196 CURVE SMOOTH",
"50 -651 OFFCURVE",
"615 -860 OFFCURVE",
"1145 -636 CURVE",
"1125 -460 OFFCURVE",
"1084 -332 OFFCURVE",
"1024 -223 CURVE"
);
},
{
closed = 1;
nodes = (
"1207 400 LINE",
"425 400 OFFCURVE",
"891 1113 OFFCURVE",
"255 900 CURVE",
"242 751 OFFCURVE",
"255 629 OFFCURVE",
"282 510 CURVE",
"578 629 OFFCURVE",
"425 0 OFFCURVE",
"1207 0 CURVE"
);
},
{
closed = 1;
nodes = (
"491 574 LINE",
"622 629 OFFCURVE",
"808 718 OFFCURVE",
"937 672 CURVE",
"875 516 OFFCURVE",
"724 405 OFFCURVE",
"653 380 CURVE",
"580 7 LINE",
"1071 406 OFFCURVE",
"1186 633 OFFCURVE",
"1186 787 CURVE SMOOTH",
"1186 1141 OFFCURVE",
"822 1159 OFFCURVE",
"255 900 CURVE"
);
}
);
width = 1207;
}
);
unicode = FECA;
},
{
color = 6;
glyphname = "ain-ar.medi";
lastChange = "2015-12-12 23:38:32 +0000";
layers = (
{
background = {
paths = (
{
closed = 1;
nodes = (
"453 186 LINE",
"410 186 OFFCURVE",
"373 198 OFFCURVE",
"351 231 CURVE",
"282 217 LINE",
"181 277 OFFCURVE",
"222 403 OFFCURVE",
"19 390 CURVE",
"13 320 OFFCURVE",
"19 303 OFFCURVE",
"31 247 CURVE",
"110 263 OFFCURVE",
"126 207 OFFCURVE",
"161 151 CURVE",
"232 101 LINE",
"246 101 OFFCURVE",
"262 92 OFFCURVE",
"278 79 CURVE SMOOTH",
"301 61 OFFCURVE",
"323 36 OFFCURVE",
"362 18 CURVE SMOOTH",
"393 4 OFFCURVE",
"424 0 OFFCURVE",
"462 0 CURVE"
);
},
{
closed = 1;
nodes = (
"380 186 LINE",
"415 232 OFFCURVE",
"438 279 OFFCURVE",
"453 323 CURVE",
"453 498 OFFCURVE",
"180 439 OFFCURVE",
"19 390 CURVE",
"129 268 LINE",
"175 288 OFFCURVE",
"311 316 OFFCURVE",
"321 288 CURVE SMOOTH",
"330 265 OFFCURVE",
"297 239 OFFCURVE",
"268 218 CURVE",
"268 219 OFFCURVE",
"235 216 OFFCURVE",
"226 230 CURVE",
"175 186 OFFCURVE",
"80 186 OFFCURVE",
"0 186 CURVE",
"-24 124 OFFCURVE",
"-24 62 OFFCURVE",
"0 0 CURVE",
"154 0 OFFCURVE",
"241 36 OFFCURVE",
"296 101 CURVE",
"248 124 LINE",
"462 0 LINE",
"485 62 OFFCURVE",
"485 124 OFFCURVE",
"462 186 CURVE"
);
},
{
closed = 1;
nodes = (
"224 85 LINE",
"303 85 LINE",
"303 121 LINE",
"224 121 LINE"
);
}
);
};
layerId = "5483B82D-F897-45AA-9987-2D1C58E320E8";
name = Bold;
paths = (
{
closed = 1;
nodes = (
"453 186 LINE",
"410 186 OFFCURVE",
"373 198 OFFCURVE",
"351 231 CURVE",
"282 217 LINE",
"181 277 OFFCURVE",
"222 403 OFFCURVE",
"19 390 CURVE",
"13 320 OFFCURVE",
"19 303 OFFCURVE",
"31 247 CURVE",
"110 263 OFFCURVE",
"126 207 OFFCURVE",
"161 151 CURVE",
"235 111 LINE",
"293 87 OFFCURVE",
"315 0 OFFCURVE",
"462 0 CURVE"
);
},
{
closed = 1;
nodes = (
"380 186 LINE",
"415 232 OFFCURVE",
"438 279 OFFCURVE",
"453 323 CURVE",
"453 498 OFFCURVE",
"180 439 OFFCURVE",
"19 390 CURVE",
"129 268 LINE",
"175 288 OFFCURVE",
"311 316 OFFCURVE",
"321 288 CURVE SMOOTH",
"330 265 OFFCURVE",
"297 239 OFFCURVE",
"268 218 CURVE",
"268 219 OFFCURVE",
"235 216 OFFCURVE",
"226 230 CURVE",
"175 186 OFFCURVE",
"80 186 OFFCURVE",
"0 186 CURVE",
"-24 124 OFFCURVE",
"-24 62 OFFCURVE",
"0 0 CURVE",
"154 0 OFFCURVE",
"241 36 OFFCURVE",
"303 101 CURVE",
"248 124 LINE",
"462 0 LINE",
"485 62 OFFCURVE",
"485 124 OFFCURVE",
"462 186 CURVE"
);
},
{
closed = 1;
nodes = (
"224 85 LINE",
"303 85 LINE",
"303 121 LINE",
"224 121 LINE"
);
}
);
width = 462;
},
{
associatedMasterId = "5483B82D-F897-45AA-9987-2D1C58E320E8";
background = {
paths = (
{
closed = 1;
nodes = (
"-50 267 OFFCURVE",
"-50 133 OFFCURVE",
"0 0 CURVE",
"992 0 LINE",
"1042 133 OFFCURVE",
"1042 267 OFFCURVE",
"992 400 CURVE",
"300 400 LINE",
"0 400 LINE"
);
},
{
closed = 1;
nodes = (
"921 399 LINE",
"266 399 OFFCURVE",
"677 1113 OFFCURVE",
"41 900 CURVE",
"28 751 OFFCURVE",
"41 629 OFFCURVE",
"68 510 CURVE",
"364 629 OFFCURVE",
"254 0 OFFCURVE",
"776 0 CURVE"
);
},
{
closed = 1;
nodes = (
"277 574 LINE",
"408 629 OFFCURVE",
"594 718 OFFCURVE",
"723 672 CURVE",
"661 516 OFFCURVE",
"510 405 OFFCURVE",
"439 380 CURVE",
"517 88 LINE",
"857 406 OFFCURVE",
"972 633 OFFCURVE",
"972 787 CURVE SMOOTH",
"972 1141 OFFCURVE",
"608 1159 OFFCURVE",
"41 900 CURVE"
);
}
);
};
layerId = "E0699E32-372D-4585-BCD3-DA22793EEC84";
name = "Regular Oct 8 15, 17:35";
paths = (
{
closed = 1;
nodes = (
"-50 267 OFFCURVE",
"-50 133 OFFCURVE",
"0 0 CURVE",
"132 0 LINE",
"497 167 LINE",
"776 0 LINE",
"992 0 LINE",
"1042 133 OFFCURVE",
"1042 267 OFFCURVE",
"992 400 CURVE",
"300 400 LINE",
"0 400 LINE"
);
},
{
closed = 1;
nodes = (
"921 399 LINE",
"266 399 OFFCURVE",
"677 1113 OFFCURVE",
"41 900 CURVE",
"28 751 OFFCURVE",
"41 629 OFFCURVE",
"68 510 CURVE",
"364 629 OFFCURVE",
"254 0 OFFCURVE",
"776 0 CURVE"
);
},
{
closed = 1;
nodes = (
"277 574 LINE",
"408 629 OFFCURVE",
"594 718 OFFCURVE",
"723 672 CURVE",
"661 516 OFFCURVE",
"510 405 OFFCURVE",
"439 380 CURVE",
"132 0 LINE",
"412 0 OFFCURVE",
"582 161 OFFCURVE",
"684 259 CURVE SMOOTH",
"892 459 OFFCURVE",
"972 684 OFFCURVE",
"972 787 CURVE SMOOTH",
"972 1141 OFFCURVE",
"608 1159 OFFCURVE",
"41 900 CURVE"
);
}
);
width = 992;
}
);
unicode = FECC;
},
{
color = 6;
glyphname = "ain-ar.init";
lastChange = "2015-12-12 17:36:19 +0000";
layers = (
{
background = {
paths = (
{
closed = 1;
nodes = (
"-24 124 OFFCURVE",
"-24 62 OFFCURVE",
"0 0 CURVE",
"79 0 OFFCURVE",
"144 19 OFFCURVE",
"209 45 CURVE",
"256 36 OFFCURVE",
"347 40 OFFCURVE",
"384 48 CURVE",
"397 94 OFFCURVE",
"414 178 OFFCURVE",
"416 219 CURVE",
"261 219 OFFCURVE",
"108 186 OFFCURVE",
"0 186 CURVE"
);
},
{
closed = 1;
nodes = (
"377 320 LINE",
"371 359 OFFCURVE",
"352 445 OFFCURVE",
"336 482 CURVE",
"273 482 OFFCURVE",
"45 420 OFFCURVE",
"45 249 CURVE SMOOTH",
"45 184 OFFCURVE",
"84 132 OFFCURVE",
"122 96 CURVE",
"330 167 LINE",
"289 192 OFFCURVE",
"179 241 OFFCURVE",
"179 283 CURVE SMOOTH",
"181 320 OFFCURVE",
"280 314 OFFCURVE",
"360 307 CURVE"
);
}
);
};
layerId = "5483B82D-F897-45AA-9987-2D1C58E320E8";
name = Bold;
paths = (
{
closed = 1;
nodes = (
"-24 124 OFFCURVE",
"-24 62 OFFCURVE",
"0 0 CURVE",
"79 0 OFFCURVE",
"144 19 OFFCURVE",
"209 45 CURVE",
"256 36 OFFCURVE",
"347 40 OFFCURVE",
"384 48 CURVE",
"397 94 OFFCURVE",
"414 178 OFFCURVE",
"416 219 CURVE",
"261 219 OFFCURVE",
"108 186 OFFCURVE",
"0 186 CURVE"
);
},
{
closed = 1;
nodes = (
"371 359 OFFCURVE",
"370 452 OFFCURVE",
"360 485 CURVE",
"261 485 OFFCURVE",
"45 420 OFFCURVE",
"45 249 CURVE SMOOTH",
"45 184 OFFCURVE",
"84 132 OFFCURVE",
"122 96 CURVE",
"330 167 LINE",
"289 192 OFFCURVE",
"179 241 OFFCURVE",
"179 283 CURVE SMOOTH",
"181 320 OFFCURVE",
"297 324 OFFCURVE",
"361 326 CURVE"
);
}
);
width = 456;
},
{
associatedMasterId = "5483B82D-F897-45AA-9987-2D1C58E320E8";
layerId = "F9620E0D-AC6C-403E-8AF7-17ABDD562553";
name = "Bold Dec 12 15, 17:35";
paths = (
{
closed = 1;
nodes = (
"-24 124 OFFCURVE",
"-24 62 OFFCURVE",
"0 0 CURVE",
"79 0 OFFCURVE",
"144 19 OFFCURVE",
"209 45 CURVE",
"256 36 OFFCURVE",
"347 40 OFFCURVE",
"384 48 CURVE",
"397 94 OFFCURVE",
"414 178 OFFCURVE",
"416 219 CURVE",
"261 219 OFFCURVE",
"108 186 OFFCURVE",
"0 186 CURVE"
);
},
{
closed = 1;
nodes = (
"377 320 LINE",
"371 359 OFFCURVE",
"352 445 OFFCURVE",
"336 482 CURVE",
"273 482 OFFCURVE",
"45 420 OFFCURVE",
"45 249 CURVE SMOOTH",
"45 184 OFFCURVE",
"84 132 OFFCURVE",
"122 96 CURVE",
"330 167 LINE",
"289 192 OFFCURVE",
"179 241 OFFCURVE",
"179 283 CURVE SMOOTH",
"181 320 OFFCURVE",
"280 314 OFFCURVE",
"360 307 CURVE"
);
}
);
width = 456;
}
);
unicode = FECB;
},
{
color = 1;
glyphname = "dotlessfeh-ar";
lastChange = "2015-12-12 17:40:16 +0000";
layers = (
{
layerId = "5483B82D-F897-45AA-9987-2D1C58E320E8";
name = Bold;
paths = (
{
closed = 1;
nodes = (
"736 177 OFFCURVE",
"690 387 OFFCURVE",
"552 387 CURVE SMOOTH",
"450 387 OFFCURVE",
"384 267 OFFCURVE",
"384 177 CURVE SMOOTH",
"384 124 OFFCURVE",
"412 81 OFFCURVE",
"458 64 CURVE",
"611 121 LINE",
"634 201 LINE",
"500 161 OFFCURVE",
"300 182 OFFCURVE",
"82 202 CURVE",
"61 143 OFFCURVE",
"48 83 OFFCURVE",
"40 20 CURVE",
"335 -27 OFFCURVE",
"551 -6 OFFCURVE",
"644 29 CURVE"
);
},
{
closed = 1;
nodes = (
"567 193 OFFCURVE",
"499 195 OFFCURVE",
"488 217 CURVE",
"501 239 OFFCURVE",
"573 232 OFFCURVE",
"602 203 CURVE"
);
}
);
width = 732;
}
);
unicode = 06A1;
},
{
color = 1;
glyphname = "dotlessfeh-ar.fina";
lastChange = "2015-12-12 17:41:21 +0000";
layers = (
{
layerId = "5483B82D-F897-45AA-9987-2D1C58E320E8";
name = Bold;
paths = (
{
closed = 1;
nodes = (
"502 64 OFFCURVE",
"695 62 OFFCURVE",
"695 62 CURVE",
"775 185 OFFCURVE",
"734 387 OFFCURVE",
"596 387 CURVE SMOOTH",
"494 387 OFFCURVE",
"428 267 OFFCURVE",
"428 177 CURVE SMOOTH",
"428 124 OFFCURVE",
"457 81 OFFCURVE",
"503 64 CURVE"
);
},
{
closed = 1;
nodes = (
"533 186 LINE",
"436 171 OFFCURVE",
"253 178 OFFCURVE",
"82 202 CURVE",
"61 143 OFFCURVE",
"47 83 OFFCURVE",
"40 20 CURVE",
"277 -23 OFFCURVE",
"637 -16 OFFCURVE",
"695 62 CURVE"
);
},
{
closed = 1;
nodes = (
"662 186 LINE",
"611 86 LINE",
"654 23 OFFCURVE",
"709 0 OFFCURVE",
"761 0 CURVE",
"784 62 OFFCURVE",
"784 124 OFFCURVE",
"761 186 CURVE"
);
},
{
closed = 1;
nodes = (
"611 193 OFFCURVE",
"543 195 OFFCURVE",
"533 217 CURVE",
"545 239 OFFCURVE",
"617 232 OFFCURVE",
"647 203 CURVE"
);
}
);
width = 761;
}
);
},
{
color = 1;
glyphname = "dotlessfeh-ar.medi";
lastChange = "2015-12-12 17:41:48 +0000";
layers = (
{
layerId = "5483B82D-F897-45AA-9987-2D1C58E320E8";
name = Bold;
paths = (
{
closed = 1;
nodes = (
"-24 124 OFFCURVE",
"-24 62 OFFCURVE",
"0 0 CURVE",
"133 0 OFFCURVE",
"223 7 OFFCURVE",
"276 42 CURVE SMOOTH",
"310 64 OFFCURVE",
"310 97 OFFCURVE",
"319 127 CURVE SMOOTH",
"351 251 OFFCURVE",
"299 387 OFFCURVE",
"188 387 CURVE SMOOTH",
"86 387 OFFCURVE",
"20 267 OFFCURVE",
"20 177 CURVE SMOOTH",
"20 124 OFFCURVE",
"49 81 OFFCURVE",
"95 64 CURVE",
"108 186 LINE",
"0 186 LINE"
);
},
{
closed = 1;
nodes = (
"260 186 LINE",
"209 86 LINE",
"252 23 OFFCURVE",
"307 0 OFFCURVE",
"359 0 CURVE",
"382 62 OFFCURVE",
"382 124 OFFCURVE",
"359 186 CURVE"
);
},
{
closed = 1;
nodes = (
"203 193 OFFCURVE",
"135 195 OFFCURVE",
"125 217 CURVE",
"137 239 OFFCURVE",
"209 232 OFFCURVE",
"239 203 CURVE"
);
}
);
width = 359;
}
);
},
{
color = 1;
glyphname = "dotlessfeh-ar.init";
lastChange = "2015-12-12 17:42:06 +0000";
layers = (
{
layerId = "5483B82D-F897-45AA-9987-2D1C58E320E8";
name = Bold;
paths = (
{
closed = 1;
nodes = (
"-24 124 OFFCURVE",
"-24 62 OFFCURVE",
"0 0 CURVE",
"133 0 OFFCURVE",
"224 8 OFFCURVE",
"280 29 CURVE",
"372 177 OFFCURVE",
"326 387 OFFCURVE",
"188 387 CURVE SMOOTH",
"86 387 OFFCURVE",
"20 267 OFFCURVE",
"20 177 CURVE SMOOTH",
"20 124 OFFCURVE",
"49 81 OFFCURVE",
"94 64 CURVE",
"116 187 LINE",
"79 186 OFFCURVE",
"39 186 OFFCURVE",
"0 186 CURVE"
);
},
{
closed = 1;
nodes = (
"203 193 OFFCURVE",
"135 195 OFFCURVE",
"125 217 CURVE",
"137 239 OFFCURVE",
"209 232 OFFCURVE",
"239 203 CURVE"
);
}
);
width = 368;
}
);
},
{
color = 6;
glyphname = "dotlessqaf-ar";
lastChange = "2015-12-12 17:47:49 +0000";
layers = (
{
layerId = "5483B82D-F897-45AA-9987-2D1C58E320E8";
name = Bold;
paths = (
{
closed = 1;
nodes = (
"678 -29 OFFCURVE",
"649 362 OFFCURVE",
"473 362 CURVE SMOOTH",
"380 362 OFFCURVE",
"303 268 OFFCURVE",
"301 145 CURVE SMOOTH",
"300 25 OFFCURVE",
"486 -33 OFFCURVE",
"606 40 CURVE",
"468 142 LINE",
"484 81 OFFCURVE",
"486 -33 OFFCURVE",
"473 -117 CURVE",
"570 -9 LINE",
"476 -26 OFFCURVE",
"395 -41 OFFCURVE",
"333 -41 CURVE SMOOTH",
"253 -41 OFFCURVE",
"206 -16 OFFCURVE",
"206 63 CURVE SMOOTH",
"206 104 OFFCURVE",
"219 156 OFFCURVE",
"242 221 CURVE",
"104 266 LINE",
"61 167 OFFCURVE",
"40 78 OFFCURVE",
"40 3 CURVE SMOOTH",
"40 -160 OFFCURVE",
"152 -225 OFFCURVE",
"308 -225 CURVE SMOOTH",
"386 -225 OFFCURVE",
"475 -210 OFFCURVE",
"566 -182 CURVE"
);
},
{
closed = 1;
nodes = (
"485 168 OFFCURVE",
"417 167 OFFCURVE",
"406 191 CURVE",
"418 212 OFFCURVE",
"490 206 OFFCURVE",
"520 178 CURVE"
);
}
);
width = 672;
}
);
unicode = 066F;
},
{
color = 6;
glyphname = "dotlessqaf-ar.fina";
lastChange = "2015-12-12 17:48:11 +0000";
layers = (
{
components = (
{
name = "dotlessqaf-ar";
}
);
layerId = "5483B82D-F897-45AA-9987-2D1C58E320E8";
name = Bold;
paths = (
{
closed = 1;
nodes = (
"591 8 LINE",
"626 0 OFFCURVE",
"629 0 OFFCURVE",
"672 0 CURVE",
"695 62 OFFCURVE",
"695 124 OFFCURVE",
"672 186 CURVE",
"625 186 OFFCURVE",
"601 186 OFFCURVE",
"564 193 CURVE"
);
}
);
width = 672;
}
);
},
{
color = 6;
glyphname = "qaf-ar";
lastChange = "2015-12-12 17:49:11 +0000";
layers = (
{
components = (
{
name = "dotlessqaf-ar";
},
{
name = "dot-two";
transform = "{1, 0, 0, 1, 267, 538}";
}
);
layerId = "5483B82D-F897-45AA-9987-2D1C58E320E8";
name = Bold;
width = 672;
},
{
associatedMasterId = "5483B82D-F897-45AA-9987-2D1C58E320E8";
background = {
paths = (
{
closed = 1;
nodes = (
"1038 354 OFFCURVE",
"931 359 OFFCURVE",
"888 400 CURVE",
"931 472 OFFCURVE",
"1038 427 OFFCURVE",
"1091 368 CURVE"
);
},
{
closed = 1;
nodes = (
"1333 443 OFFCURVE",
"1253 776 OFFCURVE",
"997 776 CURVE SMOOTH",
"760 776 OFFCURVE",
"636 492 OFFCURVE",
"636 326 CURVE SMOOTH",
"636 54 OFFCURVE",
"967 -19 OFFCURVE",
"1163 35 CURVE",
"1108 346 LINE",
"1038 142 OFFCURVE",
"856 -164 OFFCURVE",
"721 -329 CURVE",
"785 -402 OFFCURVE",
"946 -512 OFFCURVE",
"1045 -549 CURVE",
"1091 -475 OFFCURVE",
"1333 -58 OFFCURVE",
"1333 260 CURVE SMOOTH"
);
}
);
};
components = (
{
name = "dot-two";
transform = "{1, 0, 0, 1, 606, 1018}";
}
);
layerId = "11AFEED0-4F4A-4DC7-A0BD-6AE2CDDAB120";
name = "Regular Oct 8 15, 09:28";
paths = (
{
closed = 1;
nodes = (
"1445 -61 OFFCURVE",
"1383 776 OFFCURVE",
"1006 776 CURVE SMOOTH",
"806 776 OFFCURVE",
"719 538 OFFCURVE",
"719 387 CURVE SMOOTH",
"719 162 OFFCURVE",
"1051 110 OFFCURVE",
"1310 244 CURVE",
"974 393 LINE",
"1005 173 OFFCURVE",
"1034 -72 OFFCURVE",
"1005 -252 CURVE",
"1203 30 LINE",
"974 -48 OFFCURVE",
"802 -86 OFFCURVE",
"680 -86 CURVE SMOOTH",
"405 -86 OFFCURVE",
"379 106 OFFCURVE",
"510 475 CURVE",
"214 570 LINE",
"-76 -47 OFFCURVE",
"39 -483 OFFCURVE",
"658 -483 CURVE SMOOTH",
"806 -483 OFFCURVE",
"987 -456 OFFCURVE",
"1205 -391 CURVE"
);
},
{
closed = 1;
nodes = (
"1038 354 OFFCURVE",
"931 359 OFFCURVE",
"888 400 CURVE",
"931 472 OFFCURVE",
"1038 427 OFFCURVE",
"1091 368 CURVE"
);
}
);
width = 1397;
}
);
unicode = 0642;
},
{
color = 6;
glyphname = "kaf-ar";
lastChange = "2015-12-12 17:50:14 +0000";
layers = (
{
components = (
{
disableAlignment = 1;
name = "hamza-ar";
transform = "{0.741, -0.066, 0.066, 0.741, 178, 285}";
}
);
layerId = "5483B82D-F897-45AA-9987-2D1C58E320E8";
name = Bold;
paths = (
{
closed = 1;
nodes = (
"650 323 OFFCURVE",
"646 433 OFFCURVE",
"637 566 CURVE",
"476 557 LINE",
"490 417 OFFCURVE",
"504 281 OFFCURVE",
"508 169 CURVE",
"525 189 LINE",
"396 171 OFFCURVE",
"185 191 OFFCURVE",
"81 207 CURVE",
"60 148 OFFCURVE",
"47 87 OFFCURVE",
"40 25 CURVE",
"288 -27 OFFCURVE",
"517 -3 OFFCURVE",
"609 25 CURVE",
"643 85 OFFCURVE",
"653 157 OFFCURVE",
"650 225 CURVE SMOOTH"
);
}
);
width = 691;
}
);
unicode = 0643;
},
{
color = 6;
glyphname = "kaf-ar.fina";
lastChange = "2015-12-12 17:50:53 +0000";
layers = (
{
components = (
{
name = "kaf-ar";
}
);
layerId = "5483B82D-F897-45AA-9987-2D1C58E320E8";
name = Bold;
paths = (
{
closed = 1;
nodes = (
"598 186 LINE",
"547 86 LINE",
"590 23 OFFCURVE",
"645 0 OFFCURVE",
"697 0 CURVE",
"721 62 OFFCURVE",
"721 124 OFFCURVE",
"697 186 CURVE"
);
}
);
width = 697;
}
);
unicode = FEDA;
},
{
color = 6;
glyphname = "kaf-ar.medi";
lastChange = "2015-12-12 17:51:17 +0000";
layers = (
{
layerId = "5483B82D-F897-45AA-9987-2D1C58E320E8";
name = Bold;
paths = (
{
closed = 1;
nodes = (
"401 589 LINE",
"401 424 LINE",
"68 319 LINE",
"68 480 LINE",
"387 599 LINE"
);
},
{
closed = 1;
nodes = (
"303 0 OFFCURVE",
"198 203 OFFCURVE",
"68 319 CURVE",
"162 436 LINE",
"282 322 OFFCURVE",
"346 186 OFFCURVE",
"429 186 CURVE",
"452 124 OFFCURVE",
"452 62 OFFCURVE",
"429 0 CURVE"
);
},
{
closed = 1;
nodes = (
"-24 62 OFFCURVE",
"-24 124 OFFCURVE",
"0 186 CURVE",
"165 186 OFFCURVE",
"221 199 OFFCURVE",
"308 222 CURVE",
"325 207 OFFCURVE",
"337 169 OFFCURVE",
"332 145 CURVE",
"248 23 LINE",
"206 6 OFFCURVE",
"147 0 OFFCURVE",
"0 0 CURVE"
);
}
);
width = 429;
}
);
unicode = FEDC;
},
{
color = 6;
glyphname = "kaf-ar.init";
lastChange = "2015-12-12 17:51:42 +0000";
layers = (
{
associatedMasterId = "5483B82D-F897-45AA-9987-2D1C58E320E8";
layerId = "74E94FD3-26C2-4713-9D6A-23893F39FD79";
name = "Regular Oct 11 15, 22:19";
paths = (
{
closed = 1;
nodes = (
"143 832 LINE",
"369 656 OFFCURVE",
"514 400 OFFCURVE",
"514 159 CURVE",
"567 441 LINE",
"397 408 OFFCURVE",
"154 400 OFFCURVE",
"0 400 CURVE",
"-50 267 OFFCURVE",
"-50 133 OFFCURVE",
"0 0 CURVE",
"312 0 OFFCURVE",
"508 16 OFFCURVE",
"738 108 CURVE",
"780 226 OFFCURVE",
"814 499 OFFCURVE",
"550 886 CURVE",
"846 979 LINE",
"846 1333 LINE",
"815 1354 LINE",
"185 1100 LINE"
);
}
);
width = 896;
},
{
layerId = "5483B82D-F897-45AA-9987-2D1C58E320E8";
name = Bold;
paths = (
{
closed = 1;
nodes = (
"403 589 LINE",
"403 424 LINE",
"71 319 LINE",
"71 480 LINE",
"389 599 LINE"
);
},
{
closed = 1;
nodes = (
"-24 62 OFFCURVE",
"-24 124 OFFCURVE",
"0 186 CURVE",
"120 186 OFFCURVE",
"279 194 OFFCURVE",
"313 218 CURVE",
"269 59 LINE",
"248 147 OFFCURVE",
"167 257 OFFCURVE",
"71 319 CURVE",
"174 495 LINE",
"383 270 OFFCURVE",
"366 111 OFFCURVE",
"344 51 CURVE",
"237 8 OFFCURVE",
"145 0 OFFCURVE",
"0 0 CURVE"
);
}
);
width = 433;
}
);
unicode = FEDB;
},
{
color = 6;
glyphname = "keheh-ar";
lastChange = "2015-12-12 17:51:59 +0000";
layers = (
{
layerId = "5483B82D-F897-45AA-9987-2D1C58E320E8";
name = Bold;
paths = (
{
closed = 1;
nodes = (
"47 87 OFFCURVE",
"61 149 OFFCURVE",
"81 207 CURVE",
"238 184 OFFCURVE",
"473 166 OFFCURVE",
"585 201 CURVE",
"541 59 LINE",
"520 146 OFFCURVE",
"439 257 OFFCURVE",
"342 319 CURVE",
"445 495 LINE",
"656 270 OFFCURVE",
"638 110 OFFCURVE",
"610 25 CURVE",
"517 -3 OFFCURVE",
"288 -27 OFFCURVE",
"40 25 CURVE"
);
},
{
closed = 1;
nodes = (
"676 589 LINE",
"676 424 LINE",
"342 319 LINE",
"342 480 LINE",
"661 599 LINE"
);
}
);
width = 706;
}
);
unicode = 06A9;
},
{
color = 6;
glyphname = "keheh-ar.fina";
lastChange = "2015-12-12 17:52:15 +0000";
layers = (
{
layerId = "5483B82D-F897-45AA-9987-2D1C58E320E8";
name = Bold;
paths = (
{
closed = 1;
nodes = (
"47 80 OFFCURVE",
"60 141 OFFCURVE",
"81 199 CURVE",
"229 183 OFFCURVE",
"435 150 OFFCURVE",
"577 222 CURVE",
"594 207 OFFCURVE",
"607 169 OFFCURVE",
"602 145 CURVE",
"517 18 LINE",
"408 -20 OFFCURVE",
"184 -2 OFFCURVE",
"40 17 CURVE"
);
},
{
closed = 1;
nodes = (
"675 589 LINE",
"675 424 LINE",
"342 319 LINE",
"342 480 LINE",
"661 599 LINE"
);
},
{
closed = 1;
nodes = (
"574 0 OFFCURVE",
"471 203 OFFCURVE",
"342 319 CURVE",
"435 436 LINE",
"553 322 OFFCURVE",
"617 186 OFFCURVE",
"698 186 CURVE",
"722 124 OFFCURVE",
"722 62 OFFCURVE",
"698 0 CURVE"
);
}
);
width = 698;
}
);
unicode = FB8F;
},
{
color = 6;
glyphname = "gaf-ar";
lastChange = "2015-12-12 17:52:59 +0000";
layers = (
{
components = (
{
name = "keheh-ar";
}
);
layerId = "5483B82D-F897-45AA-9987-2D1C58E320E8";
name = Bold;
paths = (
{
closed = 1;
nodes = (
"619 708 LINE",
"619 635 LINE",
"365 538 LINE",
"365 625 LINE",
"604 718 LINE"
);
}
);
width = 706;
}
);
unicode = 06AF;
},
{
color = 6;
glyphname = "gaf-ar.fina";
lastChange = "2015-12-12 17:53:01 +0000";
layers = (
{
components = (
{
name = "keheh-ar.fina";
}
);
layerId = "5483B82D-F897-45AA-9987-2D1C58E320E8";
name = Bold;
paths = (
{
closed = 1;
nodes = (
"619 708 LINE",
"619 635 LINE",
"365 538 LINE",
"365 625 LINE",
"604 718 LINE"
);
}
);
width = 698;
}
);
unicode = FB93;
},
{
color = 6;
glyphname = "gaf-ar.medi";
lastChange = "2015-12-12 17:53:12 +0000";
layers = (
{
components = (
{
name = "keheh-ar.medi";
}
);
layerId = "5483B82D-F897-45AA-9987-2D1C58E320E8";
name = Bold;
paths = (
{
closed = 1;
nodes = (
"349 708 LINE",
"349 635 LINE",
"95 538 LINE",
"95 625 LINE",
"334 718 LINE"
);
}
);
width = 429;
}
);
unicode = FB95;
},
{
color = 6;
glyphname = "gaf-ar.init";
lastChange = "2015-12-12 17:53:23 +0000";
layers = (
{
components = (
{
name = "keheh-ar.init";
}
);
layerId = "5483B82D-F897-45AA-9987-2D1C58E320E8";
name = Bold;
paths = (
{
closed = 1;
nodes = (
"349 708 LINE",
"349 635 LINE",
"95 538 LINE",
"95 625 LINE",
"334 718 LINE"
);
}
);
width = 433;
}
);
unicode = FB94;
},
{
color = 6;
glyphname = "lam-ar";
lastChange = "2015-12-12 17:54:02 +0000";
layers = (
{
layerId = "5483B82D-F897-45AA-9987-2D1C58E320E8";
name = Bold;
paths = (
{
closed = 1;
nodes = (
"387 557 LINE",
"404 389 OFFCURVE",
"421 139 OFFCURVE",
"420 8 CURVE",
"439 23 LINE",
"398 12 OFFCURVE",
"359 7 OFFCURVE",
"324 7 CURVE SMOOTH",
"181 7 OFFCURVE",
"184 106 OFFCURVE",
"240 268 CURVE",
"102 313 LINE",
"61 210 OFFCURVE",
"40 119 OFFCURVE",
"40 44 CURVE SMOOTH",
"40 -115 OFFCURVE",
"150 -178 OFFCURVE",
"309 -178 CURVE SMOOTH",
"370 -178 OFFCURVE",
"438 -169 OFFCURVE",
"509 -152 CURVE",
"553 -83 OFFCURVE",
"572 0 OFFCURVE",
"572 91 CURVE SMOOTH",
"572 129 OFFCURVE",
"557 464 OFFCURVE",
"548 566 CURVE"
);
}
);
width = 612;
}
);
unicode = 0644;
},
{
color = 6;
glyphname = "lam-ar.fina";
lastChange = "2015-12-12 17:56:22 +0000";
layers = (
{
components = (
{
name = "lam-ar";
}
);
layerId = "5483B82D-F897-45AA-9987-2D1C58E320E8";
name = Bold;
paths = (
{
closed = 1;
nodes = (
"599 186 OFFCURVE",
"568 191 OFFCURVE",
"552 202 CURVE",
"484 78 LINE",
"502 48 OFFCURVE",
"553 0 OFFCURVE",
"624 0 CURVE",
"647 62 OFFCURVE",
"647 124 OFFCURVE",
"624 186 CURVE"
);
}
);
width = 624;
}
);
unicode = FEDE;
},
{
color = 6;
glyphname = "lam-ar.medi";
lastChange = "2015-12-12 17:55:24 +0000";
layers = (
{
layerId = "5483B82D-F897-45AA-9987-2D1C58E320E8";
name = Bold;
paths = (
{
closed = 1;
nodes = (
"80 557 LINE",
"98 380 OFFCURVE",
"116 210 OFFCURVE",
"113 86 CURVE",
"220 120 LINE",
"258 137 OFFCURVE",
"256 178 OFFCURVE",
"256 206 CURVE SMOOTH",
"255 309 OFFCURVE",
"251 425 OFFCURVE",
"242 566 CURVE"
);
},
{
closed = 1;
nodes = (
"146 189 OFFCURVE",
"75 186 OFFCURVE",
"0 186 CURVE",
"-24 124 OFFCURVE",
"-24 62 OFFCURVE",
"0 0 CURVE",
"94 0 OFFCURVE",
"154 30 OFFCURVE",
"200 73 CURVE",
"190 201 LINE"
);
},
{
closed = 1;
nodes = (
"181 186 LINE",
"136 86 LINE",
"154 36 OFFCURVE",
"233 0 OFFCURVE",
"317 0 CURVE",
"341 62 OFFCURVE",
"341 124 OFFCURVE",
"317 186 CURVE"
);
}
);
width = 317;
}
);
unicode = FEE0;
},
{
color = 6;
glyphname = "lam-ar.init";
lastChange = "2015-12-12 17:55:46 +0000";
layers = (
{
layerId = "5483B82D-F897-45AA-9987-2D1C58E320E8";
name = Bold;
paths = (
{
closed = 1;
nodes = (
"80 557 LINE",
"94 418 OFFCURVE",
"108 283 OFFCURVE",
"112 172 CURVE",
"130 192 LINE",
"91 187 OFFCURVE",
"47 186 OFFCURVE",
"0 186 CURVE",
"-24 124 OFFCURVE",
"-24 62 OFFCURVE",
"0 0 CURVE",
"94 2 OFFCURVE",
"170 11 OFFCURVE",
"214 25 CURVE",
"247 84 OFFCURVE",
"255 152 OFFCURVE",
"255 223 CURVE SMOOTH",
"255 322 OFFCURVE",
"249 432 OFFCURVE",
"241 566 CURVE"
);
}
);
width = 295;
}
);
unicode = FEDF;
},
{
color = 6;
glyphname = "meem-ar";
lastChange = "2015-12-12 17:56:47 +0000";
layers = (
{
layerId = "5483B82D-F897-45AA-9987-2D1C58E320E8";
name = Bold;
paths = (
{
closed = 1;
nodes = (
"53 104 OFFCURVE",
"98 172 OFFCURVE",
"138 184 CURVE",
"181 182 OFFCURVE",
"222 180 OFFCURVE",
"259 180 CURVE",
"308 167 OFFCURVE",
"414 173 OFFCURVE",
"414 191 CURVE SMOOTH",
"414 203 OFFCURVE",
"403 212 OFFCURVE",
"374 212 CURVE SMOOTH",
"323 212 OFFCURVE",
"278 191 OFFCURVE",
"278 152 CURVE",
"187 151 LINE",
"153 220 OFFCURVE",
"205 380 OFFCURVE",
"358 380 CURVE SMOOTH",
"461 380 OFFCURVE",
"510 294 OFFCURVE",
"510 173 CURVE SMOOTH",
"510 102 OFFCURVE",
"494 59 OFFCURVE",
"456 33 CURVE SMOOTH",
"404 -3 OFFCURVE",
"310 -8 OFFCURVE",
"146 4 CURVE",
"196 104 LINE",
"187 -23 OFFCURVE",
"207 -177 OFFCURVE",
"229 -262 CURVE",
"198 -279 OFFCURVE",
"125 -289 OFFCURVE",
"71 -289 CURVE",
"66 -285 LINE",
"44 -183 OFFCURVE",
"34 -50 OFFCURVE",
"44 61 CURVE"
);
}
);
width = 550;
}
);
unicode = 0645;
},
{
color = 6;
glyphname = "meem-ar.fina";
lastChange = "2015-12-12 17:57:43 +0000";
layers = (
{
components = (
{
name = "meem-ar";
}
);
layerId = "5483B82D-F897-45AA-9987-2D1C58E320E8";
name = Bold;
paths = (
{
closed = 1;
nodes = (
"602 124 OFFCURVE",
"602 62 OFFCURVE",
"579 0 CURVE",
"481 0 OFFCURVE",
"430 73 OFFCURVE",
"406 124 CURVE",
"497 270 LINE",
"514 209 OFFCURVE",
"534 186 OFFCURVE",
"579 186 CURVE"
);
}
);
width = 579;
},
{
associatedMasterId = "5483B82D-F897-45AA-9987-2D1C58E320E8";
layerId = "4213D0F4-B22A-4E8C-94E3-18C5DDDDAD07";
name = "Bold Nov 6 15, 13:42";
paths = (
{
closed = 1;
nodes = (
"1307 267 OFFCURVE",
"1307 133 OFFCURVE",
"1257 0 CURVE",
"1047 0 OFFCURVE",
"937 157 OFFCURVE",
"886 266 CURVE",
"1081 577 LINE",
"1119 443 OFFCURVE",
"1161 400 OFFCURVE",
"1257 400 CURVE"
);
},
{
closed = 1;
nodes = (
"99 223 OFFCURVE",
"195 369 OFFCURVE",
"280 394 CURVE",
"582 381 OFFCURVE",
"849 383 OFFCURVE",
"901 417 CURVE",
"873 442 OFFCURVE",
"797 464 OFFCURVE",
"721 464 CURVE SMOOTH",
"599 464 OFFCURVE",
"580 403 OFFCURVE",
"580 326 CURVE",
"387 323 LINE",
"312 481 OFFCURVE",
"424 845 OFFCURVE",
"753 845 CURVE SMOOTH",
"994 845 OFFCURVE",
"1107 649 OFFCURVE",
"1107 367 CURVE SMOOTH",
"1107 215 OFFCURVE",
"1071 126 OFFCURVE",
"991 73 CURVE SMOOTH",
"875 -11 OFFCURVE",
"656 -16 OFFCURVE",
"297 9 CURVE",
"405 223 LINE",
"386 -48 OFFCURVE",
"430 -379 OFFCURVE",
"476 -561 CURVE",
"411 -597 OFFCURVE",
"253 -619 OFFCURVE",
"136 -620 CURVE",
"126 -610 LINE",
"80 -392 OFFCURVE",
"57 -107 OFFCURVE",
"80 132 CURVE"
);
}
);
width = 1257;
}
);
unicode = FEE2;
},
{
color = 6;
glyphname = "meem-ar.medi";
lastChange = "2015-12-12 17:58:54 +0000";
layers = (
{
components = (
{
name = "meem-ar.init";
}
);
layerId = "5483B82D-F897-45AA-9987-2D1C58E320E8";
name = Bold;
paths = (
{
closed = 1;
nodes = (
"486 186 OFFCURVE",
"473 217 OFFCURVE",
"458 265 CURVE",
"382 176 LINE",
"382 84 OFFCURVE",
"430 0 OFFCURVE",
"532 0 CURVE",
"555 62 OFFCURVE",
"555 124 OFFCURVE",
"532 186 CURVE"
);
}
);
width = 532;
}
);
unicode = FEE4;
},
{
color = 6;
glyphname = "meem-ar.init";
lastChange = "2015-12-12 17:58:00 +0000";
layers = (
{
layerId = "5483B82D-F897-45AA-9987-2D1C58E320E8";
name = Bold;
paths = (
{
closed = 1;
nodes = (
"187 378 OFFCURVE",
"180 186 OFFCURVE",
"0 186 CURVE",
"-24 124 OFFCURVE",
"-24 62 OFFCURVE",
"0 0 CURVE",
"73 0 OFFCURVE",
"133 27 OFFCURVE",
"176 74 CURVE",
"224 30 OFFCURVE",
"286 -6 OFFCURVE",
"342 -6 CURVE SMOOTH",
"426 -6 OFFCURVE",
"471 78 OFFCURVE",
"471 178 CURVE SMOOTH",
"471 294 OFFCURVE",
"411 378 OFFCURVE",
"322 378 CURVE SMOOTH"
);
},
{
closed = 1;
nodes = (
"291 210 OFFCURVE",
"382 204 OFFCURVE",
"377 176 CURVE SMOOTH",
"375 158 OFFCURVE",
"304 160 OFFCURVE",
"248 191 CURVE"
);
}
);
width = 511;
},
{
associatedMasterId = "5483B82D-F897-45AA-9987-2D1C58E320E8";
background = {
paths = (
{
closed = 1;
nodes = (
"315 884 OFFCURVE",
"342 400 OFFCURVE",
"0 400 CURVE",
"-50 267 OFFCURVE",
"-50 133 OFFCURVE",
"0 0 CURVE",
"199 0 OFFCURVE",
"347 99 OFFCURVE",
"406 200 CURVE",
"289 260 LINE",
"368 162 OFFCURVE",
"593 -15 OFFCURVE",
"751 -15 CURVE SMOOTH",
"913 -15 OFFCURVE",
"995 170 OFFCURVE",
"995 373 CURVE SMOOTH",
"995 616 OFFCURVE",
"877 884 OFFCURVE",
"637 884 CURVE SMOOTH"
);
},
{
closed = 1;
nodes = (
"573 553 OFFCURVE",
"805 460 OFFCURVE",
"795 399 CURVE",
"720 362 OFFCURVE",
"539 414 OFFCURVE",
"521 469 CURVE"
);
}
);
};
layerId = "46B7EAFB-5BDB-49A8-8C4C-41313BA08B85";
name = "Regular Oct 12 15, 20:41";
paths = (
{
closed = 1;
nodes = (
"573 553 OFFCURVE",
"805 460 OFFCURVE",
"795 399 CURVE",
"720 362 OFFCURVE",
"539 414 OFFCURVE",
"521 469 CURVE"
);
},
{
closed = 1;
nodes = (
"315 884 OFFCURVE",
"342 400 OFFCURVE",
"0 400 CURVE",
"-50 267 OFFCURVE",
"-50 133 OFFCURVE",
"0 0 CURVE",
"199 0 OFFCURVE",
"347 99 OFFCURVE",
"406 200 CURVE",
"289 260 LINE",
"378 82 OFFCURVE",
"593 -15 OFFCURVE",
"751 -15 CURVE SMOOTH",
"913 -15 OFFCURVE",
"995 170 OFFCURVE",
"995 373 CURVE SMOOTH",
"995 616 OFFCURVE",
"877 884 OFFCURVE",
"637 884 CURVE SMOOTH"
);
}
);
width = 1045;
},
{
associatedMasterId = "5483B82D-F897-45AA-9987-2D1C58E320E8";
background = {
paths = (
{
closed = 1;
nodes = (
"573 553 OFFCURVE",
"805 460 OFFCURVE",
"795 399 CURVE",
"720 362 OFFCURVE",
"539 414 OFFCURVE",
"521 469 CURVE"
);
},
{
closed = 1;
nodes = (
"315 884 OFFCURVE",
"342 400 OFFCURVE",
"0 400 CURVE",
"-50 267 OFFCURVE",
"-50 133 OFFCURVE",
"0 0 CURVE",
"199 0 OFFCURVE",
"347 99 OFFCURVE",
"406 200 CURVE",
"289 260 LINE",
"378 82 OFFCURVE",
"593 -15 OFFCURVE",
"751 -15 CURVE SMOOTH",
"913 -15 OFFCURVE",
"995 170 OFFCURVE",
"995 373 CURVE SMOOTH",
"995 616 OFFCURVE",
"877 884 OFFCURVE",
"637 884 CURVE SMOOTH"
);
}
);
};
layerId = "4AB0620F-BCEE-4A74-ABB7-401332A16165";
name = "Regular Oct 13 15, 09:22";
paths = (
{
closed = 1;
nodes = (
"630 524 OFFCURVE",
"871 460 OFFCURVE",
"898 412 CURVE",
"816 369 OFFCURVE",
"566 402 OFFCURVE",
"539 456 CURVE"
);
},
{
closed = 1;
nodes = (
"370 884 OFFCURVE",
"340 400 OFFCURVE",
"0 400 CURVE",
"-50 267 OFFCURVE",
"-50 133 OFFCURVE",
"0 0 CURVE",
"199 0 OFFCURVE",
"396 102 OFFCURVE",
"486 332 CURVE",
"361 238 LINE",
"433 205 LINE",
"456 145 OFFCURVE",
"481 84 OFFCURVE",
"513 18 CURVE",
"880 -63 OFFCURVE",
"1097 10 OFFCURVE",
"1097 345 CURVE SMOOTH",
"1097 587 OFFCURVE",
"977 884 OFFCURVE",
"682 884 CURVE SMOOTH"
);
}
);
width = 1147;
}
);
unicode = FEE3;
},
{
color = 6;
glyphname = "noonghunna-ar";
lastChange = "2015-12-12 17:59:17 +0000";
layers = (
{
layerId = "5483B82D-F897-45AA-9987-2D1C58E320E8";
name = Bold;
paths = (
{
closed = 1;
nodes = (
"451 186 OFFCURVE",
"467 83 OFFCURVE",
"467 -87 CURVE",
"564 61 LINE",
"484 23 OFFCURVE",
"370 7 OFFCURVE",
"321 7 CURVE SMOOTH",
"240 7 OFFCURVE",
"204 42 OFFCURVE",
"204 109 CURVE SMOOTH",
"204 150 OFFCURVE",
"218 204 OFFCURVE",
"241 268 CURVE",
"103 313 LINE",
"62 211 OFFCURVE",
"40 122 OFFCURVE",
"40 49 CURVE SMOOTH",
"40 -94 OFFCURVE",
"124 -178 OFFCURVE",
"317 -178 CURVE SMOOTH",
"385 -178 OFFCURVE",
"468 -165 OFFCURVE",
"565 -136 CURVE",
"644 -26 OFFCURVE",
"643 143 OFFCURVE",
"599 329 CURVE",
"437 295 LINE"
);
}
);
width = 669;
}
);
unicode = 06BA;
},
{
color = 6;
glyphname = "noonghunna-ar.fina";
lastChange = "2015-12-12 17:59:35 +0000";
layers = (
{
layerId = "5483B82D-F897-45AA-9987-2D1C58E320E8";
name = Bold;
paths = (
{
closed = 1;
nodes = (
"414 216 LINE",
"456 99 OFFCURVE",
"492 -75 OFFCURVE",
"466 -204 CURVE",
"565 -12 LINE",
"462 -45 OFFCURVE",
"380 -64 OFFCURVE",
"321 -64 CURVE SMOOTH",
"244 -64 OFFCURVE",
"205 -31 OFFCURVE",
"205 40 CURVE SMOOTH",
"205 80 OFFCURVE",
"217 132 OFFCURVE",
"242 198 CURVE",
"103 243 LINE",
"62 143 OFFCURVE",
"40 54 OFFCURVE",
"40 -20 CURVE SMOOTH",
"40 -161 OFFCURVE",
"126 -248 OFFCURVE",
"317 -248 CURVE SMOOTH",
"386 -248 OFFCURVE",
"468 -235 OFFCURVE",
"565 -206 CURVE",
"638 -107 OFFCURVE",
"636 51 OFFCURVE",
"621 146 CURVE",
"592 171 OFFCURVE",
"571 212 OFFCURVE",
"567 273 CURVE",
"559 277 LINE"
);
},
{
closed = 1;
nodes = (
"414 216 LINE",
"535 99 LINE",
"479 48 LINE",
"541 3 OFFCURVE",
"622 0 OFFCURVE",
"648 0 CURVE",
"671 62 OFFCURVE",
"671 124 OFFCURVE",
"648 186 CURVE",
"612 186 OFFCURVE",
"589 195 OFFCURVE",
"567 273 CURVE",
"559 277 LINE"
);
}
);
width = 648;
}
);
unicode = FB9F;
},
{
color = 6;
glyphname = "heh-ar";
lastChange = "2015-12-12 18:00:22 +0000";
layers = (
{
layerId = "5483B82D-F897-45AA-9987-2D1C58E320E8";
name = Bold;
paths = (
{
closed = 1;
nodes = (
"135 453 LINE",
"116 389 OFFCURVE",
"107 321 OFFCURVE",
"107 248 CURVE",
"165 241 OFFCURVE",
"298 210 OFFCURVE",
"351 147 CURVE",
"362 204 LINE",
"130 139 OFFCURVE",
"102 208 OFFCURVE",
"188 292 CURVE",
"133 349 LINE",
"91 295 OFFCURVE",
"40 206 OFFCURVE",
"40 122 CURVE SMOOTH",
"40 55 OFFCURVE",
"70 -7 OFFCURVE",
"194 -7 CURVE SMOOTH",
"276 -7 OFFCURVE",
"343 21 OFFCURVE",
"387 57 CURVE",
"402 92 OFFCURVE",
"408 148 OFFCURVE",
"408 180 CURVE SMOOTH",
"408 279 OFFCURVE",
"312 392 OFFCURVE",
"154 460 CURVE"
);
}
);
width = 448;
}
);
unicode = 0647;
},
{
color = 6;
glyphname = "heh-ar.fina";
lastChange = "2015-12-12 18:00:48 +0000";
layers = (
{
layerId = "5483B82D-F897-45AA-9987-2D1C58E320E8";
name = Bold;
paths = (
{
closed = 1;
nodes = (
"407 186 OFFCURVE",
"378 339 OFFCURVE",
"332 491 CURVE",
"316 491 LINE",
"279 459 OFFCURVE",
"238 417 OFFCURVE",
"210 382 CURVE",
"141 337 OFFCURVE",
"81 285 OFFCURVE",
"40 205 CURVE",
"40 111 OFFCURVE",
"111 13 OFFCURVE",
"274 31 CURVE",
"298 46 OFFCURVE",
"323 66 OFFCURVE",
"344 85 CURVE",
"386 33 OFFCURVE",
"438 0 OFFCURVE",
"503 0 CURVE",
"524 62 OFFCURVE",
"524 124 OFFCURVE",
"503 186 CURVE"
);
},
{
closed = 1;
nodes = (
"186 247 OFFCURVE",
"209 264 OFFCURVE",
"236 281 CURVE",
"243 258 OFFCURVE",
"252 236 OFFCURVE",
"260 213 CURVE",
"220 210 OFFCURVE",
"190 217 OFFCURVE",
"169 228 CURVE"
);
}
);
width = 503;
}
);
unicode = FEEA;
},
{
color = 6;
glyphname = "heh-ar.medi";
lastChange = "2015-12-12 18:01:18 +0000";
layers = (
{
associatedMasterId = "5483B82D-F897-45AA-9987-2D1C58E320E8";
layerId = "3FE80426-CF25-4F8E-8DE9-9E6C4F755126";
name = "Regular Oct 12 15, 17:51";
paths = (
{
closed = 1;
nodes = (
"533 419 LINE",
"447 147 OFFCURVE",
"333 -45 OFFCURVE",
"180 -269 CURVE",
"244 -342 OFFCURVE",
"405 -452 OFFCURVE",
"504 -489 CURVE",
"523 -463 OFFCURVE",
"683 -149 OFFCURVE",
"763 138 CURVE",
"556 62 LINE",
"669 14 OFFCURVE",
"848 0 OFFCURVE",
"881 0 CURVE",
"931 133 OFFCURVE",
"931 267 OFFCURVE",
"881 400 CURVE",
"873 400 OFFCURVE",
"693 400 OFFCURVE",
"552 430 CURVE"
);
},
{
closed = 1;
nodes = (
"0 0 LINE",
"89 0 OFFCURVE",
"121 11 OFFCURVE",
"180 11 CURVE SMOOTH",
"300 11 OFFCURVE",
"268 -135 OFFCURVE",
"180 -269 CURVE",
"376 -104 LINE",
"503 114 LINE",
"387 114 LINE",
"367 351 OFFCURVE",
"330 408 OFFCURVE",
"215 408 CURVE SMOOTH",
"152 408 OFFCURVE",
"103 400 OFFCURVE",
"0 400 CURVE"
);
}
);
width = 881;
},
{
associatedMasterId = "5483B82D-F897-45AA-9987-2D1C58E320E8";
background = {
paths = (
{
closed = 1;
nodes = (
"129 94 LINE",
"150 -445 OFFCURVE",
"285 -564 OFFCURVE",
"417 -598 CURVE SMOOTH",
"637 -655 OFFCURVE",
"852 -466 OFFCURVE",
"852 -243 CURVE SMOOTH",
"852 -80 OFFCURVE",
"694 100 OFFCURVE",
"534 132 CURVE",
"343 0 LINE",
"479 0 OFFCURVE",
"682 -112 OFFCURVE",
"693 -195 CURVE",
"356 -236 OFFCURVE",
"343 -8 OFFCURVE",
"300 94 CURVE"
);
}
);
};
layerId = "323024FA-E0A7-4FE0-86E0-15E07D043776";
name = "Bold Nov 9 15, 21:30";
paths = (
{
closed = 1;
nodes = (
"-20 267 OFFCURVE",
"-20 133 OFFCURVE",
"0 0 CURVE",
"881 0 LINE",
"901 133 OFFCURVE",
"901 267 OFFCURVE",
"881 400 CURVE",
"0 400 LINE"
);
},
{
closed = 1;
nodes = (
"546 318 LINE",
"975 515 OFFCURVE",
"920 946 OFFCURVE",
"568 946 CURVE SMOOTH",
"273 946 OFFCURVE",
"138 644 OFFCURVE",
"129 331 CURVE",
"345 327 LINE",
"345 415 OFFCURVE",
"381 560 OFFCURVE",
"506 560 CURVE SMOOTH",
"545 560 OFFCURVE",
"599 535 OFFCURVE",
"599 506 CURVE SMOOTH",
"599 472 OFFCURVE",
"434 411 OFFCURVE",
"266 374 CURVE"
);
},
{
closed = 1;
nodes = (
"129 94 LINE",
"149 -360 OFFCURVE",
"290 -462 OFFCURVE",
"417 -489 CURVE SMOOTH",
"657 -541 OFFCURVE",
"852 -331 OFFCURVE",
"852 -158 CURVE SMOOTH",
"852 -4 OFFCURVE",
"697 104 OFFCURVE",
"534 132 CURVE",
"343 0 LINE",
"471 0 OFFCURVE",
"697 -61 OFFCURVE",
"675 -120 CURVE SMOOTH",
"669 -136 OFFCURVE",
"649 -142 OFFCURVE",
"614 -142 CURVE SMOOTH",
"403 -142 OFFCURVE",
"310 77 OFFCURVE",
"300 94 CURVE"
);
}
);
width = 881;
},
{
associatedMasterId = "5483B82D-F897-45AA-9987-2D1C58E320E8";
layerId = "FD057B8D-C9D6-425C-9946-A6B3FECAA786";
name = "Bold Nov 13 15, 21:19";
paths = (
{
closed = 1;
nodes = (
"752 339 LINE",
"777 388 OFFCURVE",
"788 441 OFFCURVE",
"777 498 CURVE SMOOTH",
"752 628 OFFCURVE",
"595 855 OFFCURVE",
"399 855 CURVE SMOOTH",
"177 855 OFFCURVE",
"89 620 OFFCURVE",
"84 400 CURVE",
"0 400 LINE",
"-50 267 OFFCURVE",
"-50 133 OFFCURVE",
"0 0 CURVE",
"18 0 OFFCURVE",
"83 4 OFFCURVE",
"156 17 CURVE",
"240 -231 OFFCURVE",
"361 -467 OFFCURVE",
"377 -489 CURVE",
"476 -452 OFFCURVE",
"637 -342 OFFCURVE",
"701 -269 CURVE",
"641 -178 OFFCURVE",
"632 -103 OFFCURVE",
"660 -64 CURVE SMOOTH",
"715 14 OFFCURVE",
"988 0 OFFCURVE",
"1073 0 CURVE",
"1123 133 OFFCURVE",
"1123 267 OFFCURVE",
"1073 400 CURVE",
"996 400 LINE SMOOTH",
"906 400 OFFCURVE",
"826 378 OFFCURVE",
"757 334 CURVE"
);
},
{
closed = 1;
nodes = (
"540 406 OFFCURVE",
"296 393 OFFCURVE",
"296 405 CURVE SMOOTH",
"296 480 OFFCURVE",
"527 536 OFFCURVE",
"533 473 CURVE SMOOTH"
);
},
{
closed = 1;
nodes = (
"443 115 OFFCURVE",
"520 155 OFFCURVE",
"593 202 CURVE",
"598 197 LINE",
"550 131 OFFCURVE",
"488 47 OFFCURVE",
"455 -20 CURVE",
"431 12 OFFCURVE",
"406 47 OFFCURVE",
"380 86 CURVE"
);
}
);
width = 1073;
},
{
layerId = "5483B82D-F897-45AA-9987-2D1C58E320E8";
name = Bold;
paths = (
{
closed = 1;
nodes = (
"248 195 LINE",
"208 68 OFFCURVE",
"155 -21 OFFCURVE",
"84 -126 CURVE",
"113 -160 OFFCURVE",
"188 -211 OFFCURVE",
"234 -228 CURVE",
"243 -216 OFFCURVE",
"318 -70 OFFCURVE",
"355 64 CURVE",
"258 29 LINE",
"312 7 OFFCURVE",
"395 0 OFFCURVE",
"410 0 CURVE",
"434 62 OFFCURVE",
"434 124 OFFCURVE",
"410 186 CURVE",
"407 186 OFFCURVE",
"323 186 OFFCURVE",
"257 201 CURVE"
);
},
{
closed = 1;
nodes = (
"-24 124 OFFCURVE",
"-24 62 OFFCURVE",
"0 0 CURVE",
"45 0 OFFCURVE",
"122 0 OFFCURVE",
"168 14 CURVE",
"131 141 LINE",
"135 105 OFFCURVE",
"128 -27 OFFCURVE",
"84 -126 CURVE",
"174 -48 LINE",
"234 53 LINE",
"180 53 LINE",
"170 164 OFFCURVE",
"153 191 OFFCURVE",
"100 191 CURVE SMOOTH",
"71 191 OFFCURVE",
"47 186 OFFCURVE",
"0 186 CURVE"
);
}
);
width = 410;
}
);
leftMetricsKey = "-";
unicode = FEEC;
},
{
color = 6;
glyphname = "heh-ar.medi.alt";
lastChange = "2015-12-12 18:01:53 +0000";
layers = (
{
layerId = "5483B82D-F897-45AA-9987-2D1C58E320E8";
name = Bold;
paths = (
{
closed = 1;
nodes = (
"351 158 LINE",
"362 181 OFFCURVE",
"367 206 OFFCURVE",
"362 232 CURVE SMOOTH",
"351 293 OFFCURVE",
"277 399 OFFCURVE",
"186 399 CURVE SMOOTH",
"82 399 OFFCURVE",
"41 289 OFFCURVE",
"38 186 CURVE",
"0 186 LINE",
"-24 124 OFFCURVE",
"-24 62 OFFCURVE",
"0 0 CURVE",
"8 0 OFFCURVE",
"38 2 OFFCURVE",
"73 8 CURVE",
"112 -108 OFFCURVE",
"168 -218 OFFCURVE",
"176 -228 CURVE",
"222 -211 OFFCURVE",
"297 -160 OFFCURVE",
"327 -126 CURVE",
"299 -83 OFFCURVE",
"295 -48 OFFCURVE",
"308 -30 CURVE SMOOTH",
"333 7 OFFCURVE",
"461 0 OFFCURVE",
"500 0 CURVE",
"523 62 OFFCURVE",
"523 124 OFFCURVE",
"500 186 CURVE",
"464 186 LINE SMOOTH",
"422 186 OFFCURVE",
"385 176 OFFCURVE",
"353 156 CURVE"
);
},
{
closed = 1;
nodes = (
"252 189 OFFCURVE",
"137 183 OFFCURVE",
"137 189 CURVE SMOOTH",
"137 224 OFFCURVE",
"245 250 OFFCURVE",
"248 221 CURVE SMOOTH"
);
},
{
closed = 1;
nodes = (
"206 54 OFFCURVE",
"242 72 OFFCURVE",
"276 94 CURVE",
"279 92 LINE",
"256 61 OFFCURVE",
"227 22 OFFCURVE",
"212 -10 CURVE",
"200 5 OFFCURVE",
"189 22 OFFCURVE",
"177 40 CURVE"
);
}
);
width = 500;
},
{
associatedMasterId = "5483B82D-F897-45AA-9987-2D1C58E320E8";
layerId = "3FE80426-CF25-4F8E-8DE9-9E6C4F755126";
name = "Regular Oct 12 15, 17:51";
paths = (
{
closed = 1;
nodes = (
"533 419 LINE",
"447 147 OFFCURVE",
"333 -45 OFFCURVE",
"180 -269 CURVE",
"244 -342 OFFCURVE",
"405 -452 OFFCURVE",
"504 -489 CURVE",
"523 -463 OFFCURVE",
"683 -149 OFFCURVE",
"763 138 CURVE",
"556 62 LINE",
"669 14 OFFCURVE",
"848 0 OFFCURVE",
"881 0 CURVE",
"931 133 OFFCURVE",
"931 267 OFFCURVE",
"881 400 CURVE",
"873 400 OFFCURVE",
"693 400 OFFCURVE",
"552 430 CURVE"
);
},
{
closed = 1;
nodes = (
"0 0 LINE",
"89 0 OFFCURVE",
"121 11 OFFCURVE",
"180 11 CURVE SMOOTH",
"300 11 OFFCURVE",
"268 -135 OFFCURVE",
"180 -269 CURVE",
"376 -104 LINE",
"503 114 LINE",
"387 114 LINE",
"367 351 OFFCURVE",
"330 408 OFFCURVE",
"215 408 CURVE SMOOTH",
"152 408 OFFCURVE",
"103 400 OFFCURVE",
"0 400 CURVE"
);
}
);
width = 881;
},
{
associatedMasterId = "5483B82D-F897-45AA-9987-2D1C58E320E8";
layerId = "1B44D3F7-22F2-4216-A57D-9433FE424D66";
name = "Bold Nov 13 15, 21:23";
paths = (
{
closed = 1;
nodes = (
"0 400 LINE",
"-50 267 OFFCURVE",
"-50 133 OFFCURVE",
"0 0 CURVE",
"33 0 OFFCURVE",
"212 14 OFFCURVE",
"325 62 CURVE",
"118 138 LINE",
"198 -149 OFFCURVE",
"358 -463 OFFCURVE",
"377 -489 CURVE",
"476 -452 OFFCURVE",
"637 -342 OFFCURVE",
"701 -269 CURVE",
"522 -149 OFFCURVE",
"434 10 OFFCURVE",
"198 353 CURVE",
"198 400 LINE"
);
},
{
closed = 1;
nodes = (
"296 480 OFFCURVE",
"527 536 OFFCURVE",
"533 473 CURVE SMOOTH",
"540 406 OFFCURVE",
"296 393 OFFCURVE",
"296 405 CURVE"
);
},
{
closed = 1;
nodes = (
"93 258 OFFCURVE",
"214 89 OFFCURVE",
"325 62 CURVE",
"417 100 OFFCURVE",
"555 169 OFFCURVE",
"651 258 CURVE",
"678 242 LINE",
"753 302 OFFCURVE",
"796 399 OFFCURVE",
"777 498 CURVE SMOOTH",
"752 628 OFFCURVE",
"595 855 OFFCURVE",
"399 855 CURVE SMOOTH",
"171 855 OFFCURVE",
"84 607 OFFCURVE",
"84 382 CURVE SMOOTH",
"84 355 OFFCURVE",
"86 329 OFFCURVE",
"88 305 CURVE SMOOTH"
);
},
{
closed = 1;
nodes = (
"701 -269 LINE",
"641 -178 OFFCURVE",
"654 -75 OFFCURVE",
"750 -28 CURVE SMOOTH",
"832 12 OFFCURVE",
"988 0 OFFCURVE",
"1073 0 CURVE",
"1123 133 OFFCURVE",
"1123 267 OFFCURVE",
"1073 400 CURVE",
"996 400 LINE SMOOTH",
"864 400 OFFCURVE",
"755 353 OFFCURVE",
"667 258 CURVE",
"639 268 LINE",
"561 184 OFFCURVE",
"454 -6 OFFCURVE",
"425 -91 CURVE",
"374 -326 LINE"
);
},
{
closed = 1;
nodes = (
"620 167 LINE",
"784 293 LINE",
"709 371 LINE",
"538 245 LINE"
);
}
);
width = 1073;
}
);
},
{
color = 6;
glyphname = "heh-ar.init";
lastChange = "2015-12-12 18:02:21 +0000";
layers = (
{
layerId = "5483B82D-F897-45AA-9987-2D1C58E320E8";
name = Bold;
paths = (
{
closed = 1;
nodes = (
"305 421 OFFCURVE",
"152 448 OFFCURVE",
"125 445 CURVE",
"111 382 OFFCURVE",
"110 326 OFFCURVE",
"121 279 CURVE",
"95 244 OFFCURVE",
"80 214 OFFCURVE",
"73 187 CURVE",
"0 186 LINE",
"-23 124 OFFCURVE",
"-21 62 OFFCURVE",
"0 0 CURVE",
"59 0 OFFCURVE",
"123 8 OFFCURVE",
"180 29 CURVE",
"285 -8 OFFCURVE",
"378 -16 OFFCURVE",
"468 31 CURVE",
"518 98 OFFCURVE",
"545 160 OFFCURVE",
"545 215 CURVE SMOOTH",
"545 283 OFFCURVE",
"503 339 OFFCURVE",
"412 376 CURVE SMOOTH"
);
},
{
closed = 1;
nodes = (
"278 249 OFFCURVE",
"275 220 CURVE SMOOTH",
"273 198 OFFCURVE",
"235 189 OFFCURVE",
"213 194 CURVE SMOOTH",
"171 204 OFFCURVE",
"173 252 OFFCURVE",
"202 262 CURVE SMOOTH",
"231 273 OFFCURVE"
);
},
{
closed = 1;
nodes = (
"354 186 OFFCURVE",
"361 204 OFFCURVE",
"366 229 CURVE",
"421 217 OFFCURVE",
"464 197 OFFCURVE",
"464 186 CURVE SMOOTH",
"464 173 OFFCURVE",
"421 155 OFFCURVE",
"347 171 CURVE"
);
}
);
width = 586;
},
{
associatedMasterId = "5483B82D-F897-45AA-9987-2D1C58E320E8";
background = {
paths = (
{
closed = 1;
nodes = (
"346 1053 OFFCURVE",
"651 1004 OFFCURVE",
"904 903 CURVE SMOOTH",
"1085 831 OFFCURVE",
"1235 730 OFFCURVE",
"1262 605 CURVE SMOOTH",
"1294 459 OFFCURVE",
"1231 257 OFFCURVE",
"1092 72 CURVE",
"882 -37 OFFCURVE",
"570 -45 OFFCURVE",
"361 81 CURVE SMOOTH",
"339 94 OFFCURVE",
"344 85 OFFCURVE",
"324 97 CURVE SMOOTH",
"165 192 OFFCURVE",
"63 331 OFFCURVE",
"268 691 CURVE",
"590 747 LINE",
"365 704 OFFCURVE",
"372 477 OFFCURVE",
"488 412 CURVE SMOOTH",
"727 277 OFFCURVE",
"1092 353 OFFCURVE",
"1080 423 CURVE SMOOTH",
"1066 502 OFFCURVE",
"702 586 OFFCURVE",
"268 691 CURVE",
"236 806 OFFCURVE",
"225 926 OFFCURVE",
"279 1048 CURVE"
);
},
{
closed = 1;
nodes = (
"855 725 LINE",
"855 459 OFFCURVE",
"732 329 OFFCURVE",
"691 294 CURVE",
"557 70 OFFCURVE",
"258 0 OFFCURVE",
"0 0 CURVE",
"-47 133 OFFCURVE",
"-49 267 OFFCURVE",
"0 400 CURVE",
"60 400 OFFCURVE",
"152 403 OFFCURVE",
"258 413 CURVE SMOOTH",
"288 421 OFFCURVE",
"321 453 OFFCURVE",
"350 439 CURVE SMOOTH",
"432 398 OFFCURVE",
"692 507 OFFCURVE",
"787 730 CURVE"
);
}
);
};
layerId = "536DFF4D-A360-4F59-A754-652A9C66D8B6";
name = "Regular Oct 26 15, 19:53";
paths = (
{
closed = 1;
nodes = (
"346 1053 OFFCURVE",
"651 1004 OFFCURVE",
"904 903 CURVE SMOOTH",
"1085 831 OFFCURVE",
"1235 730 OFFCURVE",
"1262 605 CURVE SMOOTH",
"1294 459 OFFCURVE",
"1231 257 OFFCURVE",
"1092 72 CURVE",
"882 -37 OFFCURVE",
"570 -45 OFFCURVE",
"361 81 CURVE SMOOTH",
"339 94 OFFCURVE",
"344 85 OFFCURVE",
"324 97 CURVE SMOOTH",
"165 192 OFFCURVE",
"63 331 OFFCURVE",
"268 691 CURVE",
"590 747 LINE",
"365 704 OFFCURVE",
"372 477 OFFCURVE",
"488 412 CURVE SMOOTH",
"727 277 OFFCURVE",
"1092 353 OFFCURVE",
"1080 423 CURVE SMOOTH",
"1066 502 OFFCURVE",
"702 586 OFFCURVE",
"268 691 CURVE",
"236 806 OFFCURVE",
"225 926 OFFCURVE",
"279 1048 CURVE"
);
},
{
closed = 1;
nodes = (
"855 725 LINE",
"855 459 OFFCURVE",
"732 329 OFFCURVE",
"691 294 CURVE",
"557 70 OFFCURVE",
"258 0 OFFCURVE",
"0 0 CURVE",
"-47 133 OFFCURVE",
"-49 267 OFFCURVE",
"0 400 CURVE",
"60 400 OFFCURVE",
"152 403 OFFCURVE",
"258 413 CURVE SMOOTH",
"288 421 OFFCURVE",
"321 453 OFFCURVE",
"350 439 CURVE SMOOTH",
"432 398 OFFCURVE",
"692 507 OFFCURVE",
"787 730 CURVE"
);
}
);
width = 1315;
},
{
associatedMasterId = "5483B82D-F897-45AA-9987-2D1C58E320E8";
background = {
paths = (
{
closed = 1;
nodes = (
"326 960 OFFCURVE",
"653 902 OFFCURVE",
"884 807 CURVE SMOOTH",
"1235 663 OFFCURVE",
"1245 391 OFFCURVE",
"1002 68 CURVE",
"795 -41 OFFCURVE",
"585 -14 OFFCURVE",
"341 77 CURVE SMOOTH",
"320 85 OFFCURVE",
"322 84 OFFCURVE",
"304 92 CURVE SMOOTH",
"157 157 OFFCURVE",
"48 308 OFFCURVE",
"258 597 CURVE",
"404 827 LINE",
"506 604 LINE",
"387 571 OFFCURVE",
"320 483 OFFCURVE",
"469 411 CURVE SMOOTH",
"646 326 OFFCURVE",
"1011 349 OFFCURVE",
"958 419 CURVE SMOOTH",
"920 469 OFFCURVE",
"687 533 OFFCURVE",
"258 597 CURVE",
"226 712 OFFCURVE",
"215 832 OFFCURVE",
"269 954 CURVE"
);
},
{
closed = 1;
nodes = (
"810 723 LINE",
"810 457 OFFCURVE",
"732 329 OFFCURVE",
"691 294 CURVE",
"557 70 OFFCURVE",
"258 0 OFFCURVE",
"0 0 CURVE",
"-47 133 OFFCURVE",
"-49 267 OFFCURVE",
"0 400 CURVE",
"353 400 OFFCURVE",
"607 405 OFFCURVE",
"619 457 CURVE SMOOTH",
"627 488 OFFCURVE",
"513 583 OFFCURVE",
"258 597 CURVE"
);
}
);
};
layerId = "D3352DC3-93C1-4A45-A932-50B82C0948B0";
name = "Regular Nov 4 15, 16:39";
paths = (
{
closed = 1;
nodes = (
"326 960 OFFCURVE",
"653 902 OFFCURVE",
"884 807 CURVE SMOOTH",
"1235 663 OFFCURVE",
"1245 391 OFFCURVE",
"1002 68 CURVE",
"795 -41 OFFCURVE",
"585 -14 OFFCURVE",
"341 77 CURVE SMOOTH",
"320 85 OFFCURVE",
"322 84 OFFCURVE",
"304 92 CURVE SMOOTH",
"157 157 OFFCURVE",
"130 378 OFFCURVE",
"258 597 CURVE",
"404 827 LINE",
"487 654 LINE",
"413 573 OFFCURVE",
"343 410 OFFCURVE",
"458 389 CURVE SMOOTH",
"497 382 OFFCURVE",
"522 389 OFFCURVE",
"552 382 CURVE SMOOTH",
"577 375 OFFCURVE",
"604 370 OFFCURVE",
"631 366 CURVE SMOOTH",
"805 341 OFFCURVE",
"997 367 OFFCURVE",
"958 419 CURVE SMOOTH",
"920 469 OFFCURVE",
"687 533 OFFCURVE",
"258 597 CURVE",
"246 712 OFFCURVE",
"249 818 OFFCURVE",
"269 954 CURVE"
);
},
{
closed = 1;
nodes = (
"810 723 LINE",
"810 457 OFFCURVE",
"732 329 OFFCURVE",
"691 294 CURVE",
"557 70 OFFCURVE",
"258 0 OFFCURVE",
"0 0 CURVE",
"-47 133 OFFCURVE",
"-49 267 OFFCURVE",
"0 400 CURVE",
"353 400 OFFCURVE",
"607 405 OFFCURVE",
"619 457 CURVE SMOOTH",
"627 488 OFFCURVE",
"513 583 OFFCURVE",
"258 597 CURVE"
);
}
);
width = 1315;
},
{
associatedMasterId = "5483B82D-F897-45AA-9987-2D1C58E320E8";
background = {
paths = (
{
closed = 1;
nodes = (
"326 960 OFFCURVE",
"653 902 OFFCURVE",
"884 807 CURVE SMOOTH",
"1235 663 OFFCURVE",
"1245 391 OFFCURVE",
"1002 68 CURVE",
"795 -41 OFFCURVE",
"585 -14 OFFCURVE",
"341 77 CURVE SMOOTH",
"320 85 OFFCURVE",
"322 84 OFFCURVE",
"304 92 CURVE SMOOTH",
"157 157 OFFCURVE",
"48 308 OFFCURVE",
"258 597 CURVE",
"404 827 LINE",
"625 712 LINE",
"425 632 OFFCURVE",
"299 493 OFFCURVE",
"469 411 CURVE SMOOTH",
"646 325 OFFCURVE",
"1043 349 OFFCURVE",
"990 419 CURVE SMOOTH",
"952 469 OFFCURVE",
"687 533 OFFCURVE",
"258 597 CURVE",
"236 698 OFFCURVE",
"237 820 OFFCURVE",
"269 954 CURVE"
);
},
{
closed = 1;
nodes = (
"810 723 LINE",
"810 457 OFFCURVE",
"732 329 OFFCURVE",
"691 294 CURVE",
"557 70 OFFCURVE",
"258 0 OFFCURVE",
"0 0 CURVE",
"-47 133 OFFCURVE",
"-49 267 OFFCURVE",
"0 400 CURVE",
"258 401 LINE",
"288 409 OFFCURVE",
"327 464 OFFCURVE",
"350 439 CURVE SMOOTH",
"432 347 OFFCURVE",
"679 473 OFFCURVE",
"787 730 CURVE"
);
}
);
};
layerId = "43923B4F-E4F7-443C-9548-579509E9D1AF";
name = "Bold Nov 6 15, 13:35";
paths = (
{
closed = 1;
nodes = (
"459 618 LINE",
"374 547 OFFCURVE",
"345 447 OFFCURVE",
"469 411 CURVE SMOOTH",
"653 357 OFFCURVE",
"995 346 OFFCURVE",
"995 407 CURVE SMOOTH",
"995 442 OFFCURVE",
"524 557 OFFCURVE",
"258 597 CURVE",
"236 698 OFFCURVE",
"237 820 OFFCURVE",
"269 954 CURVE",
"326 960 OFFCURVE",
"653 902 OFFCURVE",
"884 807 CURVE SMOOTH",
"1235 663 OFFCURVE",
"1245 391 OFFCURVE",
"1002 68 CURVE",
"795 -41 OFFCURVE",
"585 -14 OFFCURVE",
"341 77 CURVE SMOOTH",
"320 85 OFFCURVE",
"322 84 OFFCURVE",
"304 92 CURVE SMOOTH",
"157 157 OFFCURVE",
"48 308 OFFCURVE",
"258 597 CURVE",
"308 676 LINE"
);
},
{
closed = 1;
nodes = (
"800 570 LINE",
"778 406 OFFCURVE",
"723 321 OFFCURVE",
"691 294 CURVE",
"557 70 OFFCURVE",
"258 0 OFFCURVE",
"0 0 CURVE",
"-47 133 OFFCURVE",
"-49 267 OFFCURVE",
"0 400 CURVE",
"258 401 LINE",
"294 401 OFFCURVE",
"262 409 OFFCURVE",
"425 409 CURVE SMOOTH",
"505 409 OFFCURVE",
"617 474 OFFCURVE",
"704 587 CURVE"
);
}
);
width = 1228;
}
);
unicode = FEEB;
},
{
color = 6;
glyphname = "heh-ar.init.alt";
lastChange = "2015-12-12 18:06:39 +0000";
layers = (
{
layerId = "5483B82D-F897-45AA-9987-2D1C58E320E8";
name = Bold;
paths = (
{
closed = 1;
nodes = (
"576 421 OFFCURVE",
"424 448 OFFCURVE",
"397 445 CURVE",
"382 383 OFFCURVE",
"382 326 OFFCURVE",
"392 279 CURVE",
"364 239 OFFCURVE",
"341 206 OFFCURVE",
"341 155 CURVE",
"431 200 LINE",
"302 143 OFFCURVE",
"148 127 OFFCURVE",
"54 140 CURVE",
"40 76 LINE",
"87 22 OFFCURVE",
"160 -42 OFFCURVE",
"276 -42 CURVE SMOOTH",
"335 -42 OFFCURVE",
"411 -13 OFFCURVE",
"513 50 CURVE",
"437 34 LINE",
"548 -7 OFFCURVE",
"645 -18 OFFCURVE",
"739 32 CURVE",
"790 99 OFFCURVE",
"817 161 OFFCURVE",
"817 216 CURVE SMOOTH",
"817 283 OFFCURVE",
"775 339 OFFCURVE",
"684 376 CURVE SMOOTH"
);
},
{
closed = 1;
nodes = (
"502 272 OFFCURVE",
"549 249 OFFCURVE",
"547 220 CURVE SMOOTH",
"544 198 OFFCURVE",
"506 189 OFFCURVE",
"485 194 CURVE SMOOTH",
"442 203 OFFCURVE",
"444 252 OFFCURVE",
"473 262 CURVE SMOOTH"
);
},
{
closed = 1;
nodes = (
"625 186 OFFCURVE",
"632 204 OFFCURVE",
"638 229 CURVE",
"693 217 OFFCURVE",
"736 197 OFFCURVE",
"736 186 CURVE SMOOTH",
"736 173 OFFCURVE",
"693 155 OFFCURVE",
"618 172 CURVE"
);
}
);
width = 857;
},
{
associatedMasterId = "5483B82D-F897-45AA-9987-2D1C58E320E8";
background = {
paths = (
{
closed = 1;
nodes = (
"346 1053 OFFCURVE",
"651 1004 OFFCURVE",
"904 903 CURVE SMOOTH",
"1085 831 OFFCURVE",
"1235 730 OFFCURVE",
"1262 605 CURVE SMOOTH",
"1294 459 OFFCURVE",
"1231 257 OFFCURVE",
"1092 72 CURVE",
"882 -37 OFFCURVE",
"570 -45 OFFCURVE",
"361 81 CURVE SMOOTH",
"339 94 OFFCURVE",
"344 85 OFFCURVE",
"324 97 CURVE SMOOTH",
"165 192 OFFCURVE",
"63 331 OFFCURVE",
"268 691 CURVE",
"590 747 LINE",
"365 704 OFFCURVE",
"372 477 OFFCURVE",
"488 412 CURVE SMOOTH",
"727 277 OFFCURVE",
"1092 353 OFFCURVE",
"1080 423 CURVE SMOOTH",
"1066 502 OFFCURVE",
"702 586 OFFCURVE",
"268 691 CURVE",
"236 806 OFFCURVE",
"225 926 OFFCURVE",
"279 1048 CURVE"
);
},
{
closed = 1;
nodes = (
"855 725 LINE",
"855 459 OFFCURVE",
"732 329 OFFCURVE",
"691 294 CURVE",
"557 70 OFFCURVE",
"258 0 OFFCURVE",
"0 0 CURVE",
"-47 133 OFFCURVE",
"-49 267 OFFCURVE",
"0 400 CURVE",
"60 400 OFFCURVE",
"152 403 OFFCURVE",
"258 413 CURVE SMOOTH",
"288 421 OFFCURVE",
"321 453 OFFCURVE",
"350 439 CURVE SMOOTH",
"432 398 OFFCURVE",
"692 507 OFFCURVE",
"787 730 CURVE"
);
}
);
};
layerId = "536DFF4D-A360-4F59-A754-652A9C66D8B6";
name = "Regular Oct 26 15, 19:53";
paths = (
{
closed = 1;
nodes = (
"346 1053 OFFCURVE",
"651 1004 OFFCURVE",
"904 903 CURVE SMOOTH",
"1085 831 OFFCURVE",
"1235 730 OFFCURVE",
"1262 605 CURVE SMOOTH",
"1294 459 OFFCURVE",
"1231 257 OFFCURVE",
"1092 72 CURVE",
"882 -37 OFFCURVE",
"570 -45 OFFCURVE",
"361 81 CURVE SMOOTH",
"339 94 OFFCURVE",
"344 85 OFFCURVE",
"324 97 CURVE SMOOTH",
"165 192 OFFCURVE",
"63 331 OFFCURVE",
"268 691 CURVE",
"590 747 LINE",
"365 704 OFFCURVE",
"372 477 OFFCURVE",
"488 412 CURVE SMOOTH",
"727 277 OFFCURVE",
"1092 353 OFFCURVE",
"1080 423 CURVE SMOOTH",
"1066 502 OFFCURVE",
"702 586 OFFCURVE",
"268 691 CURVE",
"236 806 OFFCURVE",
"225 926 OFFCURVE",
"279 1048 CURVE"
);
},
{
closed = 1;
nodes = (
"855 725 LINE",
"855 459 OFFCURVE",
"732 329 OFFCURVE",
"691 294 CURVE",
"557 70 OFFCURVE",
"258 0 OFFCURVE",
"0 0 CURVE",
"-47 133 OFFCURVE",
"-49 267 OFFCURVE",
"0 400 CURVE",
"60 400 OFFCURVE",
"152 403 OFFCURVE",
"258 413 CURVE SMOOTH",
"288 421 OFFCURVE",
"321 453 OFFCURVE",
"350 439 CURVE SMOOTH",
"432 398 OFFCURVE",
"692 507 OFFCURVE",
"787 730 CURVE"
);
}
);
width = 1315;
},
{
associatedMasterId = "5483B82D-F897-45AA-9987-2D1C58E320E8";
background = {
paths = (
{
closed = 1;
nodes = (
"326 960 OFFCURVE",
"653 902 OFFCURVE",
"884 807 CURVE SMOOTH",
"1235 663 OFFCURVE",
"1245 391 OFFCURVE",
"1002 68 CURVE",
"795 -41 OFFCURVE",
"585 -14 OFFCURVE",
"341 77 CURVE SMOOTH",
"320 85 OFFCURVE",
"322 84 OFFCURVE",
"304 92 CURVE SMOOTH",
"157 157 OFFCURVE",
"48 308 OFFCURVE",
"258 597 CURVE",
"404 827 LINE",
"506 604 LINE",
"387 571 OFFCURVE",
"320 483 OFFCURVE",
"469 411 CURVE SMOOTH",
"646 326 OFFCURVE",
"1011 349 OFFCURVE",
"958 419 CURVE SMOOTH",
"920 469 OFFCURVE",
"687 533 OFFCURVE",
"258 597 CURVE",
"226 712 OFFCURVE",
"215 832 OFFCURVE",
"269 954 CURVE"
);
},
{
closed = 1;
nodes = (
"810 723 LINE",
"810 457 OFFCURVE",
"732 329 OFFCURVE",
"691 294 CURVE",
"557 70 OFFCURVE",
"258 0 OFFCURVE",
"0 0 CURVE",
"-47 133 OFFCURVE",
"-49 267 OFFCURVE",
"0 400 CURVE",
"353 400 OFFCURVE",
"607 405 OFFCURVE",
"619 457 CURVE SMOOTH",
"627 488 OFFCURVE",
"513 583 OFFCURVE",
"258 597 CURVE"
);
}
);
};
layerId = "D3352DC3-93C1-4A45-A932-50B82C0948B0";
name = "Regular Nov 4 15, 16:39";
paths = (
{
closed = 1;
nodes = (
"326 960 OFFCURVE",
"653 902 OFFCURVE",
"884 807 CURVE SMOOTH",
"1235 663 OFFCURVE",
"1245 391 OFFCURVE",
"1002 68 CURVE",
"795 -41 OFFCURVE",
"585 -14 OFFCURVE",
"341 77 CURVE SMOOTH",
"320 85 OFFCURVE",
"322 84 OFFCURVE",
"304 92 CURVE SMOOTH",
"157 157 OFFCURVE",
"130 378 OFFCURVE",
"258 597 CURVE",
"404 827 LINE",
"487 654 LINE",
"413 573 OFFCURVE",
"343 410 OFFCURVE",
"458 389 CURVE SMOOTH",
"497 382 OFFCURVE",
"522 389 OFFCURVE",
"552 382 CURVE SMOOTH",
"577 375 OFFCURVE",
"604 370 OFFCURVE",
"631 366 CURVE SMOOTH",
"805 341 OFFCURVE",
"997 367 OFFCURVE",
"958 419 CURVE SMOOTH",
"920 469 OFFCURVE",
"687 533 OFFCURVE",
"258 597 CURVE",
"246 712 OFFCURVE",
"249 818 OFFCURVE",
"269 954 CURVE"
);
},
{
closed = 1;
nodes = (
"810 723 LINE",
"810 457 OFFCURVE",
"732 329 OFFCURVE",
"691 294 CURVE",
"557 70 OFFCURVE",
"258 0 OFFCURVE",
"0 0 CURVE",
"-47 133 OFFCURVE",
"-49 267 OFFCURVE",
"0 400 CURVE",
"353 400 OFFCURVE",
"607 405 OFFCURVE",
"619 457 CURVE SMOOTH",
"627 488 OFFCURVE",
"513 583 OFFCURVE",
"258 597 CURVE"
);
}
);
width = 1315;
},
{
associatedMasterId = "5483B82D-F897-45AA-9987-2D1C58E320E8";
background = {
paths = (
{
closed = 1;
nodes = (
"326 960 OFFCURVE",
"653 902 OFFCURVE",
"884 807 CURVE SMOOTH",
"1235 663 OFFCURVE",
"1245 391 OFFCURVE",
"1002 68 CURVE",
"795 -41 OFFCURVE",
"585 -14 OFFCURVE",
"341 77 CURVE SMOOTH",
"320 85 OFFCURVE",
"322 84 OFFCURVE",
"304 92 CURVE SMOOTH",
"157 157 OFFCURVE",
"48 308 OFFCURVE",
"258 597 CURVE",
"404 827 LINE",
"625 712 LINE",
"425 632 OFFCURVE",
"299 493 OFFCURVE",
"469 411 CURVE SMOOTH",
"646 325 OFFCURVE",
"1043 349 OFFCURVE",
"990 419 CURVE SMOOTH",
"952 469 OFFCURVE",
"687 533 OFFCURVE",
"258 597 CURVE",
"236 698 OFFCURVE",
"237 820 OFFCURVE",
"269 954 CURVE"
);
},
{
closed = 1;
nodes = (
"810 723 LINE",
"810 457 OFFCURVE",
"732 329 OFFCURVE",
"691 294 CURVE",
"557 70 OFFCURVE",
"258 0 OFFCURVE",
"0 0 CURVE",
"-47 133 OFFCURVE",
"-49 267 OFFCURVE",
"0 400 CURVE",
"258 401 LINE",
"288 409 OFFCURVE",
"327 464 OFFCURVE",
"350 439 CURVE SMOOTH",
"432 347 OFFCURVE",
"679 473 OFFCURVE",
"787 730 CURVE"
);
}
);
};
layerId = "43923B4F-E4F7-443C-9548-579509E9D1AF";
name = "Bold Nov 6 15, 13:35";
paths = (
{
closed = 1;
nodes = (
"459 618 LINE",
"374 547 OFFCURVE",
"345 447 OFFCURVE",
"469 411 CURVE SMOOTH",
"653 357 OFFCURVE",
"995 346 OFFCURVE",
"995 407 CURVE SMOOTH",
"995 442 OFFCURVE",
"524 557 OFFCURVE",
"258 597 CURVE",
"236 698 OFFCURVE",
"237 820 OFFCURVE",
"269 954 CURVE",
"326 960 OFFCURVE",
"653 902 OFFCURVE",
"884 807 CURVE SMOOTH",
"1235 663 OFFCURVE",
"1245 391 OFFCURVE",
"1002 68 CURVE",
"795 -41 OFFCURVE",
"585 -14 OFFCURVE",
"341 77 CURVE SMOOTH",
"320 85 OFFCURVE",
"322 84 OFFCURVE",
"304 92 CURVE SMOOTH",
"157 157 OFFCURVE",
"48 308 OFFCURVE",
"258 597 CURVE",
"308 676 LINE"
);
},
{
closed = 1;
nodes = (
"800 570 LINE",
"778 406 OFFCURVE",
"723 321 OFFCURVE",
"691 294 CURVE",
"557 70 OFFCURVE",
"258 0 OFFCURVE",
"0 0 CURVE",
"-47 133 OFFCURVE",
"-49 267 OFFCURVE",
"0 400 CURVE",
"258 401 LINE",
"294 401 OFFCURVE",
"262 409 OFFCURVE",
"425 409 CURVE SMOOTH",
"505 409 OFFCURVE",
"617 474 OFFCURVE",
"704 587 CURVE"
);
}
);
width = 1228;
}
);
},
{
color = 4;
glyphname = "hehgoal-ar.fina";
lastChange = "2015-12-12 18:02:58 +0000";
layers = (
{
layerId = "5483B82D-F897-45AA-9987-2D1C58E320E8";
name = Bold;
paths = (
{
closed = 1;
nodes = (
"351 291 OFFCURVE",
"255 291 CURVE SMOOTH",
"192 291 OFFCURVE",
"83 207 OFFCURVE",
"40 129 CURVE",
"57 87 OFFCURVE",
"74 42 OFFCURVE",
"105 3 CURVE",
"167 60 OFFCURVE",
"221 89 OFFCURVE",
"252 85 CURVE SMOOTH",
"326 78 OFFCURVE",
"366 0 OFFCURVE",
"476 0 CURVE",
"499 62 OFFCURVE",
"499 124 OFFCURVE",
"476 186 CURVE",
"367 186 OFFCURVE"
);
}
);
width = 476;
}
);
unicode = FBA7;
},
{
color = 4;
glyphname = "hehgoal-ar.init";
lastChange = "2015-12-13 12:42:16 +0000";
layers = (
{
layerId = "5483B82D-F897-45AA-9987-2D1C58E320E8";
name = Bold;
paths = (
{
closed = 1;
nodes = (
"137 -248 CURVE SMOOTH",
"134 -200 OFFCURVE",
"171 -130 OFFCURVE",
"207 -93 CURVE",
"245 -107 LINE",
"217 -171 OFFCURVE",
"206 -210 OFFCURVE",
"202 -257 CURVE",
"175 -213 LINE",
"209 -195 OFFCURVE",
"261 -210 OFFCURVE",
"273 -245 CURVE",
"273 -283 OFFCURVE",
"249 -314 OFFCURVE",
"207 -314 CURVE SMOOTH",
"162 -314 OFFCURVE",
"139 -280 OFFCURVE"
);
},
{
closed = 1;
nodes = (
"259 273 OFFCURVE",
"200 186 OFFCURVE",
"250 69 CURVE",
"275 120 LINE",
"184 150 OFFCURVE",
"177 207 OFFCURVE",
"134 207 CURVE SMOOTH",
"116 207 OFFCURVE",
"106 186 OFFCURVE",
"0 186 CURVE",
"-23 124 OFFCURVE",
"-23 62 OFFCURVE",
"0 0 CURVE",
"98 0 OFFCURVE",
"106 20 OFFCURVE",
"116 20 CURVE SMOOTH",
"124 20 OFFCURVE",
"136 4 OFFCURVE",
"156 -10 CURVE SMOOTH",
"273 -85 OFFCURVE",
"407 -18 OFFCURVE",
"407 125 CURVE SMOOTH",
"407 195 OFFCURVE",
"370 276 OFFCURVE",
"293 288 CURVE"
);
}
);
width = 447;
},
{
associatedMasterId = "5483B82D-F897-45AA-9987-2D1C58E320E8";
components = (
{
name = "dotlessbeh-ar.init";
}
);
layerId = "CB685A68-878C-4467-99C1-99AFC19525B4";
name = "Bold Nov 14 15, 22:21";
paths = (
{
closed = 1;
nodes = (
"128 -351 CURVE SMOOTH",
"128 -255 OFFCURVE",
"189 -174 OFFCURVE",
"276 -88 CURVE",
"391 -119 LINE",
"325 -197 OFFCURVE",
"275 -281 OFFCURVE",
"256 -371 CURVE",
"231 -253 LINE",
"385 -321 LINE",
"403 -424 OFFCURVE",
"355 -492 OFFCURVE",
"258 -492 CURVE SMOOTH",
"194 -492 OFFCURVE",
"128 -444 OFFCURVE"
);
}
);
width = 570;
}
);
unicode = FBA8;
},
{
color = 4;
glyphname = "hehDoachashmee-ar";
lastChange = "2015-12-13 16:00:23 +0000";
layers = (
{
background = {
paths = (
{
closed = 1;
nodes = (
"324 185 OFFCURVE",
"210 195 OFFCURVE",
"136 147 CURVE SMOOTH",
"86 115 OFFCURVE",
"54 56 OFFCURVE",
"40 -51 CURVE",
"55 -63 LINE",
"158 -26 OFFCURVE",
"292 8 OFFCURVE",
"478 29 CURVE",
"478 185 LINE"
);
},
{
closed = 1;
nodes = (
"522 195 OFFCURVE",
"383 188 OFFCURVE",
"287 186 CURVE SMOOTH",
"262 186 OFFCURVE",
"257 114 OFFCURVE",
"240 114 CURVE",
"220 52 OFFCURVE",
"208 62 OFFCURVE",
"223 0 CURVE",
"257 0 OFFCURVE",
"532 0 OFFCURVE",
"599 87 CURVE",
"627 141 OFFCURVE",
"638 188 OFFCURVE",
"638 228 CURVE SMOOTH",
"638 340 OFFCURVE",
"594 412 OFFCURVE",
"523 412 CURVE SMOOTH",
"448 412 OFFCURVE",
"343 334 OFFCURVE",
"224 142 CURVE",
"260 112 LINE",
"344 192 OFFCURVE",
"426 240 OFFCURVE",
"484 240 CURVE SMOOTH",
"521 240 OFFCURVE",
"548 220 OFFCURVE",
"558 174 CURVE",
"603 228 LINE"
);
},
{
closed = 1;
nodes = (
"470 94 LINE",
"523 73 OFFCURVE",
"544 51 OFFCURVE",
"544 32 CURVE SMOOTH",
"544 6 OFFCURVE",
"502 -13 OFFCURVE",
"449 -13 CURVE SMOOTH",
"403 -13 OFFCURVE",
"349 1 OFFCURVE",
"304 37 CURVE",
"255 32 LINE",
"324 -118 OFFCURVE",
"432 -176 OFFCURVE",
"522 -176 CURVE SMOOTH",
"608 -176 OFFCURVE",
"676 -123 OFFCURVE",
"676 -46 CURVE SMOOTH",
"676 6 OFFCURVE",
"646 68 OFFCURVE",
"569 133 CURVE"
);
}
);
};
layerId = "5483B82D-F897-45AA-9987-2D1C58E320E8";
name = Bold;
paths = (
{
closed = 1;
nodes = (
"324 185 OFFCURVE",
"210 195 OFFCURVE",
"136 147 CURVE SMOOTH",
"86 115 OFFCURVE",
"54 56 OFFCURVE",
"40 -51 CURVE",
"55 -63 LINE",
"130 -36 OFFCURVE",
"222 -11 OFFCURVE",
"338 9 CURVE SMOOTH",
"381 17 OFFCURVE",
"412 70 OFFCURVE",
"462 76 CURVE",
"478 185 LINE"
);
},
{
closed = 1;
nodes = (
"487 191 OFFCURVE",
"367 187 OFFCURVE",
"262 186 CURVE SMOOTH",
"234 186 OFFCURVE",
"242 113 OFFCURVE",
"218 113 CURVE",
"198 51 OFFCURVE",
"168 62 OFFCURVE",
"183 0 CURVE",
"257 0 OFFCURVE",
"532 0 OFFCURVE",
"599 87 CURVE",
"627 141 OFFCURVE",
"638 188 OFFCURVE",
"638 228 CURVE SMOOTH",
"638 314 OFFCURVE",
"579 403 OFFCURVE",
"502 403 CURVE SMOOTH",
"380 403 OFFCURVE",
"249 258 OFFCURVE",
"224 142 CURVE",
"272 98 LINE",
"303 182 OFFCURVE",
"424 245 OFFCURVE",
"486 245 CURVE SMOOTH",
"512 245 OFFCURVE",
"533 234 OFFCURVE",
"546 210 CURVE"
);
},
{
closed = 1;
nodes = (
"464 120 LINE",
"510 87 OFFCURVE",
"551 53 OFFCURVE",
"551 25 CURVE SMOOTH",
"551 -5 OFFCURVE",
"505 -23 OFFCURVE",
"462 -23 CURVE SMOOTH",
"418 -23 OFFCURVE",
"343 -5 OFFCURVE",
"298 54 CURVE",
"238 24 LINE",
"303 -95 OFFCURVE",
"418 -178 OFFCURVE",
"522 -178 CURVE SMOOTH",
"603 -178 OFFCURVE",
"666 -127 OFFCURVE",
"666 -44 CURVE SMOOTH",
"666 8 OFFCURVE",
"641 65 OFFCURVE",
"593 107 CURVE",
"571 218 LINE"
);
}
);
width = 706;
},
{
associatedMasterId = "5483B82D-F897-45AA-9987-2D1C58E320E8";
background = {
paths = (
{
closed = 1;
nodes = (
"1190 902 OFFCURVE",
"863 960 OFFCURVE",
"806 954 CURVE",
"774 820 OFFCURVE",
"773 698 OFFCURVE",
"795 597 CURVE",
"734 513 OFFCURVE",
"686 441 OFFCURVE",
"686 332 CURVE",
"820 416 LINE",
"636 384 OFFCURVE",
"311 380 OFFCURVE",
"91 400 CURVE",
"70 373 LINE",
"174 116 OFFCURVE",
"454 0 OFFCURVE",
"537 0 CURVE SMOOTH",
"674 0 OFFCURVE",
"822 20 OFFCURVE",
"951 72 CURVE",
"891 72 LINE",
"1129 -15 OFFCURVE",
"1336 -39 OFFCURVE",
"1539 68 CURVE",
"1782 391 OFFCURVE",
"1772 663 OFFCURVE",
"1421 807 CURVE SMOOTH"
);
},
{
closed = 1;
nodes = (
"1132 534 OFFCURVE",
"1126 472 CURVE SMOOTH",
"1121 424 OFFCURVE",
"1039 406 OFFCURVE",
"993 416 CURVE SMOOTH",
"902 436 OFFCURVE",
"906 540 OFFCURVE",
"969 561 CURVE SMOOTH",
"1031 584 OFFCURVE"
);
},
{
closed = 1;
nodes = (
"1295 398 OFFCURVE",
"1310 437 OFFCURVE",
"1321 490 CURVE",
"1439 465 OFFCURVE",
"1532 422 OFFCURVE",
"1532 398 CURVE SMOOTH",
"1532 371 OFFCURVE",
"1439 332 OFFCURVE",
"1280 368 CURVE"
);
}
);
};
layerId = "D2C8D861-6E5A-4558-9DAE-B00243921618";
name = "Bold Nov 14 15, 23:27";
paths = (
{
closed = 1;
nodes = (
"1190 902 OFFCURVE",
"863 960 OFFCURVE",
"806 954 CURVE",
"774 820 OFFCURVE",
"773 698 OFFCURVE",
"795 597 CURVE",
"734 513 OFFCURVE",
"686 441 OFFCURVE",
"686 332 CURVE",
"878 429 LINE",
"601 307 OFFCURVE",
"271 273 OFFCURVE",
"71 300 CURVE",
"40 163 LINE",
"140 48 OFFCURVE",
"298 -89 OFFCURVE",
"545 -89 CURVE SMOOTH",
"673 -89 OFFCURVE",
"836 -27 OFFCURVE",
"1053 108 CURVE",
"891 72 LINE",
"1129 -15 OFFCURVE",
"1336 -39 OFFCURVE",
"1539 68 CURVE",
"1782 391 OFFCURVE",
"1772 663 OFFCURVE",
"1421 807 CURVE SMOOTH"
);
},
{
closed = 1;
nodes = (
"1132 534 OFFCURVE",
"1126 472 CURVE SMOOTH",
"1121 424 OFFCURVE",
"1039 406 OFFCURVE",
"993 416 CURVE SMOOTH",
"902 436 OFFCURVE",
"906 540 OFFCURVE",
"969 561 CURVE SMOOTH",
"1031 584 OFFCURVE"
);
},
{
closed = 1;
nodes = (
"1295 398 OFFCURVE",
"1310 437 OFFCURVE",
"1321 490 CURVE",
"1439 465 OFFCURVE",
"1532 422 OFFCURVE",
"1532 398 CURVE SMOOTH",
"1532 371 OFFCURVE",
"1439 332 OFFCURVE",
"1280 368 CURVE"
);
}
);
width = 1765;
},
{
associatedMasterId = "5483B82D-F897-45AA-9987-2D1C58E320E8";
background = {
paths = (
{
closed = 1;
nodes = (
"1190 902 OFFCURVE",
"863 960 OFFCURVE",
"806 954 CURVE",
"774 820 OFFCURVE",
"773 698 OFFCURVE",
"795 597 CURVE",
"734 513 OFFCURVE",
"686 441 OFFCURVE",
"686 332 CURVE",
"820 416 LINE",
"636 384 OFFCURVE",
"311 380 OFFCURVE",
"91 400 CURVE",
"70 373 LINE",
"174 116 OFFCURVE",
"454 0 OFFCURVE",
"537 0 CURVE SMOOTH",
"674 0 OFFCURVE",
"822 20 OFFCURVE",
"951 72 CURVE",
"891 72 LINE",
"1129 -15 OFFCURVE",
"1336 -39 OFFCURVE",
"1539 68 CURVE",
"1782 391 OFFCURVE",
"1772 663 OFFCURVE",
"1421 807 CURVE SMOOTH"
);
},
{
closed = 1;
nodes = (
"1132 534 OFFCURVE",
"1126 472 CURVE SMOOTH",
"1121 424 OFFCURVE",
"1039 406 OFFCURVE",
"993 416 CURVE SMOOTH",
"902 436 OFFCURVE",
"906 540 OFFCURVE",
"969 561 CURVE SMOOTH",
"1031 584 OFFCURVE"
);
},
{
closed = 1;
nodes = (
"1295 398 OFFCURVE",
"1310 437 OFFCURVE",
"1321 490 CURVE",
"1439 465 OFFCURVE",
"1532 422 OFFCURVE",
"1532 398 CURVE SMOOTH",
"1532 371 OFFCURVE",
"1439 332 OFFCURVE",
"1280 368 CURVE"
);
}
);
};
layerId = "DF9547AB-B6D7-49A0-AC1F-A9E0DCA946A0";
name = "Bold Nov 14 15, 23:34";
paths = (
{
closed = 1;
nodes = (
"394 303 LINE",
"491 216 OFFCURVE",
"776 -305 OFFCURVE",
"1183 -402 CURVE SMOOTH",
"1529 -484 OFFCURVE",
"1606 -257 OFFCURVE",
"1614 -184 CURVE SMOOTH",
"1635 16 OFFCURVE",
"1445 182 OFFCURVE",
"1345 240 CURVE",
"1428 317 OFFCURVE",
"1645 400 OFFCURVE",
"1680 618 CURVE SMOOTH",
"1699 738 OFFCURVE",
"1610 907 OFFCURVE",
"1357 907 CURVE SMOOTH",
"936 907 OFFCURVE",
"657 564 OFFCURVE",
"500 400 CURVE"
);
},
{
closed = 1;
nodes = (
"569 427 LINE",
"376 357 OFFCURVE",
"14 298 OFFCURVE",
"-168 298 CURVE",
"-199 161 LINE",
"-113 46 OFFCURVE",
"23 -91 OFFCURVE",
"236 -91 CURVE SMOOTH",
"364 -91 OFFCURVE",
"527 -29 OFFCURVE",
"861 37 CURVE"
);
},
{
closed = 1;
nodes = (
"1201 80 LINE",
"1428 80 OFFCURVE",
"1577 0 OFFCURVE",
"1765 0 CURVE",
"1795 133 OFFCURVE",
"1795 267 OFFCURVE",
"1765 400 CURVE",
"1577 400 OFFCURVE",
"1471 340 OFFCURVE",
"1201 340 CURVE"
);
},
{
closed = 1;
nodes = (
"954 561 OFFCURVE",
"1298 550 OFFCURVE",
"1186 461 CURVE",
"1129 429 OFFCURVE",
"961 423 OFFCURVE",
"772 411 CURVE"
);
},
{
closed = 1;
nodes = (
"1021 85 OFFCURVE",
"1189 79 OFFCURVE",
"1246 47 CURVE",
"1358 -42 OFFCURVE",
"1014 -53 OFFCURVE",
"871 47 CURVE"
);
}
);
width = 1765;
},
{
associatedMasterId = "5483B82D-F897-45AA-9987-2D1C58E320E8";
layerId = "744F72FC-57B4-4305-822B-9BE38E025D8B";
name = "Bold Dec 12 15, 21:09";
paths = (
{
closed = 1;
nodes = (
"251 258 OFFCURVE",
"382 403 OFFCURVE",
"504 403 CURVE SMOOTH",
"581 403 OFFCURVE",
"640 314 OFFCURVE",
"640 228 CURVE SMOOTH",
"640 188 OFFCURVE",
"629 141 OFFCURVE",
"601 87 CURVE",
"561 29 OFFCURVE",
"406 5 OFFCURVE",
"283 1 CURVE",
"280 187 LINE",
"384 189 OFFCURVE",
"492 194 OFFCURVE",
"548 210 CURVE",
"535 234 OFFCURVE",
"514 245 OFFCURVE",
"488 245 CURVE SMOOTH",
"427 245 OFFCURVE",
"301 179 OFFCURVE",
"274 98 CURVE",
"226 142 LINE"
);
},
{
closed = 1;
nodes = (
"301 54 LINE",
"343 -2 OFFCURVE",
"413 -23 OFFCURVE",
"467 -23 CURVE SMOOTH",
"505 -23 OFFCURVE",
"539 -15 OFFCURVE",
"539 14 CURVE SMOOTH",
"539 42 OFFCURVE",
"512 87 OFFCURVE",
"466 120 CURVE",
"573 218 LINE",
"596 107 LINE",
"643 65 OFFCURVE",
"668 8 OFFCURVE",
"668 -44 CURVE SMOOTH",
"668 -127 OFFCURVE",
"604 -179 OFFCURVE",
"522 -179 CURVE SMOOTH",
"421 -179 OFFCURVE",
"309 -97 OFFCURVE",
"240 24 CURVE"
);
},
{
closed = 1;
nodes = (
"292 8 OFFCURVE",
"158 -26 OFFCURVE",
"55 -63 CURVE",
"40 -51 LINE",
"54 56 OFFCURVE",
"86 115 OFFCURVE",
"136 147 CURVE SMOOTH",
"210 195 OFFCURVE",
"324 185 OFFCURVE",
"478 185 CURVE",
"478 29 LINE"
);
}
);
width = 708;
}
);
unicode = 06BE;
},
{
color = 4;
glyphname = "hehDoachashmee-ar.fina";
lastChange = "2015-12-13 15:53:39 +0000";
layers = (
{
components = (
{
name = "hehDoachashmee-ar";
}
);
layerId = "5483B82D-F897-45AA-9987-2D1C58E320E8";
name = Bold;
paths = (
{
closed = 1;
nodes = (
"663 186 OFFCURVE",
"624 197 OFFCURVE",
"593 218 CURVE",
"593 216 OFFCURVE",
"585 42 OFFCURVE",
"584 44 CURVE",
"603 21 OFFCURVE",
"656 0 OFFCURVE",
"717 0 CURVE",
"738 62 OFFCURVE",
"738 124 OFFCURVE",
"717 186 CURVE"
);
}
);
width = 717;
}
);
unicode = FBAB;
},
{
color = 4;
glyphname = "hehDoachashmee-ar.medi";
lastChange = "2015-12-13 15:51:44 +0000";
layers = (
{
components = (
{
name = "hehDoachashmee-ar.init";
}
);
layerId = "5483B82D-F897-45AA-9987-2D1C58E320E8";
name = Bold;
paths = (
{
closed = 1;
nodes = (
"376 29 LINE",
"401 13 OFFCURVE",
"444 0 OFFCURVE",
"492 0 CURVE",
"512 62 OFFCURVE",
"512 124 OFFCURVE",
"492 186 CURVE",
"448 186 OFFCURVE",
"415 193 OFFCURVE",
"387 206 CURVE"
);
}
);
width = 492;
},
{
associatedMasterId = "5483B82D-F897-45AA-9987-2D1C58E320E8";
background = {
paths = (
{
closed = 1;
nodes = (
"403 275 OFFCURVE",
"517 279 OFFCURVE",
"556 301 CURVE",
"586 344 OFFCURVE",
"425 370 OFFCURVE",
"315 267 CURVE"
);
},
{
closed = 1;
nodes = (
"433 -18 OFFCURVE",
"599 0 OFFCURVE",
"584 39 CURVE",
"545 61 OFFCURVE",
"430 65 OFFCURVE",
"362 39 CURVE"
);
},
{
closed = 1;
nodes = (
"911 182 OFFCURVE",
"911 91 OFFCURVE",
"890 0 CURVE",
"842 0 OFFCURVE",
"797 8 OFFCURVE",
"752 18 CURVE",
"849 -135 OFFCURVE",
"737 -281 OFFCURVE",
"571 -264 CURVE SMOOTH",
"403 -247 OFFCURVE",
"300 -132 OFFCURVE",
"185 50 CURVE",
"284 46 LINE",
"166 0 OFFCURVE",
"83 0 OFFCURVE",
"0 0 CURVE",
"-28 91 OFFCURVE",
"-28 182 OFFCURVE",
"0 273 CURVE",
"67 273 OFFCURVE",
"122 264 OFFCURVE",
"218 235 CURVE",
"116 243 LINE",
"209 367 OFFCURVE",
"312 562 OFFCURVE",
"557 591 CURVE SMOOTH",
"819 623 OFFCURVE",
"879 378 OFFCURVE",
"727 254 CURVE",
"781 264 OFFCURVE",
"829 273 OFFCURVE",
"890 273 CURVE"
);
}
);
};
components = (
{
name = "heh-ar.init";
}
);
layerId = "19C7CE4C-1746-461B-89D5-704D7787BEB0";
name = "Bold Dec 6 15, 19:51";
paths = (
{
closed = 1;
nodes = (
"683 273 LINE",
"608 126 LINE",
"671 33 OFFCURVE",
"752 0 OFFCURVE",
"828 0 CURVE",
"862 91 OFFCURVE",
"862 182 OFFCURVE",
"828 273 CURVE"
);
}
);
width = 828;
}
);
unicode = FBAD;
},
{
color = 4;
glyphname = "hehDoachashmee-ar.init";
lastChange = "2015-12-13 15:59:32 +0000";
layers = (
{
associatedMasterId = "5483B82D-F897-45AA-9987-2D1C58E320E8";
layerId = "ABF6553F-6266-40CB-B88D-048C7B619883";
name = "Bold Dec 13 15, 15:59";
paths = (
{
closed = 1;
nodes = (
"348 189 OFFCURVE",
"246 165 OFFCURVE",
"58 165 CURVE",
"73 186 LINE",
"44 186 OFFCURVE",
"18 186 OFFCURVE",
"0 186 CURVE",
"-20 124 OFFCURVE",
"-15 62 OFFCURVE",
"0 0 CURVE",
"221 0 OFFCURVE",
"344 47 OFFCURVE",
"389 119 CURVE",
"404 142 OFFCURVE",
"415 184 OFFCURVE",
"415 234 CURVE SMOOTH",
"415 336 OFFCURVE",
"368 412 OFFCURVE",
"292 412 CURVE SMOOTH",
"216 412 OFFCURVE",
"116 334 OFFCURVE",
"1 142 CURVE",
"37 112 LINE",
"121 186 OFFCURVE",
"203 230 OFFCURVE",
"261 230 CURVE SMOOTH",
"298 230 OFFCURVE",
"325 213 OFFCURVE",
"335 174 CURVE",
"380 205 LINE"
);
},
{
closed = 1;
nodes = (
"308 128 LINE",
"420 30 OFFCURVE",
"208 -76 OFFCURVE",
"64 46 CURVE",
"15 41 LINE",
"108 -126 OFFCURVE",
"202 -160 OFFCURVE",
"282 -165 CURVE SMOOTH",
"435 -174 OFFCURVE",
"513 0 OFFCURVE",
"381 140 CURVE"
);
}
);
width = 513;
},
{
background = {
paths = (
{
closed = 1;
nodes = (
"66 258 OFFCURVE",
"197 403 OFFCURVE",
"319 403 CURVE SMOOTH",
"396 403 OFFCURVE",
"455 314 OFFCURVE",
"455 228 CURVE SMOOTH",
"455 188 OFFCURVE",
"444 141 OFFCURVE",
"416 87 CURVE",
"376 29 OFFCURVE",
"221 5 OFFCURVE",
"98 1 CURVE",
"95 187 LINE",
"199 189 OFFCURVE",
"307 194 OFFCURVE",
"363 210 CURVE",
"350 234 OFFCURVE",
"329 245 OFFCURVE",
"303 245 CURVE SMOOTH",
"242 245 OFFCURVE",
"116 179 OFFCURVE",
"89 98 CURVE",
"41 142 LINE"
);
}
);
};
layerId = "5483B82D-F897-45AA-9987-2D1C58E320E8";
name = Bold;
paths = (
{
closed = 1;
nodes = (
"289 186 OFFCURVE",
"116 186 OFFCURVE",
"0 186 CURVE",
"-20 124 OFFCURVE",
"-15 62 OFFCURVE",
"0 0 CURVE",
"74 0 OFFCURVE",
"349 0 OFFCURVE",
"416 87 CURVE",
"444 141 OFFCURVE",
"455 188 OFFCURVE",
"455 228 CURVE SMOOTH",
"455 314 OFFCURVE",
"396 403 OFFCURVE",
"319 403 CURVE SMOOTH",
"197 403 OFFCURVE",
"66 258 OFFCURVE",
"41 142 CURVE",
"89 98 LINE",
"120 182 OFFCURVE",
"241 245 OFFCURVE",
"303 245 CURVE SMOOTH",
"329 245 OFFCURVE",
"350 234 OFFCURVE",
"363 210 CURVE"
);
},
{
closed = 1;
nodes = (
"281 120 LINE",
"327 87 OFFCURVE",
"368 53 OFFCURVE",
"368 25 CURVE SMOOTH",
"368 -5 OFFCURVE",
"322 -23 OFFCURVE",
"279 -23 CURVE SMOOTH",
"235 -23 OFFCURVE",
"160 -5 OFFCURVE",
"115 54 CURVE",
"55 24 LINE",
"120 -95 OFFCURVE",
"235 -178 OFFCURVE",
"339 -178 CURVE SMOOTH",
"420 -178 OFFCURVE",
"483 -127 OFFCURVE",
"483 -44 CURVE SMOOTH",
"483 8 OFFCURVE",
"458 65 OFFCURVE",
"410 107 CURVE",
"388 218 LINE"
);
}
);
width = 523;
}
);
unicode = FBAC;
},
{
color = 6;
glyphname = "waw-ar";
lastChange = "2015-12-12 18:12:09 +0000";
layers = (
{
layerId = "5483B82D-F897-45AA-9987-2D1C58E320E8";
name = Bold;
paths = (
{
closed = 1;
nodes = (
"225 176 OFFCURVE",
"157 184 OFFCURVE",
"149 208 CURVE",
"164 229 OFFCURVE",
"235 214 OFFCURVE",
"261 182 CURVE"
);
},
{
closed = 1;
nodes = (
"371 199 OFFCURVE",
"349 357 OFFCURVE",
"230 370 CURVE SMOOTH",
"121 381 OFFCURVE",
"49 255 OFFCURVE",
"41 178 CURVE SMOOTH",
"28 52 OFFCURVE",
"177 2 OFFCURVE",
"271 18 CURVE",
"211 75 LINE",
"162 0 OFFCURVE",
"98 -80 OFFCURVE",
"48 -130 CURVE",
"75 -167 OFFCURVE",
"144 -226 OFFCURVE",
"188 -248 CURVE",
"213 -216 OFFCURVE",
"345 -34 OFFCURVE",
"362 114 CURVE SMOOTH"
);
}
);
width = 368;
}
);
unicode = 0648;
},
{
color = 6;
glyphname = "waw-ar.fina";
lastChange = "2015-12-12 18:13:07 +0000";
layers = (
{
components = (
{
name = "waw-ar";
}
);
guideLines = (
{
position = "{1260, -547}";
}
);
layerId = "5483B82D-F897-45AA-9987-2D1C58E320E8";
name = Bold;
paths = (
{
closed = 1;
nodes = (
"254 18 LINE",
"334 0 OFFCURVE",
"375 0 OFFCURVE",
"394 0 CURVE",
"417 62 OFFCURVE",
"417 124 OFFCURVE",
"394 186 CURVE",
"361 186 OFFCURVE",
"317 190 OFFCURVE",
"288 193 CURVE"
);
}
);
width = 394;
},
{
associatedMasterId = "5483B82D-F897-45AA-9987-2D1C58E320E8";
guideLines = (
{
position = "{1281, -547}";
}
);
layerId = "9E3A56DD-AF09-4E65-897A-581E1C648034";
name = "Regular Oct 5 15, 15:57";
paths = (
{
closed = 1;
nodes = (
"612 9 LINE",
"698 2 OFFCURVE",
"792 0 OFFCURVE",
"873 0 CURVE",
"923 133 OFFCURVE",
"923 267 OFFCURVE",
"873 400 CURVE",
"781 400 OFFCURVE",
"696 392 OFFCURVE",
"579 408 CURVE"
);
},
{
closed = 1;
nodes = (
"306 335 OFFCURVE",
"331 415 CURVE SMOOTH",
"349 473 OFFCURVE",
"464 412 OFFCURVE",
"464 373 CURVE SMOOTH",
"464 336 OFFCURVE"
);
},
{
closed = 1;
nodes = (
"742 441 OFFCURVE",
"667 776 OFFCURVE",
"410 776 CURVE SMOOTH",
"185 776 OFFCURVE",
"50 523 OFFCURVE",
"50 296 CURVE SMOOTH",
"50 83 OFFCURVE",
"374 -26 OFFCURVE",
"577 35 CURVE",
"473 277 LINE",
"389 24 OFFCURVE",
"212 -236 OFFCURVE",
"75 -429 CURVE",
"139 -502 OFFCURVE",
"300 -612 OFFCURVE",
"399 -649 CURVE",
"401 -649 OFFCURVE",
"742 -104 OFFCURVE",
"742 267 CURVE SMOOTH"
);
}
);
width = 873;
}
);
unicode = FEEE;
},
{
color = 6;
glyphname = "alefMaksura-ar";
lastChange = "2015-12-12 18:14:39 +0000";
layers = (
{
layerId = "5483B82D-F897-45AA-9987-2D1C58E320E8";
name = Bold;
paths = (
{
closed = 1;
nodes = (
"474 431 OFFCURVE",
"341 284 OFFCURVE",
"341 157 CURVE",
"351 127 OFFCURVE",
"416 98 OFFCURVE",
"515 53 CURVE",
"506 114 LINE",
"444 41 OFFCURVE",
"351 11 OFFCURVE",
"302 11 CURVE SMOOTH",
"234 11 OFFCURVE",
"204 55 OFFCURVE",
"204 124 CURVE SMOOTH",
"204 170 OFFCURVE",
"217 226 OFFCURVE",
"241 287 CURVE",
"103 331 LINE",
"63 235 OFFCURVE",
"40 143 OFFCURVE",
"40 64 CURVE SMOOTH",
"40 -73 OFFCURVE",
"107 -169 OFFCURVE",
"264 -169 CURVE SMOOTH",
"466 -169 OFFCURVE",
"628 -32 OFFCURVE",
"628 123 CURVE SMOOTH",
"628 203 OFFCURVE",
"428 263 OFFCURVE",
"399 275 CURVE",
"462 197 LINE",
"485 237 OFFCURVE",
"539 266 OFFCURVE",
"655 292 CURVE",
"666 325 OFFCURVE",
"676 418 OFFCURVE",
"662 466 CURVE"
);
}
);
width = 709;
}
);
unicode = 0649;
},
{
color = 6;
glyphname = "alefMaksura-ar.fina";
lastChange = "2015-12-12 18:14:08 +0000";
layers = (
{
layerId = "5483B82D-F897-45AA-9987-2D1C58E320E8";
name = Bold;
paths = (
{
closed = 1;
nodes = (
"345 82 LINE",
"455 33 OFFCURVE",
"546 -65 OFFCURVE",
"581 -125 CURVE",
"611 -18 LINE",
"513 -7 LINE",
"327 -111 OFFCURVE",
"203 -110 OFFCURVE",
"203 18 CURVE SMOOTH",
"203 61 OFFCURVE",
"217 122 OFFCURVE",
"242 193 CURVE",
"104 238 LINE",
"60 130 OFFCURVE",
"40 33 OFFCURVE",
"40 -36 CURVE SMOOTH",
"40 -193 OFFCURVE",
"143 -263 OFFCURVE",
"274 -263 CURVE SMOOTH",
"397 -263 OFFCURVE",
"525 -201 OFFCURVE",
"620 -122 CURVE",
"636 -35 OFFCURVE",
"628 109 OFFCURVE",
"605 160 CURVE",
"498 85 LINE",
"550 35 OFFCURVE",
"635 0 OFFCURVE",
"695 0 CURVE",
"718 62 OFFCURVE",
"718 124 OFFCURVE",
"695 186 CURVE",
"646 186 OFFCURVE",
"487 191 OFFCURVE",
"394 214 CURVE"
);
},
{
closed = 1;
nodes = (
"654 30 LINE",
"617 47 LINE",
"617 -1 LINE"
);
}
);
width = 695;
}
);
unicode = FEF0;
},
{
color = 6;
glyphname = "yeh-ar.medi";
lastChange = "2015-12-12 18:15:34 +0000";
layers = (
{
background = {
paths = (
{
closed = 1;
nodes = (
"390 149 LINE",
"479 23 OFFCURVE",
"595 0 OFFCURVE",
"699 0 CURVE",
"749 133 OFFCURVE",
"749 267 OFFCURVE",
"699 400 CURVE",
"539 400 OFFCURVE",
"487 467 OFFCURVE",
"422 579 CURVE",
"404 581 LINE",
"293 477 OFFCURVE",
"103 400 OFFCURVE",
"-132 400 CURVE",
"-182 267 OFFCURVE",
"-182 133 OFFCURVE",
"-132 0 CURVE",
"68 0 OFFCURVE",
"267 29 OFFCURVE",
"371 149 CURVE"
);
}
);
};
components = (
{
name = "dotlessbeh-ar.medi.wide";
},
{
name = "dot-two";
transform = "{1, 0, 0, 1, -43, -155}";
}
);
layerId = "5483B82D-F897-45AA-9987-2D1C58E320E8";
name = Bold;
width = 391;
}
);
unicode = FEF4;
},
{
color = 4;
glyphname = "yehbarree-ar";
lastChange = "2015-12-12 18:18:02 +0000";
layers = (
{
layerId = "5483B82D-F897-45AA-9987-2D1C58E320E8";
name = Bold;
paths = (
{
closed = 1;
nodes = (
"496 435 LINE",
"389 435 OFFCURVE",
"355 538 OFFCURVE",
"294 538 CURVE SMOOTH",
"141 538 OFFCURVE",
"19 254 OFFCURVE",
"43 127 CURVE SMOOTH",
"75 23 OFFCURVE",
"224 3 OFFCURVE",
"416 3 CURVE SMOOTH",
"505 3 OFFCURVE",
"607 5 OFFCURVE",
"654 0 CURVE",
"681 55 OFFCURVE",
"694 109 OFFCURVE",
"693 163 CURVE",
"626 182 OFFCURVE",
"455 182 OFFCURVE",
"401 182 CURVE SMOOTH",
"262 182 OFFCURVE",
"171 199 OFFCURVE",
"171 223 CURVE SMOOTH",
"171 253 OFFCURVE",
"224 355 OFFCURVE",
"284 355 CURVE SMOOTH",
"317 355 OFFCURVE",
"360 242 OFFCURVE",
"438 242 CURVE",
"477 292 OFFCURVE",
"505 373 OFFCURVE",
"512 424 CURVE"
);
}
);
width = 733;
},
{
associatedMasterId = "5483B82D-F897-45AA-9987-2D1C58E320E8";
layerId = "977A0CF9-6E45-427F-945E-4B64AB84CEC0";
name = "Bold Nov 14 15, 22:18";
paths = (
{
closed = 1;
nodes = (
"630 241 OFFCURVE",
"777 194 OFFCURVE",
"1164 194 CURVE SMOOTH",
"1289 193 OFFCURVE",
"1646 222 OFFCURVE",
"1655 693 CURVE",
"1627 717 OFFCURVE",
"1599 729 OFFCURVE",
"1569 741 CURVE",
"1429 596 OFFCURVE",
"1276 591 OFFCURVE",
"1182 592 CURVE SMOOTH",
"755 594 OFFCURVE",
"636 617 OFFCURVE",
"553 617 CURVE SMOOTH",
"223 617 OFFCURVE",
"10 252 OFFCURVE",
"56 -32 CURVE SMOOTH",
"77 -161 OFFCURVE",
"145 -241 OFFCURVE",
"239 -283 CURVE SMOOTH",
"421 -364 OFFCURVE",
"850 -368 OFFCURVE",
"1039 -282 CURVE SMOOTH",
"1158 -228 OFFCURVE",
"1225 -119 OFFCURVE",
"1269 8 CURVE",
"1255 31 LINE",
"1081 18 OFFCURVE",
"751 7 OFFCURVE",
"576 29 CURVE SMOOTH",
"441 46 OFFCURVE",
"329 91 OFFCURVE",
"329 166 CURVE SMOOTH",
"329 238 OFFCURVE",
"431 241 OFFCURVE",
"471 241 CURVE SMOOTH"
);
}
);
width = 1705;
}
);
unicode = 06D2;
},
{
color = 4;
glyphname = "yehbarree-ar.fina";
lastChange = "2015-12-12 18:18:20 +0000";
layers = (
{
layerId = "5483B82D-F897-45AA-9987-2D1C58E320E8";
name = Bold;
paths = (
{
closed = 1;
nodes = (
"546 -178 OFFCURVE",
"559 -124 OFFCURVE",
"558 -69 CURVE",
"495 -51 OFFCURVE",
"319 -51 OFFCURVE",
"265 -51 CURVE SMOOTH",
"208 -51 OFFCURVE",
"171 -33 OFFCURVE",
"171 -9 CURVE SMOOTH",
"171 20 OFFCURVE",
"226 22 OFFCURVE",
"242 22 CURVE SMOOTH",
"306 22 OFFCURVE",
"383 0 OFFCURVE",
"561 0 CURVE",
"584 62 OFFCURVE",
"584 124 OFFCURVE",
"561 186 CURVE",
"403 186 OFFCURVE",
"351 212 OFFCURVE",
"246 202 CURVE SMOOTH",
"116 191 OFFCURVE",
"20 22 OFFCURVE",
"44 -105 CURVE SMOOTH",
"63 -208 OFFCURVE",
"155 -229 OFFCURVE",
"280 -229 CURVE SMOOTH",
"421 -229 OFFCURVE",
"471 -227 OFFCURVE",
"519 -232 CURVE"
);
}
);
width = 561;
},
{
associatedMasterId = "5483B82D-F897-45AA-9987-2D1C58E320E8";
background = {
paths = (
{
closed = 1;
nodes = (
"1079 -184 LINE",
"570 -185 LINE SMOOTH",
"287 -185 OFFCURVE",
"245 -34 OFFCURVE",
"453 204 CURVE",
"284 116 LINE",
"165 -73 LINE",
"310 24 OFFCURVE",
"388 42 OFFCURVE",
"476 42 CURVE SMOOTH",
"617 42 OFFCURVE",
"775 0 OFFCURVE",
"1138 0 CURVE",
"1188 133 OFFCURVE",
"1188 267 OFFCURVE",
"1138 400 CURVE",
"750 400 OFFCURVE",
"628 423 OFFCURVE",
"549 423 CURVE SMOOTH",
"275 423 OFFCURVE",
"50 28 OFFCURVE",
"50 -226 CURVE SMOOTH",
"50 -408 OFFCURVE",
"162 -519 OFFCURVE",
"421 -518 CURVE SMOOTH",
"896 -517 LINE",
"949 -471 OFFCURVE",
"1069 -288 OFFCURVE",
"1093 -207 CURVE"
);
}
);
};
layerId = "9EEE4B2F-81A6-4902-BED4-D7141EDBA79E";
name = "Bold Nov 14 15, 22:06";
paths = (
{
closed = 1;
nodes = (
"1079 -184 LINE",
"570 -185 LINE SMOOTH",
"287 -185 OFFCURVE",
"245 -34 OFFCURVE",
"453 204 CURVE",
"284 116 LINE",
"165 -73 LINE",
"310 24 OFFCURVE",
"388 42 OFFCURVE",
"476 42 CURVE SMOOTH",
"617 42 OFFCURVE",
"775 0 OFFCURVE",
"1138 0 CURVE",
"1188 133 OFFCURVE",
"1188 267 OFFCURVE",
"1138 400 CURVE",
"750 400 OFFCURVE",
"628 423 OFFCURVE",
"549 423 CURVE SMOOTH",
"275 423 OFFCURVE",
"50 28 OFFCURVE",
"50 -226 CURVE SMOOTH",
"50 -408 OFFCURVE",
"162 -519 OFFCURVE",
"421 -518 CURVE SMOOTH",
"896 -517 LINE",
"949 -471 OFFCURVE",
"1069 -288 OFFCURVE",
"1093 -207 CURVE"
);
}
);
width = 1138;
},
{
associatedMasterId = "5483B82D-F897-45AA-9987-2D1C58E320E8";
background = {
paths = (
{
closed = 1;
nodes = (
"1075 -176 OFFCURVE",
"745 -187 OFFCURVE",
"570 -165 CURVE SMOOTH",
"435 -148 OFFCURVE",
"323 -103 OFFCURVE",
"323 -28 CURVE SMOOTH",
"323 44 OFFCURVE",
"425 47 OFFCURVE",
"465 47 CURVE SMOOTH",
"624 47 OFFCURVE",
"771 0 OFFCURVE",
"1158 0 CURVE",
"1208 133 OFFCURVE",
"1208 267 OFFCURVE",
"1158 400 CURVE",
"749 400 OFFCURVE",
"630 423 OFFCURVE",
"547 423 CURVE SMOOTH",
"217 423 OFFCURVE",
"4 58 OFFCURVE",
"50 -226 CURVE SMOOTH",
"71 -355 OFFCURVE",
"139 -435 OFFCURVE",
"233 -477 CURVE SMOOTH",
"415 -558 OFFCURVE",
"844 -562 OFFCURVE",
"1033 -476 CURVE SMOOTH",
"1152 -422 OFFCURVE",
"1219 -313 OFFCURVE",
"1263 -186 CURVE",
"1249 -163 LINE"
);
}
);
};
layerId = "80DC8992-1CFD-4EFA-B475-80D3EFD1CCE2";
name = "Bold Nov 14 15, 22:14";
paths = (
{
closed = 1;
nodes = (
"1075 -176 OFFCURVE",
"745 -187 OFFCURVE",
"570 -165 CURVE SMOOTH",
"435 -148 OFFCURVE",
"323 -103 OFFCURVE",
"323 -28 CURVE SMOOTH",
"323 44 OFFCURVE",
"425 47 OFFCURVE",
"465 47 CURVE SMOOTH",
"624 47 OFFCURVE",
"771 0 OFFCURVE",
"1158 0 CURVE",
"1208 133 OFFCURVE",
"1208 267 OFFCURVE",
"1158 400 CURVE",
"749 400 OFFCURVE",
"630 423 OFFCURVE",
"547 423 CURVE SMOOTH",
"217 423 OFFCURVE",
"4 58 OFFCURVE",
"50 -226 CURVE SMOOTH",
"71 -355 OFFCURVE",
"139 -435 OFFCURVE",
"233 -477 CURVE SMOOTH",
"415 -558 OFFCURVE",
"844 -562 OFFCURVE",
"1033 -476 CURVE SMOOTH",
"1152 -422 OFFCURVE",
"1219 -313 OFFCURVE",
"1263 -186 CURVE",
"1249 -163 LINE"
);
}
);
width = 1158;
}
);
unicode = FBAF;
},
{
color = 6;
glyphname = "kashida-ar";
lastChange = "2015-12-05 13:42:52 +0000";
layers = (
{
layerId = "5483B82D-F897-45AA-9987-2D1C58E320E8";
name = Bold;
paths = (
{
closed = 1;
nodes = (
"-20 182 OFFCURVE",
"-20 91 OFFCURVE",
"0 0 CURVE",
"274 0 LINE",
"294 91 OFFCURVE",
"294 182 OFFCURVE",
"274 273 CURVE",
"0 273 LINE"
);
}
);
width = 274;
}
);
unicode = 0640;
},
{
color = 9;
glyphname = "lam_alef-ar";
lastChange = "2015-12-12 18:19:44 +0000";
layers = (
{
layerId = "5483B82D-F897-45AA-9987-2D1C58E320E8";
name = Bold;
paths = (
{
closed = 1;
nodes = (
"40 355 LINE",
"102 318 OFFCURVE",
"172 277 OFFCURVE",
"236 241 CURVE",
"332 204 OFFCURVE",
"389 122 OFFCURVE",
"413 29 CURVE",
"417 25 LINE",
"445 75 OFFCURVE",
"446 152 OFFCURVE",
"432 204 CURVE SMOOTH",
"421 242 OFFCURVE",
"390 288 OFFCURVE",
"349 333 CURVE SMOOTH",
"344 339 OFFCURVE",
"339 344 OFFCURVE",
"335 348 CURVE SMOOTH",
"266 419 OFFCURVE",
"177 486 OFFCURVE",
"112 518 CURVE"
);
},
{
closed = 1;
nodes = (
"380 188 OFFCURVE",
"271 180 OFFCURVE",
"180 181 CURVE",
"144 182 OFFCURVE",
"93 173 OFFCURVE",
"56 178 CURVE",
"56 129 OFFCURVE",
"85 39 OFFCURVE",
"107 0 CURVE",
"264 0 OFFCURVE",
"380 11 OFFCURVE",
"417 25 CURVE",
"449 82 OFFCURVE",
"413 173 OFFCURVE",
"422 209 CURVE"
);
},
{
closed = 1;
nodes = (
"283 557 LINE",
"294 460 OFFCURVE",
"303 373 OFFCURVE",
"300 327 CURVE",
"262 304 OFFCURVE",
"151 266 OFFCURVE",
"56 178 CURVE",
"170 152 LINE",
"253 235 OFFCURVE",
"316 244 OFFCURVE",
"372 263 CURVE",
"436 329 OFFCURVE",
"455 373 OFFCURVE",
"445 566 CURVE"
);
}
);
width = 488;
}
);
unicode = FEFB;
},
{
color = 9;
glyphname = "lam_alef-ar.fina";
lastChange = "2015-12-12 18:20:24 +0000";
layers = (
{
layerId = "5483B82D-F897-45AA-9987-2D1C58E320E8";
name = Bold;
paths = (
{
closed = 1;
nodes = (
"40 495 LINE",
"85 378 OFFCURVE",
"122 273 OFFCURVE",
"138 174 CURVE",
"142 169 LINE",
"169 181 OFFCURVE",
"234 223 OFFCURVE",
"267 268 CURVE",
"260 324 OFFCURVE",
"238 449 OFFCURVE",
"194 569 CURVE"
);
},
{
closed = 1;
nodes = (
"443 186 LINE",
"391 86 LINE",
"434 23 OFFCURVE",
"490 0 OFFCURVE",
"542 0 CURVE",
"565 62 OFFCURVE",
"565 124 OFFCURVE",
"542 186 CURVE"
);
},
{
closed = 1;
nodes = (
"502 309 OFFCURVE",
"497 425 OFFCURVE",
"488 566 CURVE",
"327 557 LINE",
"340 426 OFFCURVE",
"354 299 OFFCURVE",
"358 191 CURVE",
"293 187 OFFCURVE",
"196 186 OFFCURVE",
"81 186 CURVE",
"84 115 OFFCURVE",
"114 39 OFFCURVE",
"137 0 CURVE",
"314 0 OFFCURVE",
"397 0 OFFCURVE",
"447 42 CURVE SMOOTH",
"481 70 OFFCURVE",
"502 151 OFFCURVE",
"502 206 CURVE SMOOTH"
);
}
);
width = 542;
}
);
unicode = FEFC;
},
{
color = 9;
glyphname = "lam_alef-ar.alt";
lastChange = "2015-12-12 18:20:51 +0000";
layers = (
{
layerId = "5483B82D-F897-45AA-9987-2D1C58E320E8";
name = Bold;
paths = (
{
closed = 1;
nodes = (
"40 495 LINE",
"86 378 OFFCURVE",
"122 273 OFFCURVE",
"138 174 CURVE",
"143 169 LINE",
"170 181 OFFCURVE",
"234 223 OFFCURVE",
"267 268 CURVE",
"260 324 OFFCURVE",
"238 449 OFFCURVE",
"195 569 CURVE"
);
},
{
closed = 1;
nodes = (
"327 557 LINE",
"341 427 OFFCURVE",
"354 299 OFFCURVE",
"358 190 CURVE",
"293 186 OFFCURVE",
"196 186 OFFCURVE",
"81 186 CURVE",
"85 115 OFFCURVE",
"115 39 OFFCURVE",
"137 0 CURVE",
"314 0 OFFCURVE",
"388 4 OFFCURVE",
"461 25 CURVE",
"498 92 OFFCURVE",
"503 158 OFFCURVE",
"503 206 CURVE SMOOTH",
"503 309 OFFCURVE",
"498 425 OFFCURVE",
"489 566 CURVE"
);
}
);
width = 543;
}
);
},
{
color = 1;
glyphname = "beh_meem-ar.fina.liga";
lastChange = "2015-12-12 21:41:16 +0000";
layers = (
{
layerId = "5483B82D-F897-45AA-9987-2D1C58E320E8";
name = Bold;
paths = (
{
closed = 1;
nodes = (
"53 104 OFFCURVE",
"98 172 OFFCURVE",
"137 184 CURVE",
"223 180 OFFCURVE",
"312 172 OFFCURVE",
"360 140 CURVE",
"386 134 OFFCURVE",
"455 98 OFFCURVE",
"497 67 CURVE",
"490 29 OFFCURVE",
"435 -54 OFFCURVE",
"409 -72 CURVE",
"360 -74 OFFCURVE",
"318 -3 OFFCURVE",
"292 4 CURVE SMOOTH",
"252 16 OFFCURVE",
"196 -4 OFFCURVE",
"145 0 CURVE",
"196 104 LINE",
"187 -23 OFFCURVE",
"207 -177 OFFCURVE",
"229 -262 CURVE",
"198 -279 OFFCURVE",
"124 -289 OFFCURVE",
"71 -289 CURVE",
"66 -285 LINE",
"44 -183 OFFCURVE",
"34 -50 OFFCURVE",
"44 61 CURVE"
);
},
{
closed = 1;
nodes = (
"596 370 OFFCURVE",
"616 186 OFFCURVE",
"737 186 CURVE",
"760 124 OFFCURVE",
"760 62 OFFCURVE",
"737 0 CURVE",
"588 0 OFFCURVE",
"567 195 OFFCURVE",
"467 206 CURVE SMOOTH",
"396 213 OFFCURVE",
"368 98 OFFCURVE",
"497 67 CURVE",
"347 10 LINE",
"198 195 OFFCURVE",
"329 402 OFFCURVE",
"473 385 CURVE SMOOTH"
);
}
);
width = 737;
}
);
},
{
color = 1;
glyphname = "beh_meem-ar.medi.liga";
lastChange = "2015-12-12 21:41:25 +0000";
layers = (
{
background = {
paths = (
{
closed = 1;
nodes = (
"-42 332 OFFCURVE",
"129 540 OFFCURVE",
"479 605 CURVE",
"513 533 OFFCURVE",
"534 455 OFFCURVE",
"541 370 CURVE",
"393 337 OFFCURVE",
"109 249 OFFCURVE",
"382 98 CURVE",
"109 8 LINE"
);
},
{
closed = 1;
nodes = (
"-164 91 OFFCURVE",
"-164 182 OFFCURVE",
"-144 273 CURVE",
"53 273 OFFCURVE",
"186 214 OFFCURVE",
"383 98 CURVE",
"373 42 OFFCURVE",
"297 -70 OFFCURVE",
"254 -105 CURVE",
"186 -105 OFFCURVE",
"121 -12 OFFCURVE",
"95 0 CURVE",
"55 24 OFFCURVE",
"-54 0 OFFCURVE",
"-144 0 CURVE"
);
}
);
};
layerId = "5483B82D-F897-45AA-9987-2D1C58E320E8";
name = Bold;
paths = (
{
closed = 1;
nodes = (
"352 67 LINE",
"210 10 LINE",
"124 104 LINE",
"102 247 OFFCURVE",
"209 372 OFFCURVE",
"317 363 CURVE SMOOTH",
"439 353 OFFCURVE",
"485 186 OFFCURVE",
"599 186 CURVE",
"623 124 OFFCURVE",
"623 62 OFFCURVE",
"599 0 CURVE",
"437 0 OFFCURVE",
"387 207 OFFCURVE",
"300 202 CURVE SMOOTH",
"262 200 OFFCURVE",
"241 139 OFFCURVE",
"259 91 CURVE",
"193 102 LINE",
"204 151 LINE",
"251 130 OFFCURVE",
"297 105 OFFCURVE",
"352 71 CURVE",
"355 66 LINE"
);
},
{
closed = 1;
nodes = (
"355 66 LINE",
"350 29 OFFCURVE",
"297 -50 OFFCURVE",
"269 -72 CURVE",
"211 -72 OFFCURVE",
"181 -5 OFFCURVE",
"152 4 CURVE SMOOTH",
"120 14 OFFCURVE",
"66 0 OFFCURVE",
"0 0 CURVE",
"-14 62 OFFCURVE",
"-14 124 OFFCURVE",
"0 186 CURVE",
"102 186 OFFCURVE",
"163 177 OFFCURVE",
"195 157 CURVE",
"206 105 OFFCURVE",
"242 62 OFFCURVE",
"351 68 CURVE",
"352 71 LINE",
"352 67 LINE"
);
}
);
width = 599;
},
{
associatedMasterId = "5483B82D-F897-45AA-9987-2D1C58E320E8";
background = {
paths = (
{
closed = 1;
nodes = (
"-125 152 OFFCURVE",
"-59 252 OFFCURVE",
"-1 269 CURVE",
"124 264 OFFCURVE",
"225 245 OFFCURVE",
"325 205 CURVE SMOOTH",
"390 179 OFFCURVE",
"399 113 OFFCURVE",
"525 98 CURVE",
"515 42 OFFCURVE",
"439 -70 OFFCURVE",
"396 -105 CURVE",
"328 -94 OFFCURVE",
"256 -31 OFFCURVE",
"237 -11 CURVE",
"159 10 OFFCURVE",
"85 21 OFFCURVE",
"10 27 CURVE",
"84 152 LINE",
"71 -33 OFFCURVE",
"101 -259 OFFCURVE",
"133 -383 CURVE",
"88 -408 OFFCURVE",
"-20 -423 OFFCURVE",
"-99 -423 CURVE",
"-106 -417 LINE",
"-138 -268 OFFCURVE",
"-153 -73 OFFCURVE",
"-138 90 CURVE"
);
},
{
closed = 1;
nodes = (
"671 541 OFFCURVE",
"700 273 OFFCURVE",
"877 273 CURVE",
"911 182 OFFCURVE",
"911 91 OFFCURVE",
"877 0 CURVE",
"658 0 OFFCURVE",
"628 286 OFFCURVE",
"482 301 CURVE SMOOTH",
"377 312 OFFCURVE",
"337 144 OFFCURVE",
"525 98 CURVE",
"306 15 LINE",
"87 285 OFFCURVE",
"280 588 OFFCURVE",
"490 563 CURVE SMOOTH"
);
}
);
};
layerId = "09141E88-653D-4E14-A443-5361899FB384";
name = "Bold Dec 5 15, 14:56";
paths = (
{
closed = 1;
nodes = (
"-20 91 OFFCURVE",
"-20 182 OFFCURVE",
"0 273 CURVE",
"99 273 OFFCURVE",
"203 268 OFFCURVE",
"286 238 CURVE",
"302 174 OFFCURVE",
"356 85 OFFCURVE",
"525 98 CURVE",
"517 42 OFFCURVE",
"435 -75 OFFCURVE",
"396 -105 CURVE",
"319 -92 OFFCURVE",
"250 -21 OFFCURVE",
"239 0 CURVE",
"203 15 OFFCURVE",
"90 0 OFFCURVE",
"0 0 CURVE"
);
},
{
closed = 1;
nodes = (
"688 526 OFFCURVE",
"692 273 OFFCURVE",
"877 273 CURVE",
"912 182 OFFCURVE",
"912 91 OFFCURVE",
"877 0 CURVE",
"644 0 OFFCURVE",
"644 280 OFFCURVE",
"483 301 CURVE SMOOTH",
"429 308 OFFCURVE",
"394 269 OFFCURVE",
"394 223 CURVE SMOOTH",
"394 175 OFFCURVE",
"432 120 OFFCURVE",
"525 98 CURVE",
"307 15 LINE",
"78 285 OFFCURVE",
"294 600 OFFCURVE",
"491 563 CURVE SMOOTH"
);
}
);
width = 877;
}
);
leftMetricsKey = "-";
},
{
color = 1;
glyphname = "beh_meem-ar.init.liga";
lastChange = "2015-12-12 21:41:30 +0000";
layers = (
{
layerId = "5483B82D-F897-45AA-9987-2D1C58E320E8";
name = Bold;
paths = (
{
closed = 1;
nodes = (
"70 227 OFFCURVE",
"187 369 OFFCURVE",
"426 413 CURVE",
"449 364 OFFCURVE",
"463 311 OFFCURVE",
"468 253 CURVE",
"367 230 OFFCURVE",
"173 170 OFFCURVE",
"359 67 CURVE",
"173 5 LINE"
);
},
{
closed = 1;
nodes = (
"-14 62 OFFCURVE",
"-14 124 OFFCURVE",
"0 186 CURVE",
"135 186 OFFCURVE",
"226 146 OFFCURVE",
"360 67 CURVE",
"353 29 OFFCURVE",
"301 -48 OFFCURVE",
"272 -72 CURVE",
"226 -72 OFFCURVE",
"181 -8 OFFCURVE",
"163 0 CURVE",
"136 16 OFFCURVE",
"62 0 OFFCURVE",
"0 0 CURVE"
);
}
);
width = 508;
}
);
},
{
color = 1;
glyphname = "beh_meem-ar.liga";
lastChange = "2015-12-12 21:41:46 +0000";
layers = (
{
layerId = "5483B82D-F897-45AA-9987-2D1C58E320E8";
name = Bold;
paths = (
{
closed = 1;
nodes = (
"207 227 OFFCURVE",
"324 369 OFFCURVE",
"563 413 CURVE",
"587 364 OFFCURVE",
"601 311 OFFCURVE",
"606 253 CURVE",
"505 230 OFFCURVE",
"311 170 OFFCURVE",
"497 67 CURVE",
"311 5 LINE"
);
},
{
closed = 1;
nodes = (
"53 104 OFFCURVE",
"98 172 OFFCURVE",
"138 184 CURVE",
"223 180 OFFCURVE",
"312 172 OFFCURVE",
"360 140 CURVE",
"386 134 OFFCURVE",
"455 98 OFFCURVE",
"497 67 CURVE",
"490 29 OFFCURVE",
"435 -54 OFFCURVE",
"409 -72 CURVE",
"360 -74 OFFCURVE",
"318 -3 OFFCURVE",
"293 4 CURVE SMOOTH",
"252 16 OFFCURVE",
"197 -4 OFFCURVE",
"145 0 CURVE",
"196 104 LINE",
"187 -23 OFFCURVE",
"207 -177 OFFCURVE",
"229 -262 CURVE",
"199 -279 OFFCURVE",
"125 -289 OFFCURVE",
"71 -289 CURVE",
"66 -285 LINE",
"44 -183 OFFCURVE",
"34 -50 OFFCURVE",
"44 61 CURVE"
);
}
);
width = 646;
}
);
},
{
color = 1;
glyphname = "beh_heh-ar.medi.liga";
lastChange = "2015-12-12 21:41:35 +0000";
layers = (
{
layerId = "5483B82D-F897-45AA-9987-2D1C58E320E8";
name = Bold;
paths = (
{
closed = 1;
nodes = (
"267 290 OFFCURVE",
"196 217 OFFCURVE",
"189 17 CURVE",
"180 17 LINE",
"161 77 OFFCURVE",
"158 180 OFFCURVE",
"158 204 CURVE",
"150 208 LINE",
"110 193 OFFCURVE",
"48 186 OFFCURVE",
"0 186 CURVE",
"-24 124 OFFCURVE",
"-24 62 OFFCURVE",
"0 0 CURVE",
"32 0 OFFCURVE",
"54 3 OFFCURVE",
"82 14 CURVE",
"92 -59 OFFCURVE",
"129 -173 OFFCURVE",
"175 -217 CURVE",
"229 -204 OFFCURVE",
"311 -158 OFFCURVE",
"341 -130 CURVE",
"288 -50 OFFCURVE",
"264 115 OFFCURVE",
"366 115 CURVE SMOOTH",
"452 115 OFFCURVE",
"482 0 OFFCURVE",
"606 0 CURVE",
"620 62 OFFCURVE",
"620 124 OFFCURVE",
"606 186 CURVE",
"511 186 OFFCURVE",
"493 305 OFFCURVE",
"364 296 CURVE SMOOTH"
);
}
);
width = 606;
}
);
},
{
color = 1;
glyphname = "beh_heh-ar.init.liga";
lastChange = "2015-12-12 21:41:41 +0000";
layers = (
{
layerId = "5483B82D-F897-45AA-9987-2D1C58E320E8";
name = Bold;
paths = (
{
closed = 1;
nodes = (
"358 316 OFFCURVE",
"187 211 OFFCURVE",
"189 17 CURVE",
"180 17 LINE",
"167 51 OFFCURVE",
"158 149 OFFCURVE",
"158 204 CURVE",
"151 208 LINE",
"102 191 OFFCURVE",
"47 186 OFFCURVE",
"0 186 CURVE",
"-11 124 OFFCURVE",
"-21 62 OFFCURVE",
"0 0 CURVE",
"19 0 OFFCURVE",
"45 0 OFFCURVE",
"82 14 CURVE",
"103 -117 OFFCURVE",
"150 -194 OFFCURVE",
"175 -217 CURVE",
"220 -206 OFFCURVE",
"310 -159 OFFCURVE",
"341 -130 CURVE",
"304 -66 OFFCURVE",
"294 -8 OFFCURVE",
"310 26 CURVE SMOOTH",
"349 104 OFFCURVE",
"469 102 OFFCURVE",
"527 94 CURVE",
"541 132 OFFCURVE",
"560 245 OFFCURVE",
"552 304 CURVE"
);
}
);
width = 594;
},
{
associatedMasterId = "5483B82D-F897-45AA-9987-2D1C58E320E8";
layerId = "30E62519-3E6C-4291-A760-CCBD44510381";
name = "Bold Dec 6 15, 16:13";
paths = (
{
closed = 0;
nodes = (
"356 -296 LINE"
);
},
{
closed = 1;
nodes = (
"307 282 OFFCURVE",
"200 317 CURVE",
"134 282 OFFCURVE",
"66 273 OFFCURVE",
"0 273 CURVE",
"-34 182 OFFCURVE",
"-34 91 OFFCURVE",
"0 0 CURVE",
"59 0 OFFCURVE",
"121 8 OFFCURVE",
"170 33 CURVE",
"217 -109 OFFCURVE",
"304 -246 OFFCURVE",
"356 -296 CURVE",
"421 -266 OFFCURVE",
"480 -227 OFFCURVE",
"535 -177 CURVE",
"495 -76 OFFCURVE",
"482 22 OFFCURVE",
"480 107 CURVE",
"561 169 OFFCURVE",
"672 201 OFFCURVE",
"796 188 CURVE",
"817 239 OFFCURVE",
"845 394 OFFCURVE",
"833 475 CURVE",
"628 499 OFFCURVE",
"410 394 OFFCURVE",
"326 234 CURVE",
"308 169 OFFCURVE",
"310 -8 OFFCURVE",
"359 -105 CURVE",
"329 63 LINE",
"307 59 LINE",
"300 102 OFFCURVE"
);
}
);
width = 812;
},
{
associatedMasterId = "5483B82D-F897-45AA-9987-2D1C58E320E8";
layerId = "971C8C5F-9FAB-448A-8BA5-F157BD218146";
name = "Bold Dec 6 15, 16:32";
paths = (
{
closed = 1;
nodes = (
"534 -325 CURVE",
"691 -207 LINE",
"647 -119 OFFCURVE",
"572 78 OFFCURVE",
"580 196 CURVE",
"550 26 LINE",
"691 148 OFFCURVE",
"817 172 OFFCURVE",
"952 158 CURVE",
"973 209 OFFCURVE",
"1001 364 OFFCURVE",
"989 445 CURVE",
"532 471 OFFCURVE",
"314 59 OFFCURVE"
);
},
{
closed = 1;
nodes = (
"247 172 LINE",
"217 -125 OFFCURVE",
"437 -303 OFFCURVE",
"504 -347 CURVE",
"580 -291 LINE",
"522 6 LINE",
"480 -6 LINE",
"447 12 OFFCURVE",
"386 97 OFFCURVE",
"455 233 CURVE"
);
},
{
closed = 1;
nodes = (
"340 93 OFFCURVE",
"430 159 OFFCURVE",
"455 233 CURVE",
"436 280 OFFCURVE",
"351 366 OFFCURVE",
"318 382 CURVE",
"280 347 OFFCURVE",
"217 273 OFFCURVE",
"0 273 CURVE",
"-30 182 OFFCURVE",
"-30 91 OFFCURVE",
"0 0 CURVE",
"78 0 OFFCURVE",
"185 4 OFFCURVE",
"286 69 CURVE"
);
}
);
width = 1032;
},
{
associatedMasterId = "5483B82D-F897-45AA-9987-2D1C58E320E8";
background = {
paths = (
{
closed = 1;
nodes = (
"430 122 LINE",
"396 22 LINE",
"590 150 OFFCURVE",
"711 172 OFFCURVE",
"842 158 CURVE",
"863 209 OFFCURVE",
"891 364 OFFCURVE",
"879 445 CURVE",
"568 463 OFFCURVE",
"367 277 OFFCURVE",
"341 35 CURVE",
"334 30 LINE",
"294 71 OFFCURVE",
"275 150 OFFCURVE",
"330 226 CURVE",
"318 262 OFFCURVE",
"284 318 OFFCURVE",
"255 341 CURVE",
"182 294 OFFCURVE",
"107 273 OFFCURVE",
"0 273 CURVE",
"-15 182 OFFCURVE",
"-30 91 OFFCURVE",
"0 0 CURVE",
"53 0 OFFCURVE",
"135 0 OFFCURVE",
"259 67 CURVE",
"266 260 LINE",
"114 113 OFFCURVE",
"135 -142 OFFCURVE",
"367 -324 CURVE",
"441 -293 OFFCURVE",
"521 -248 OFFCURVE",
"580 -189 CURVE",
"543 -136 OFFCURVE",
"456 69 OFFCURVE",
"486 195 CURVE"
);
}
);
};
layerId = "AD50C8E0-7559-4334-AFE5-6FC62EBEBF77";
name = "Bold Dec 6 15, 16:51";
paths = (
{
closed = 1;
nodes = (
"223 284 LINE",
"175 272 OFFCURVE",
"75 273 OFFCURVE",
"0 273 CURVE",
"-15 182 OFFCURVE",
"-30 91 OFFCURVE",
"0 0 CURVE",
"53 0 OFFCURVE",
"135 0 OFFCURVE",
"259 67 CURVE",
"224 112 LINE",
"134 229 LINE",
"134 -91 OFFCURVE",
"238 -273 OFFCURVE",
"287 -317 CURVE",
"344 -302 OFFCURVE",
"460 -233 OFFCURVE",
"500 -191 CURVE",
"436 -75 OFFCURVE",
"422 122 OFFCURVE",
"484 255 CURVE",
"375 192 LINE",
"395 -50 LINE",
"460 144 OFFCURVE",
"664 172 OFFCURVE",
"772 158 CURVE",
"793 209 OFFCURVE",
"821 364 OFFCURVE",
"809 445 CURVE",
"535 463 OFFCURVE",
"359 272 OFFCURVE",
"297 25 CURVE",
"284 25 LINE",
"265 70 OFFCURVE",
"255 192 OFFCURVE",
"255 266 CURVE"
);
}
);
width = 932;
}
);
leftMetricsKey = "-";
},
{
color = 5;
glyphname = "beh_hehDoachashmee-ar.init";
lastChange = "2015-12-13 15:59:39 +0000";
layers = (
{
components = (
{
name = "dot-one";
transform = "{1, 0, 0, 1, 497, -46}";
},
{
name = "hehDoachashmee-ar.init";
}
);
layerId = "5483B82D-F897-45AA-9987-2D1C58E320E8";
name = Bold;
paths = (
{
closed = 1;
nodes = (
"380 60 LINE",
"449 88 OFFCURVE",
"540 119 OFFCURVE",
"661 119 CURVE",
"675 144 OFFCURVE",
"698 253 OFFCURVE",
"687 315 CURVE",
"556 315 OFFCURVE",
"436 227 OFFCURVE",
"348 204 CURVE"
);
}
);
width = 734;
}
);
},
{
color = 1;
glyphname = "beh_alefMaksura-ar.fina.dotless";
lastChange = "2015-12-12 19:18:44 +0000";
layers = (
{
layerId = "5483B82D-F897-45AA-9987-2D1C58E320E8";
name = Bold;
paths = (
{
closed = 1;
nodes = (
"733 186 OFFCURVE",
"732 359 OFFCURVE",
"616 359 CURVE SMOOTH",
"507 359 OFFCURVE",
"343 208 OFFCURVE",
"343 117 CURVE SMOOTH",
"343 23 OFFCURVE",
"522 -13 OFFCURVE",
"565 -94 CURVE",
"509 -7 LINE",
"327 -112 OFFCURVE",
"213 -105 OFFCURVE",
"213 27 CURVE SMOOTH",
"213 64 OFFCURVE",
"221 124 OFFCURVE",
"239 197 CURVE",
"101 241 LINE",
"59 133 OFFCURVE",
"40 39 OFFCURVE",
"40 -29 CURVE SMOOTH",
"40 -189 OFFCURVE",
"140 -257 OFFCURVE",
"271 -257 CURVE SMOOTH",
"392 -257 OFFCURVE",
"513 -201 OFFCURVE",
"589 -141 CURVE",
"634 -47 OFFCURVE",
"636 36 OFFCURVE",
"623 66 CURVE SMOOTH",
"606 104 OFFCURVE",
"528 150 OFFCURVE",
"467 163 CURVE",
"489 85 LINE",
"523 135 OFFCURVE",
"563 182 OFFCURVE",
"605 182 CURVE SMOOTH",
"686 182 OFFCURVE",
"695 0 OFFCURVE",
"838 0 CURVE",
"861 62 OFFCURVE",
"861 124 OFFCURVE",
"838 186 CURVE"
);
}
);
width = 838;
}
);
},
{
color = 9;
glyphname = "peh_heh-ar.init";
lastChange = "2015-12-12 19:16:47 +0000";
layers = (
{
components = (
{
name = "dot-three-b";
transform = "{1, 0, 0, 1, 329, -59}";
}
);
layerId = "5483B82D-F897-45AA-9987-2D1C58E320E8";
name = Bold;
paths = (
{
closed = 1;
nodes = (
"379 345 OFFCURVE",
"187 229 OFFCURVE",
"189 17 CURVE",
"180 17 LINE",
"167 51 OFFCURVE",
"158 149 OFFCURVE",
"158 204 CURVE",
"151 208 LINE",
"102 191 OFFCURVE",
"47 186 OFFCURVE",
"0 186 CURVE",
"-30 124 OFFCURVE",
"-30 62 OFFCURVE",
"0 0 CURVE",
"19 0 OFFCURVE",
"45 0 OFFCURVE",
"82 14 CURVE",
"103 -117 OFFCURVE",
"150 -194 OFFCURVE",
"175 -217 CURVE",
"220 -206 OFFCURVE",
"310 -159 OFFCURVE",
"341 -130 CURVE",
"304 -66 OFFCURVE",
"299 -8 OFFCURVE",
"310 26 CURVE SMOOTH",
"341 124 OFFCURVE",
"504 132 OFFCURVE",
"575 122 CURVE",
"589 159 OFFCURVE",
"608 272 OFFCURVE",
"600 331 CURVE"
);
}
);
width = 662;
}
);
},
{
color = 9;
glyphname = "peh_heh-ar.medi";
lastChange = "2015-12-12 19:22:26 +0000";
layers = (
{
components = (
{
name = "dot-three-b";
transform = "{1, 0, 0, 1, 332, -140}";
}
);
layerId = "5483B82D-F897-45AA-9987-2D1C58E320E8";
name = Bold;
paths = (
{
closed = 1;
nodes = (
"265 296 OFFCURVE",
"197 219 OFFCURVE",
"189 17 CURVE",
"180 17 LINE",
"161 77 OFFCURVE",
"158 180 OFFCURVE",
"158 204 CURVE",
"150 208 LINE",
"110 193 OFFCURVE",
"48 186 OFFCURVE",
"0 186 CURVE",
"-24 124 OFFCURVE",
"-24 62 OFFCURVE",
"0 0 CURVE",
"32 0 OFFCURVE",
"53 3 OFFCURVE",
"81 14 CURVE",
"92 -59 OFFCURVE",
"129 -173 OFFCURVE",
"175 -217 CURVE",
"229 -204 OFFCURVE",
"311 -158 OFFCURVE",
"341 -130 CURVE",
"288 -48 OFFCURVE",
"261 115 OFFCURVE",
"370 115 CURVE SMOOTH",
"462 115 OFFCURVE",
"495 0 OFFCURVE",
"647 0 CURVE",
"671 62 OFFCURVE",
"671 124 OFFCURVE",
"647 186 CURVE",
"515 186 OFFCURVE",
"480 296 OFFCURVE",
"364 296 CURVE SMOOTH"
);
}
);
width = 647;
}
);
},
{
color = 5;
glyphname = "teh_yehbarree-ar.liga";
lastChange = "2015-12-13 14:13:39 +0000";
layers = (
{
background = {
paths = (
{
closed = 1;
nodes = (
"305 22 OFFCURVE",
"338 0 OFFCURVE",
"405 0 CURVE SMOOTH",
"490 1 OFFCURVE",
"559 14 OFFCURVE",
"606 29 CURVE",
"652 102 OFFCURVE",
"659 247 OFFCURVE",
"629 342 CURVE",
"468 305 LINE",
"478 277 OFFCURVE",
"492 238 OFFCURVE",
"502 196 CURVE",
"478 190 OFFCURVE",
"445 187 OFFCURVE",
"405 186 CURVE SMOOTH",
"402 186 OFFCURVE",
"350 212 OFFCURVE",
"245 202 CURVE SMOOTH",
"115 191 OFFCURVE",
"19 22 OFFCURVE",
"43 -105 CURVE SMOOTH",
"62 -208 OFFCURVE",
"154 -229 OFFCURVE",
"279 -229 CURVE SMOOTH",
"420 -229 OFFCURVE",
"470 -227 OFFCURVE",
"518 -232 CURVE",
"545 -178 OFFCURVE",
"558 -124 OFFCURVE",
"557 -69 CURVE",
"494 -51 OFFCURVE",
"318 -51 OFFCURVE",
"264 -51 CURVE SMOOTH",
"207 -51 OFFCURVE",
"170 -33 OFFCURVE",
"170 -9 CURVE SMOOTH",
"170 20 OFFCURVE",
"225 22 OFFCURVE",
"241 22 CURVE SMOOTH"
);
}
);
};
components = (
{
name = "_part.beh_yehbarree-ar";
},
{
name = "dot-two";
transform = "{1, 0, 0, 1, 188, 471}";
}
);
layerId = "5483B82D-F897-45AA-9987-2D1C58E320E8";
name = Bold;
width = 677;
}
);
},
{
color = 2;
glyphname = "hah_jeem-ar";
lastChange = "2015-12-13 12:52:02 +0000";
layers = (
{
background = {
paths = (
{
closed = 1;
nodes = (
"240 446 LINE",
"274 446 LINE",
"274 502 LINE",
"240 502 LINE"
);
}
);
};
components = (
{
name = "dot-one";
transform = "{1, 0, 0, 1, 222, -84}";
}
);
layerId = "5483B82D-F897-45AA-9987-2D1C58E320E8";
name = Bold;
paths = (
{
closed = 1;
nodes = (
"186 163 OFFCURVE",
"344 115 OFFCURVE",
"480 102 CURVE",
"511 243 LINE",
"388 268 OFFCURVE",
"197 323 OFFCURVE",
"101 379 CURVE",
"88 354 OFFCURVE",
"62 250 OFFCURVE",
"62 212 CURVE"
);
},
{
closed = 1;
nodes = (
"151 -30 OFFCURVE",
"332 50 OFFCURVE",
"480 80 CURVE",
"492 113 OFFCURVE",
"511 199 OFFCURVE",
"511 243 CURVE",
"215 223 OFFCURVE",
"4 35 OFFCURVE",
"4 -156 CURVE SMOOTH",
"4 -374 OFFCURVE",
"272 -439 OFFCURVE",
"486 -377 CURVE",
"485 -328 OFFCURVE",
"465 -234 OFFCURVE",
"451 -199 CURVE",
"279 -234 OFFCURVE",
"151 -187 OFFCURVE",
"151 -111 CURVE SMOOTH"
);
},
{
closed = 1;
nodes = (
"382 556 OFFCURVE",
"479 464 OFFCURVE",
"556 410 CURVE",
"601 410 OFFCURVE",
"627 418 OFFCURVE",
"654 418 CURVE",
"676 524 LINE",
"615 539 OFFCURVE",
"587 558 OFFCURVE",
"537 605 CURVE SMOOTH",
"470 668 OFFCURVE",
"414 732 OFFCURVE",
"302 742 CURVE",
"276 684 OFFCURVE",
"259 623 OFFCURVE",
"253 556 CURVE"
);
},
{
closed = 1;
nodes = (
"128 243 LINE",
"211 259 OFFCURVE",
"480 319 OFFCURVE",
"645 361 CURVE",
"659 404 OFFCURVE",
"674 469 OFFCURVE",
"676 524 CURVE",
"489 479 OFFCURVE",
"207 410 OFFCURVE",
"101 379 CURVE"
);
},
{
closed = 1;
nodes = (
"321 271 LINE",
"344 271 LINE",
"344 309 LINE",
"321 309 LINE"
);
}
);
width = 716;
}
);
unicode = FC17;
},
